SplineFontDB: 3.0
FontName: SPLaksaman-BoldItalic
FullName: SP Laksaman Bold Italic
FamilyName: SP Laksaman
Weight: Bold
Copyright: Copyright (c) 2006 by Department of Intellectual Property (DIP), Ministry of Commerce and Software Industry Promotion Agency (Public Organization) (SIPA). All rights reserved.\nCreated by : Suppakit CHALERMLARP.
Version: 2.3
ItalicAngle: -12
UnderlinePosition: -35
UnderlineWidth: 30
Ascent: 800
Descent: 200
LayerCount: 2
Layer: 0 0 "Back"  1
Layer: 1 0 "Fore"  0
XUID: [1021 375 425136265 5782944]
FSType: 0
OS2Version: 3
OS2_WeightWidthSlopeOnly: 0
OS2_UseTypoMetrics: 1
CreationTime: 1158862012
ModificationTime: 1404907117
PfmFamily: 17
TTFWeight: 700
TTFWidth: 5
LineGap: 30
VLineGap: 0
Panose: 2 11 5 0 4 2 0 2 0 3
OS2TypoAscent: 50
OS2TypoAOffset: 1
OS2TypoDescent: -50
OS2TypoDOffset: 1
OS2TypoLinegap: 0
OS2WinAscent: 6
OS2WinAOffset: 1
OS2WinDescent: -231
OS2WinDOffset: 1
HheadAscent: 6
HheadAOffset: 1
HheadDescent: 231
HheadDOffset: 1
OS2SubXSize: 700
OS2SubYSize: 650
OS2SubXOff: 0
OS2SubYOff: 140
OS2SupXSize: 700
OS2SupYSize: 650
OS2SupXOff: 0
OS2SupYOff: 477
OS2StrikeYSize: 30
OS2StrikeYPos: 250
OS2FamilyClass: 2053
OS2Vendor: 'psk '
Lookup: 4 0 0 "'frac' Diagonal Fractions in Latin lookup 0"  {"'frac' Diagonal Fractions in Latin lookup 0 subtable"  } ['frac' ('latn' <'dflt' > ) ]
Lookup: 6 0 0 "'rlig' Required Ligatures in Latin lookup 1"  {"'rlig' Required Ligatures in Latin lookup 1 subtable"  } ['rlig' ('latn' <'dflt' > ) ]
Lookup: 6 0 0 "'rlig' Required Ligatures in Latin lookup 2"  {"'rlig' Required Ligatures in Latin lookup 2 subtable"  } ['rlig' ('latn' <'dflt' > ) ]
Lookup: 6 0 0 "'rlig' Required Ligatures in Latin lookup 3"  {"'rlig' Required Ligatures in Latin lookup 3 subtable"  } ['rlig' ('latn' <'dflt' > ) ]
Lookup: 6 0 0 "'rlig' Required Ligatures in Latin lookup 4"  {"'rlig' Required Ligatures in Latin lookup 4 subtable"  } ['rlig' ('latn' <'dflt' > ) ]

StartChar: .notdef
Encoding: 65536 -1 0
Width: 1049
VWidth: 1504
Flags: W
HStem: 0 47<134 916> 1170 47<134 916>
VStem: 80 54<47 1170> 916 54<47 1170>
LayerCount: 2
Fore
SplineSet
970 0 m 1
 80 0 l 1
 80 1217 l 1
 970 1217 l 1
 970 0 l 1
916 47 m 1
 916 1170 l 1
 134 1170 l 1
 134 47 l 1
 916 47 l 1
EndSplineSet
Validated: 1
EndChar

StartChar: exclam
Encoding: 33 33 2
Width: 252
VWidth: 1504
Flags: W
HStem: -14 145<30.5663 112.303> 696 20G<154.134 266>
VStem: -1 147<19.2783 98.7313>
LayerCount: 2
Fore
SplineSet
144 209 m 1
 60 209 l 1
 158 716 l 1
 266 716 l 1
 144 209 l 1
146 74 m 0
 146 28 103 -14 57 -14 c 256
 19 -14 -1 15 -1 45 c 0
 -1 94 45 131 87 131 c 256
 124 131 146 105 146 74 c 0
EndSplineSet
Validated: 1
EndChar

StartChar: quotedbl
Encoding: 34 34 3
Width: 437
VWidth: 1504
Flags: W
HStem: 501 290<174 200 356 384>
VStem: 132 331
LayerCount: 2
Fore
SplineSet
384 501 m 1
 314 501 l 1
 356 791 l 1
 463 791 l 1
 384 501 l 1
200 501 m 1
 132 501 l 1
 174 791 l 1
 281 791 l 1
 200 501 l 1
EndSplineSet
Validated: 1
EndChar

StartChar: numbersign
Encoding: 35 35 4
Width: 694
VWidth: 1504
Flags: W
HStem: 0 21G<51 146.636 329 424.916> 214 79<45 122 238 405 516 600> 427 81<110 196 310 475 590 668>
LayerCount: 2
Fore
SplineSet
418 0 m 1
 329 0 l 1
 405 214 l 1
 211 214 l 1
 140 0 l 1
 51 0 l 1
 122 214 l 1
 29 214 l 1
 45 293 l 1
 149 293 l 1
 196 427 l 1
 93 427 l 1
 110 508 l 1
 221 508 l 1
 293 714 l 1
 379 714 l 1
 310 508 l 1
 501 508 l 1
 570 714 l 1
 659 714 l 1
 590 508 l 1
 684 508 l 1
 668 427 l 1
 561 427 l 1
 516 293 l 1
 617 293 l 1
 600 214 l 1
 492 214 l 1
 418 0 l 1
429 293 m 1
 475 427 l 1
 283 427 l 1
 238 293 l 1
 429 293 l 1
EndSplineSet
Validated: 1
EndChar

StartChar: dollar
Encoding: 36 36 5
Width: 552
VWidth: 1504
Flags: W
HStem: -83 187<171.949 236> 612 190<347 410.751>
VStem: 123 97<467.598 568.357> 374 95<160.765 273.26>
LayerCount: 2
Fore
SplineSet
218 104 m 0
 317 104 374 163 374 222 c 0
 374 261 342 296 277 326 c 0
 174 374 123 429 123 491 c 0
 123 556 179 662 323 690 c 1
 347 802 l 1
 435 802 l 1
 411 692 l 1
 457 686 502 669 545 642 c 1
 484 569 l 1
 456 598 412 612 353 612 c 0
 276 612 220 573 220 506 c 0
 220 478 261 442 326 409 c 0
 434 358 469 311 469 246 c 0
 469 147 384 51 259 26 c 1
 236 -83 l 1
 147 -83 l 1
 170 23 l 1
 105 29 53 49 15 84 c 1
 72 156 l 1
 108 121 157 104 218 104 c 0
EndSplineSet
Validated: 1
EndChar

StartChar: percent
Encoding: 37 37 6
Width: 1034
VWidth: 1504
Flags: W
HStem: -12 81<692.467 800.843> 289 81<196.275 307.852> 350 79<746.976 854.545> 650 80<249.001 357.794> 696 20G<762.178 871>
VStem: 91 92<383.62 557.759> 374 92<462.272 634.972> 585 91<85.587 257.303> 870 93<160.454 334.234>
LayerCount: 2
Fore
SplineSet
257 -14 m 1x8f80
 165 -14 l 1
 779 716 l 1
 871 716 l 1
 257 -14 l 1x8f80
230 289 m 0xd780
 146 289 91 326 91 401 c 0
 91 612 179 730 325 730 c 0
 416 730 466 687 466 602 c 0
 466 485 419 289 230 289 c 0xd780
307 650 m 0
 215 650 183 522 183 438 c 0
 183 393 207 370 248 370 c 0
 349 370 374 511 374 570 c 0
 374 623 352 650 307 650 c 0
727 -12 m 0
 631 -12 585 36 585 132 c 0
 585 191 612 429 820 429 c 0xa780
 935 429 963 360 963 293 c 0
 963 185 916 -12 727 -12 c 0
803 350 m 0
 694 350 676 179 676 149 c 0
 676 96 698 69 743 69 c 0
 846 69 870 220 870 271 c 0
 870 324 848 350 803 350 c 0
EndSplineSet
Validated: 1
EndChar

StartChar: ampersand
Encoding: 38 38 7
Width: 731
VWidth: 1504
Flags: W
HStem: -21 21G<543.151 603.381> -14 82<169.036 345.609> 663 77<339.249 462.896>
VStem: 24 97<111.353 251.776> 187 95<469.769 603.132> 475 90<541.542 650.799> 626 79<346.001 400>
LayerCount: 2
Fore
SplineSet
565 619 m 0x7e
 565 478 398 406 347 384 c 1
 382 333 431 269 496 190 c 1
 559 254 603 324 626 400 c 1
 705 400 l 1
 668 292 616 203 548 134 c 1
 650 21 l 1
 561 -21 l 1xbe
 478 72 l 1
 387 15 301 -14 220 -14 c 0
 80 -14 24 78 24 156 c 0
 24 248 81 347 217 414 c 1
 197 448 187 482 187 515 c 0
 187 626 288 740 426 740 c 0
 529 740 565 672 565 619 c 0x7e
316 448 m 1
 473 519 475 574 475 606 c 0
 475 652 441 663 405 663 c 0
 322 663 282 585 282 543 c 0
 282 517 293 485 316 448 c 1
121 175 m 0
 121 112 171 68 248 68 c 0x7e
 314 68 375 88 430 128 c 1
 259 350 l 1
 227 334 121 280 121 175 c 0
EndSplineSet
Validated: 1
EndChar

StartChar: quotesingle
Encoding: 39 39 8
Width: 254
VWidth: 1504
Flags: W
HStem: 501 290<174 200>
VStem: 132 149
LayerCount: 2
Fore
SplineSet
200 501 m 1
 132 501 l 1
 174 791 l 1
 281 791 l 1
 200 501 l 1
EndSplineSet
Validated: 1
EndChar

StartChar: parenleft
Encoding: 40 40 9
Width: 367
VWidth: 1504
Flags: W
VStem: 59 97<101.297 380.747>
LayerCount: 2
Fore
SplineSet
453 797 m 1
 203 575 156 363 156 255 c 0
 156 141 190 28 265 -83 c 1
 159 -83 l 1
 93 6 59 106 59 218 c 0
 59 315 79 546 341 797 c 1
 453 797 l 1
EndSplineSet
Validated: 1
EndChar

StartChar: parenright
Encoding: 41 41 10
Width: 367
VWidth: 1504
Flags: W
VStem: 227 95<325.522 612.123>
LayerCount: 2
Fore
SplineSet
322 516 m 0
 322 408 312 160 38 -83 c 1
 -65 -83 l 1
 81 57 227 246 227 466 c 0
 227 576 191 686 119 797 c 1
 223 797 l 1
 284 712 322 618 322 516 c 0
EndSplineSet
Validated: 1
EndChar

StartChar: asterisk
Encoding: 42 42 11
Width: 515
VWidth: 1504
Flags: W
HStem: 519 78<117.474 183.846 427.333 500.526> 726 20G<244.778 289.047 400.581 445.222>
LayerCount: 2
Fore
SplineSet
421 417 m 1
 335 372 l 1
 296 501 l 1
 203 372 l 1
 135 417 l 1
 254 532 l 1
 102 519 l 1
 119 597 l 1
 265 585 l 1
 197 701 l 1
 283 746 l 1
 322 617 l 1
 415 746 l 1
 483 701 l 1
 364 585 l 1
 516 597 l 1
 499 520 l 1
 353 532 l 1
 421 417 l 1
EndSplineSet
Validated: 1
EndChar

StartChar: plus
Encoding: 43 43 12
Width: 627
VWidth: 1504
Flags: W
HStem: 0 21G<200 299.153> 236 83<45 250 363 567>
LayerCount: 2
Fore
SplineSet
295 0 m 1
 200 0 l 1
 250 236 l 1
 27 236 l 1
 45 319 l 1
 268 319 l 1
 316 546 l 1
 411 546 l 1
 363 319 l 1
 585 319 l 1
 567 236 l 1
 344 236 l 1
 295 0 l 1
EndSplineSet
Validated: 1
EndChar

StartChar: comma
Encoding: 44 44 13
Width: 258
VWidth: 1504
Flags: W
HStem: -161 299
VStem: 1 152<-0.746826 101.914>
LayerCount: 2
Fore
SplineSet
93 138 m 0
 128 138 153 115 153 77 c 0
 153 63 140 -84 -30 -161 c 1
 -53 -117 l 1
 6 -85 44 -50 60 -12 c 1
 20 -10 1 8 1 41 c 0
 1 97 48 138 93 138 c 0
EndSplineSet
Validated: 1
EndChar

StartChar: hyphen
Encoding: 45 45 14
AltUni2: 0000ad.ffffffff.0
Width: 339
VWidth: 1504
Flags: W
HStem: 236 81<21 287>
VStem: -11 331
LayerCount: 2
Fore
SplineSet
287 236 m 1
 -11 236 l 1
 21 317 l 1
 320 317 l 1
 287 236 l 1
EndSplineSet
Validated: 1
EndChar

StartChar: period
Encoding: 46 46 15
Width: 258
VWidth: 1504
Flags: W
HStem: -14 145<33.5663 115.303>
VStem: 2 147<19.2783 98.7313>
LayerCount: 2
Fore
SplineSet
149 74 m 0
 149 28 106 -14 60 -14 c 256
 22 -14 2 15 2 45 c 0
 2 94 48 131 90 131 c 256
 127 131 149 105 149 74 c 0
EndSplineSet
Validated: 1
EndChar

StartChar: slash
Encoding: 47 47 16
Width: 415
VWidth: 1504
Flags: W
HStem: 720 20G<432.524 543>
LayerCount: 2
Fore
SplineSet
-23 -42 m 1
 -119 -42 l 1
 447 740 l 1
 543 740 l 1
 -23 -42 l 1
EndSplineSet
Validated: 1
EndChar

StartChar: zero
Encoding: 48 48 17
Width: 568
VWidth: 1504
Flags: W
HStem: -14 83<170.127 298.402> 638 83<285.887 412.28>
VStem: 36 95<113.227 377.775> 452 95<326.214 595.545>
LayerCount: 2
Fore
SplineSet
367 721 m 0
 511 721 547 592 547 482 c 0
 547 297 434 -14 212 -14 c 0
 71 -14 36 118 36 228 c 0
 36 423 159 721 367 721 c 0
230 69 m 0
 389 69 452 362 452 487 c 0
 452 599 412 638 353 638 c 0
 200 638 131 357 131 223 c 0
 131 110 171 69 230 69 c 0
EndSplineSet
Validated: 1
EndChar

StartChar: one
Encoding: 49 49 18
Width: 568
VWidth: 1504
Flags: W
HStem: 0 77<93 205 301 396> 699 20G<353.925 396.5>
LayerCount: 2
Fore
SplineSet
396 0 m 1
 78 0 l 1
 93 77 l 1
 205 77 l 1
 311 576 l 1
 200 496 l 1
 156 558 l 1
 382 719 l 1
 411 719 426 704 426 674 c 0
 426 666 425 657 423 647 c 2
 301 77 l 1
 411 77 l 1
 396 0 l 1
EndSplineSet
Validated: 1
EndChar

StartChar: two
Encoding: 50 50 19
Width: 568
VWidth: 1504
Flags: W
HStem: 0 84<108 457> 632 87<293.409 453.727>
VStem: 474 97<490.613 611.114>
LayerCount: 2
Fore
SplineSet
394 719 m 0
 511 719 571 650 571 571 c 0
 571 452 463 357 259 206 c 0
 178 147 128 106 108 84 c 1
 492 84 l 1
 457 0 l 1
 -30 0 l 1
 -12 44 4 80 18 108 c 1
 51 140 148 218 307 343 c 0
 422 433 474 498 474 560 c 0
 474 608 441 632 375 632 c 0
 298 632 242 587 208 498 c 1
 123 520 l 1
 160 633 254 719 394 719 c 0
EndSplineSet
Validated: 1
EndChar

StartChar: three
Encoding: 51 51 20
Width: 568
VWidth: 1504
Flags: W
HStem: -12 92<82.0579 279.41> 522 21G<127.714 180> 638 81<270.906 417.604>
VStem: 412 98<198.188 333.047> 425 92<543.743 627.909>
LayerCount: 2
Fore
SplineSet
510 295 m 0xf0
 510 166 393 -12 147 -12 c 0
 79 -12 25 9 -15 51 c 1
 42 128 l 1
 80 96 127 80 182 80 c 0
 300 80 412 174 412 274 c 0xf0
 412 320 382 360 325 360 c 0
 288 360 249 345 209 316 c 1
 182 382 l 1
 207 395 425 509 425 594 c 0
 425 623 401 638 353 638 c 0
 273 638 198 577 162 522 c 1
 102 557 l 1
 153 642 250 719 375 719 c 0
 461 719 517 675 517 609 c 0xe8
 517 575 509 525 391 439 c 1
 504 417 510 322 510 295 c 0xf0
EndSplineSet
Validated: 1
EndChar

StartChar: four
Encoding: 52 52 21
Width: 568
VWidth: 1504
Flags: W
HStem: 0 21G<278 379.151> 159 82<122 311 426 493> 716 20G<412 524.838>
LayerCount: 2
Fore
SplineSet
329 241 m 1
 406 608 l 1
 295 544 177 385 122 241 c 1
 329 241 l 1
375 0 m 1
 278 0 l 1
 311 159 l 1
 9 159 l 1
 59 389 295 716 529 736 c 1
 426 241 l 1
 522 241 l 1
 493 159 l 1
 408 159 l 1
 375 0 l 1
EndSplineSet
Validated: 1
EndChar

StartChar: five
Encoding: 53 53 22
Width: 568
VWidth: 1504
Flags: W
HStem: -12 81<90.5689 275.044> 387 85<256.931 371.707> 635 81<302 552>
VStem: 415 98<201.256 346.977>
LayerCount: 2
Fore
SplineSet
322 472 m 0
 444 472 513 396 513 304 c 0
 513 163 386 -12 155 -12 c 0
 81 -12 24 10 -15 53 c 1
 39 122 l 1
 87 86 134 69 183 69 c 0
 306 69 415 177 415 284 c 0
 415 356 359 387 284 387 c 256
 237 387 203 370 182 337 c 1
 122 334 l 1
 229 716 l 1
 587 716 l 1
 552 635 l 1
 302 635 l 1
 256 460 l 1
 275 468 297 472 322 472 c 0
EndSplineSet
Validated: 1
EndChar

StartChar: six
Encoding: 54 54 23
Width: 568
VWidth: 1504
Flags: W
HStem: -12 84<177.681 312.8> 379 81<231.505 366.751> 656 75<494.931 548>
VStem: 34 99<116.618 273.592> 411 89<178.711 334.899>
LayerCount: 2
Fore
SplineSet
500 285 m 0
 500 147 391 -12 227 -12 c 0
 105 -12 34 67 34 184 c 0
 34 389 226 669 555 731 c 1
 548 656 l 1
 411 620 266 522 193 414 c 1
 231 445 277 460 331 460 c 0
 443 460 500 375 500 285 c 0
242 72 m 0
 329 72 411 169 411 263 c 0
 411 318 375 379 307 379 c 0
 212 379 133 280 133 188 c 0
 133 127 172 72 242 72 c 0
EndSplineSet
Validated: 1
EndChar

StartChar: seven
Encoding: 55 55 24
Width: 568
VWidth: 1504
Flags: W
HStem: 0 21G<132 261> 635 81<150 478>
VStem: 132 98<0 76.9562>
LayerCount: 2
Fore
SplineSet
230 0 m 1
 132 0 l 1
 199 280 315 492 478 635 c 1
 110 635 l 1
 150 716 l 1
 618 716 l 1
 587 635 l 1
 409 458 292 292 230 0 c 1
EndSplineSet
Validated: 1
EndChar

StartChar: eight
Encoding: 56 56 25
Width: 568
VWidth: 1504
Flags: W
HStem: -12 81<149.104 320.631> 639 82<271.523 426.298>
VStem: 17 93<108.406 245.086> 111 93<468.822 577.567> 409 93<149.961 300.858> 458 92<494.928 608.813>
LayerCount: 2
Fore
SplineSet
232 69 m 256xf8
 329 69 409 133 409 230 c 0
 409 269 390 341 292 347 c 0
 168 340 110 235 110 167 c 0
 110 123 138 69 232 69 c 256xf8
307 426 m 1
 376 444 458 478 458 555 c 0xf4
 458 589 436 639 353 639 c 256
 258 639 204 571 204 518 c 0
 204 477 239 446 307 426 c 1
502 243 m 0xf8
 502 143 422 -12 214 -12 c 0
 99 -12 17 39 17 148 c 0
 17 268 102 354 182 388 c 1
 135 417 111 454 111 500 c 0
 111 592 207 721 370 721 c 256
 497 721 550 642 550 571 c 0xf4
 550 461 463 410 417 388 c 1
 468 363 502 309 502 243 c 0xf8
EndSplineSet
Validated: 1
EndChar

StartChar: nine
Encoding: 57 57 26
Width: 568
VWidth: 1504
Flags: W
HStem: -24 75<36 89.3982> 247 81<216.361 350.729> 635 84<270.482 406.628>
VStem: 83 90<372.674 527.538> 450 100<432.753 588.971>
LayerCount: 2
Fore
SplineSet
356 719 m 0
 482 719 550 636 550 524 c 0
 550 322 360 38 29 -24 c 1
 36 51 l 1
 174 85 333 201 397 295 c 1
 361 263 313 247 253 247 c 256
 136 247 83 336 83 420 c 0
 83 559 193 719 356 719 c 0
277 328 m 0
 368 328 450 422 450 516 c 0
 450 577 414 635 341 635 c 0
 254 635 173 536 173 446 c 0
 173 390 208 328 277 328 c 0
EndSplineSet
Validated: 1
EndChar

StartChar: colon
Encoding: 58 58 27
Width: 258
VWidth: 1504
Flags: W
HStem: -14 145<33.5663 115.303> 356 145<111.851 194.172>
VStem: 2 147<19.2783 98.7313> 79 149<389.501 468.458>
LayerCount: 2
Fore
SplineSet
149 74 m 0xe0
 149 28 106 -14 60 -14 c 256
 22 -14 2 15 2 45 c 0
 2 94 48 131 90 131 c 256
 127 131 149 105 149 74 c 0xe0
228 444 m 0xd0
 228 395 181 356 138 356 c 256
 102 356 79 382 79 414 c 0
 79 462 124 501 168 501 c 256
 216 501 228 464 228 444 c 0xd0
EndSplineSet
Validated: 1
EndChar

StartChar: semicolon
Encoding: 59 59 28
Width: 258
VWidth: 1504
Flags: W
HStem: 356 145<111.851 194.172>
VStem: 1 152<-1.8147 101.261> 79 149<389.501 468.458>
LayerCount: 2
Fore
SplineSet
228 444 m 0xa0
 228 395 181 356 138 356 c 256
 102 356 79 382 79 414 c 0
 79 462 124 501 168 501 c 256
 216 501 228 464 228 444 c 0xa0
93 138 m 0
 129 138 153 114 153 78 c 0
 153 60 138 -84 -30 -161 c 1
 -53 -117 l 1
 6 -85 44 -50 60 -12 c 1
 20 -10 1 8 1 42 c 0xc0
 1 95 46 138 93 138 c 0
EndSplineSet
Validated: 1
EndChar

StartChar: less
Encoding: 60 60 29
Width: 627
VWidth: 1504
Flags: W
HStem: -15 21G<468.052 506.421>
LayerCount: 2
Fore
SplineSet
502 -15 m 1
 42 256 l 1
 54 317 l 1
 630 587 l 1
 611 492 l 1
 168 286 l 1
 523 80 l 1
 502 -15 l 1
EndSplineSet
Validated: 1
EndChar

StartChar: equal
Encoding: 61 61 30
Width: 627
VWidth: 1504
Flags: W
HStem: 146 80<50 522> 335 79<90 563>
LayerCount: 2
Fore
SplineSet
563 335 m 1
 74 335 l 1
 90 414 l 1
 579 414 l 1
 563 335 l 1
522 146 m 1
 33 146 l 1
 50 226 l 1
 539 226 l 1
 522 146 l 1
EndSplineSet
Validated: 1
EndChar

StartChar: greater
Encoding: 62 62 31
Width: 627
VWidth: 1504
Flags: W
HStem: -15 21G<-10.7895 27.5092>
LayerCount: 2
Fore
SplineSet
561 256 m 1
 -15 -15 l 1
 5 80 l 1
 448 287 l 1
 92 492 l 1
 111 587 l 1
 573 317 l 1
 561 256 l 1
EndSplineSet
Validated: 1
EndChar

StartChar: question
Encoding: 63 63 32
Width: 434
VWidth: 1504
Flags: W
HStem: -14 145<107.851 189.303> 641 86<186.221 340.86>
VStem: 75 148<19.104 98.5025> 123 87<176 282.702> 358 96<514.752 623.552>
LayerCount: 2
Fore
SplineSet
296 727 m 0xd8
 396 727 454 677 454 598 c 0
 454 554 443 485 313 376 c 0
 217 297 210 239 210 198 c 0
 210 191 211 184 211 176 c 1
 125 176 l 1
 123 191 123 204 123 216 c 0
 123 366 358 463 358 578 c 0
 358 620 328 641 268 641 c 0
 225 641 180 626 134 597 c 1
 111 671 l 1
 178 708 240 727 296 727 c 0xd8
223 74 m 0xe8
 223 28 180 -14 134 -14 c 256
 98 -14 75 12 75 44 c 0
 75 92 120 131 164 131 c 256
 201 131 223 105 223 74 c 0xe8
EndSplineSet
Validated: 1
EndChar

StartChar: at
Encoding: 64 64 33
Width: 860
VWidth: 1504
Flags: W
HStem: -143 62<214.932 449.243> 2 66<261.195 410.091> 11 69<549 595.511> 245 57<359.68 505> 417 63<345.55 497.751> 534 62<376.256 618.174>
VStem: 13 78<41.6459 248.54> 174 78<78.6326 176.709> 517 81<302.383 397.252> 738 73<225.414 418.216>
LayerCount: 2
Fore
SplineSet
304 -143 m 0xbfc0
 110 -143 13 -11 13 125 c 0
 13 346 221 596 522 596 c 0
 731 596 811 463 811 344 c 0
 811 139 645 11 478 11 c 1xbfc0
 481 65 l 1
 425 23 367 2 307 2 c 0xdfc0
 228 2 174 47 174 105 c 0
 174 184 234 295 513 302 c 1
 516 316 517 329 517 340 c 0
 517 391 488 417 429 417 c 0
 390 417 351 406 314 385 c 1
 299 438 l 1
 354 466 409 480 466 480 c 0
 571 480 598 411 598 345 c 0
 598 326 595 306 591 284 c 2
 558 128 l 2
 553 105 550 89 549 80 c 1
 567 80 l 1
 629 97 738 178 738 325 c 0
 738 409 690 534 501 534 c 0
 241 534 91 309 91 138 c 0
 91 20 172 -81 322 -81 c 0
 383 -81 448 -65 516 -33 c 1
 531 -93 l 1
 454 -126 378 -143 304 -143 c 0xbfc0
505 245 m 1
 399 241 252 220 252 118 c 0
 252 85 275 68 322 68 c 0xdfc0
 399 68 475 107 487 161 c 2
 505 245 l 1
EndSplineSet
Validated: 1
EndChar

StartChar: A
Encoding: 65 65 34
Width: 678
VWidth: 1504
Flags: W
HStem: 0 21G<-68 46.8828 506.234 614> 239 81<230 447> 707 20G<374.483 472.017>
LayerCount: 2
Fore
SplineSet
614 0 m 1
 510 0 l 1
 465 239 l 1
 177 239 l 1
 35 0 l 1
 -68 0 l 1
 387 727 l 1
 468 727 l 1
 614 0 l 1
447 320 m 1
 405 618 l 1
 230 320 l 1
 447 320 l 1
EndSplineSet
Validated: 1
EndChar

StartChar: B
Encoding: 66 66 35
Width: 595
VWidth: 1504
Flags: W
HStem: -9 81<120.188 326.778> 338 80<193 380.656> 642 83<238.695 434.721>
VStem: 438 95<162.666 290.043> 476 98<490.706 606.274>
LayerCount: 2
Fore
SplineSet
574 580 m 0xe8
 574 528 555 442 447 384 c 1
 504 354 533 310 533 252 c 0xf0
 533 148 466 -9 162 -9 c 0
 117 -9 67 -2 11 11 c 1
 158 702 l 1
 223 717 282 725 334 725 c 0
 494 725 574 677 574 580 c 0xe8
299 418 m 2
 427 418 476 500 476 556 c 0xe8
 476 613 423 642 316 642 c 0
 295 642 269 641 239 638 c 1
 193 418 l 1
 299 418 l 2
194 72 m 0
 385 72 438 168 438 233 c 0xf0
 438 311 353 338 262 338 c 2
 174 338 l 1
 119 77 l 1
 136 74 161 72 194 72 c 0
EndSplineSet
Validated: 1
EndChar

StartChar: C
Encoding: 67 67 36
Width: 649
VWidth: 1504
Flags: W
HStem: -11 82<231.772 474.183> 608 21G<621 660.533> 645 82<344.459 608.299>
VStem: 36 99<172.709 393.127>
LayerCount: 2
Fore
SplineSet
135 279 m 0
 135 193 173 71 322 71 c 0
 405 71 481 86 549 116 c 1
 558 38 l 1
 478 5 387 -11 286 -11 c 0
 86 -11 36 142 36 249 c 0
 36 452 168 727 471 727 c 0
 556 727 631 712 695 683 c 1
 648 608 l 1
 594 633 530 645 457 645 c 0
 219 645 135 406 135 279 c 0
EndSplineSet
Validated: 1
EndChar

StartChar: D
Encoding: 68 68 37
Width: 690
VWidth: 1504
Flags: W
HStem: -6 81<121.998 353.915> 642 82<239.728 487.193>
VStem: 578 98<338.986 558.379>
LayerCount: 2
Fore
SplineSet
676 479 m 0
 676 331 590 -6 209 -6 c 0
 168 -6 102 -1 11 9 c 1
 158 704 l 1
 275 717 354 724 394 724 c 0
 612 724 676 605 676 479 c 0
244 75 m 0
 511 75 578 346 578 463 c 0
 578 582 509 642 372 642 c 0
 343 642 299 639 238 633 c 1
 120 80 l 1
 152 77 193 75 244 75 c 0
EndSplineSet
Validated: 1
EndChar

StartChar: E
Encoding: 69 69 38
Width: 538
VWidth: 1504
Flags: W
HStem: 0 81<120 435> 337 81<193 469> 635 81<238 569>
LayerCount: 2
Fore
SplineSet
435 0 m 1
 9 0 l 1
 161 716 l 1
 587 716 l 1
 569 635 l 1
 238 635 l 1
 193 418 l 1
 487 418 l 1
 469 337 l 1
 174 337 l 1
 120 81 l 1
 451 81 l 1
 435 0 l 1
EndSplineSet
Validated: 1
EndChar

StartChar: F
Encoding: 70 70 39
Width: 538
VWidth: 1504
Flags: W
HStem: 0 21G<9 108.195> 329 80<190 498> 635 81<238 584>
LayerCount: 2
Fore
SplineSet
104 0 m 1
 9 0 l 1
 161 716 l 1
 602 716 l 1
 584 635 l 1
 238 635 l 1
 190 409 l 1
 514 409 l 1
 498 329 l 1
 173 329 l 1
 104 0 l 1
EndSplineSet
Validated: 1
EndChar

StartChar: G
Encoding: 71 71 40
Width: 682
VWidth: 1504
Flags: W
HStem: -11 82<231.772 460.638> 298 80<361 525> 608 21G<621 660.533> 645 82<344.459 608.299>
VStem: 36 99<172.709 393.127>
LayerCount: 2
Fore
SplineSet
135 279 m 0
 135 193 173 71 322 71 c 0
 381 71 434 79 481 95 c 1
 525 298 l 1
 344 298 l 1
 361 378 l 1
 636 378 l 1
 560 17 l 1
 514 29 l 1
 450 2 374 -11 286 -11 c 0
 86 -11 36 142 36 249 c 0
 36 452 168 727 471 727 c 0
 556 727 631 712 695 683 c 1
 648 608 l 1
 594 633 530 645 457 645 c 0
 219 645 135 406 135 279 c 0
EndSplineSet
Validated: 1
EndChar

StartChar: H
Encoding: 72 72 41
Width: 709
VWidth: 1504
Flags: W
HStem: 0 21G<9 108.235 474 573.246> 340 81<193 546> 696 20G<156.754 256 621.729 721>
LayerCount: 2
Fore
SplineSet
569 0 m 1
 474 0 l 1
 546 340 l 1
 176 340 l 1
 104 0 l 1
 9 0 l 1
 161 716 l 1
 256 716 l 1
 193 421 l 1
 563 421 l 1
 626 716 l 1
 721 716 l 1
 569 0 l 1
EndSplineSet
Validated: 1
EndChar

StartChar: I
Encoding: 73 73 42
Width: 245
VWidth: 1504
Flags: W
HStem: 0 21G<9 108.246> 696 20G<156.754 256>
VStem: 9 247
LayerCount: 2
Fore
SplineSet
104 0 m 1
 9 0 l 1
 161 716 l 1
 256 716 l 1
 104 0 l 1
EndSplineSet
Validated: 1
EndChar

StartChar: J
Encoding: 74 74 43
Width: 424
VWidth: 1504
Flags: W
HStem: -14 82<-38.8194 149.94> 696 20G<335.739 435>
LayerCount: 2
Fore
SplineSet
334 241 m 2
 298 71 203 -14 50 -14 c 0
 11 -14 -29 -4 -71 15 c 1
 -29 93 l 1
 -4 76 27 68 66 68 c 0
 172 68 216 134 242 256 c 2
 340 716 l 1
 435 716 l 1
 334 241 l 2
EndSplineSet
Validated: 1
EndChar

StartChar: K
Encoding: 75 75 44
Width: 618
VWidth: 1504
Flags: W
HStem: 0 10G<9 108.181 455.817 526.647> 696 20G<156.754 256 573.939 671.5>
LayerCount: 2
Fore
SplineSet
567 23 m 1
 469 -11 l 1
 235 344 l 1
 164 287 l 1
 104 0 l 1
 9 0 l 1
 161 716 l 1
 256 716 l 1
 188 400 l 1
 599 728 l 1
 686 704 l 1
 313 408 l 1
 567 23 l 1
EndSplineSet
Validated: 1
EndChar

StartChar: L
Encoding: 76 76 45
Width: 540
VWidth: 1504
Flags: W
HStem: 0 81<120 454> 696 20G<156.754 256>
LayerCount: 2
Fore
SplineSet
454 0 m 1
 9 0 l 1
 161 716 l 1
 256 716 l 1
 120 81 l 1
 471 81 l 1
 454 0 l 1
EndSplineSet
Validated: 1
EndChar

StartChar: M
Encoding: 77 77 46
Width: 863
VWidth: 1504
Flags: W
HStem: 0 21G<-23 74.6577 330.108 409.36 662 756.793> 696 20G<175.302 283.725 742.785 854>
LayerCount: 2
Fore
SplineSet
754 0 m 1
 662 0 l 1
 740 555 l 1
 397 0 l 1
 334 0 l 1
 226 555 l 1
 69 0 l 1
 -23 0 l 1
 181 716 l 1
 280 716 l 1
 391 120 l 1
 755 716 l 1
 854 716 l 1
 754 0 l 1
EndSplineSet
Validated: 1
EndChar

StartChar: N
Encoding: 78 78 47
Width: 709
VWidth: 1504
Flags: W
HStem: 0 21G<9 108.234 469.36 573.246> 696 20G<156.754 264.799 621.724 721>
LayerCount: 2
Fore
SplineSet
569 0 m 1
 478 0 l 1
 227 581 l 1
 104 0 l 1
 9 0 l 1
 161 716 l 1
 256 716 l 1
 505 150 l 1
 626 716 l 1
 721 716 l 1
 569 0 l 1
EndSplineSet
Validated: 1
EndChar

StartChar: O
Encoding: 79 79 48
Width: 779
VWidth: 1504
Flags: W
HStem: -15 83<235.924 444.65> 648 82<352.281 557.946>
VStem: 38 95<178.086 400.086> 665 94<316.225 538.589>
LayerCount: 2
Fore
SplineSet
337 68 m 256
 547 68 665 278 665 436 c 0
 665 519 624 648 460 648 c 256
 257 648 133 446 133 283 c 0
 133 196 174 68 337 68 c 256
759 448 m 0
 759 220 575 -15 319 -15 c 256
 124 -15 38 120 38 266 c 0
 38 482 214 730 478 730 c 256
 703 730 759 556 759 448 c 0
EndSplineSet
Validated: 1
EndChar

StartChar: P
Encoding: 80 80 49
Width: 586
VWidth: 1504
Flags: W
HStem: 0 21G<9 108.099> 278 82<182.764 380.653> 642 82<239.259 449.487>
VStem: 499 97<458.671 598.839>
LayerCount: 2
Fore
SplineSet
596 554 m 0
 596 415 464 278 238 278 c 0
 215 278 189 280 162 283 c 1
 104 0 l 1
 9 0 l 1
 158 705 l 1
 233 718 298 724 353 724 c 0
 552 724 596 622 596 554 c 0
265 360 m 0
 466 360 499 478 499 538 c 0
 499 607 444 642 334 642 c 0
 300 642 268 641 239 638 c 1
 182 369 l 1
 214 363 242 360 265 360 c 0
EndSplineSet
Validated: 1
EndChar

StartChar: Q
Encoding: 81 81 50
Width: 779
VWidth: 1504
Flags: W
HStem: -107 81<561.629 630.148> -15 83<236.359 402.127> 648 82<352.281 557.946>
VStem: 38 95<178.086 400.086> 665 94<314.692 538.589>
LayerCount: 2
Fore
SplineSet
337 68 m 256
 547 68 665 278 665 436 c 0
 665 519 624 648 460 648 c 256
 257 648 133 446 133 283 c 0
 133 196 174 68 337 68 c 256
478 730 m 256
 703 730 759 556 759 448 c 0
 759 257 638 81 466 26 c 1
 465 20 l 1
 541 -1 611 -16 674 -26 c 1
 626 -107 l 1
 555 -87 465 -58 358 -21 c 0
 353 -19 340 -17 319 -15 c 0
 124 -15 38 120 38 266 c 0
 38 482 214 730 478 730 c 256
EndSplineSet
Validated: 1
EndChar

StartChar: R
Encoding: 82 82 51
Width: 594
VWidth: 1504
Flags: W
HStem: 0 21G<9 108.116 411 506> 311 79<187 351.306> 641 83<237.321 453.03>
VStem: 414 94<0 230.412> 501 95<469.493 602.198>
LayerCount: 2
Fore
SplineSet
436 344 m 1xe8
 500 295 508 213 508 109 c 0
 508 77 507 40 505 0 c 1
 411 0 l 1
 413 29 414 56 414 82 c 0xf0
 414 235 373 311 289 311 c 2
 168 311 l 1
 104 0 l 1
 9 0 l 1
 158 704 l 1
 233 717 299 724 356 724 c 0
 552 724 596 628 596 564 c 0
 596 501 565 398 436 344 c 1xe8
302 390 m 2
 466 390 501 484 501 546 c 0xe8
 501 609 447 641 338 641 c 0
 298 641 265 639 238 636 c 1
 187 390 l 1
 302 390 l 2
EndSplineSet
Validated: 1
EndChar

StartChar: S
Encoding: 83 83 52
Width: 549
VWidth: 1504
Flags: W
HStem: -14 86<98.8585 305.524> 606 21G<481.5 519.2> 644 86<270.311 469.99>
VStem: 100 98<472.073 584.265> 389 101<148.984 268.946>
LayerCount: 2
Fore
SplineSet
366 644 m 0
 268 644 198 589 198 526 c 0
 198 479 238 441 317 414 c 0
 426 376 490 332 490 245 c 0
 490 99 356 -14 181 -14 c 0
 102 -14 33 8 -26 51 c 1
 32 137 l 1
 80 94 138 72 205 72 c 0
 341 72 389 156 389 213 c 0
 389 262 350 301 272 328 c 0
 157 367 100 425 100 500 c 0
 100 604 202 730 387 730 c 256
 458 730 516 714 561 681 c 1
 504 606 l 1
 459 631 413 644 366 644 c 0
EndSplineSet
Validated: 1
EndChar

StartChar: T
Encoding: 84 84 53
Width: 633
VWidth: 1504
Flags: W
HStem: 0 21G<205 303.22> 635 81<92 338 433 695>
LayerCount: 2
Fore
SplineSet
299 0 m 1
 205 0 l 1
 338 635 l 1
 74 635 l 1
 92 716 l 1
 713 716 l 1
 695 635 l 1
 433 635 l 1
 299 0 l 1
EndSplineSet
Validated: 1
EndChar

StartChar: U
Encoding: 85 85 54
Width: 725
VWidth: 1504
Flags: W
HStem: -14 82<218.912 409.654> 696 20G<156.766 257 634.766 736>
VStem: 61 98<127.557 343.531>
LayerCount: 2
Fore
SplineSet
648 305 m 2
 603 92 485 -14 293 -14 c 256
 138 -14 61 56 61 195 c 0
 61 228 65 264 74 305 c 2
 161 716 l 1
 257 716 l 1
 170 305 l 2
 163 272 159 242 159 216 c 0
 159 117 209 68 310 68 c 256
 437 68 518 147 552 305 c 2
 639 716 l 1
 736 716 l 1
 648 305 l 2
EndSplineSet
Validated: 1
EndChar

StartChar: V
Encoding: 86 86 55
Width: 634
VWidth: 1504
Flags: W
HStem: 0 21G<204.536 306.927> 696 20G<84 190.101 608.348 722>
LayerCount: 2
Fore
SplineSet
295 0 m 1
 208 0 l 1
 84 716 l 1
 187 716 l 1
 278 129 l 1
 620 716 l 1
 722 716 l 1
 295 0 l 1
EndSplineSet
Validated: 1
EndChar

StartChar: W
Encoding: 87 87 56
Width: 920
VWidth: 1504
Flags: W
HStem: 0 21G<124.715 224.359 573.017 671.777> 696 20G<80 184.629 490.545 592.958 899.839 1012>
VStem: 80 104<607.043 716>
LayerCount: 2
Fore
SplineSet
662 0 m 1
 575 0 l 1
 517 585 l 1
 214 0 l 1
 126 0 l 1
 80 716 l 1
 184 716 l 1
 202 144 l 1
 501 716 l 1
 591 716 l 1
 647 144 l 1
 909 716 l 1
 1012 716 l 1
 662 0 l 1
EndSplineSet
Validated: 1
EndChar

StartChar: X
Encoding: 88 88 57
Width: 640
VWidth: 1504
Flags: W
HStem: 0 21G<-68 65.7586 454.931 578> 696 20G<95 220.857 584.857 721>
LayerCount: 2
Fore
SplineSet
578 0 m 1
 465 0 l 1
 319 290 l 1
 47 0 l 1
 -68 0 l 1
 275 367 l 1
 95 716 l 1
 211 716 l 1
 349 436 l 1
 603 716 l 1
 721 716 l 1
 390 367 l 1
 578 0 l 1
EndSplineSet
Validated: 1
EndChar

StartChar: Y
Encoding: 89 89 58
Width: 595
VWidth: 1504
Flags: W
HStem: 0 21G<187 284.204> 696 20G<77 195.012 565.478 690>
LayerCount: 2
Fore
SplineSet
280 0 m 1
 187 0 l 1
 253 313 l 1
 77 716 l 1
 187 716 l 1
 316 394 l 1
 582 716 l 1
 690 716 l 1
 346 314 l 1
 280 0 l 1
EndSplineSet
Validated: 1
EndChar

StartChar: Z
Encoding: 90 90 59
Width: 678
VWidth: 1504
Flags: W
HStem: 0 81<122 575> 635 81<167 573>
LayerCount: 2
Fore
SplineSet
575 0 m 1
 -26 0 l 1
 -12 60 l 1
 573 635 l 1
 132 635 l 1
 167 716 l 1
 722 716 l 1
 708 654 l 1
 122 81 l 1
 609 81 l 1
 575 0 l 1
EndSplineSet
Validated: 1
EndChar

StartChar: bracketleft
Encoding: 91 91 60
Width: 351
VWidth: 1504
Flags: W
HStem: -116 77<83 215> 716 78<244 393>
LayerCount: 2
Fore
SplineSet
215 -116 m 1
 -21 -116 l 1
 171 794 l 1
 409 794 l 1
 393 716 l 1
 244 716 l 1
 83 -39 l 1
 232 -39 l 1
 215 -116 l 1
EndSplineSet
Validated: 1
EndChar

StartChar: backslash
Encoding: 92 92 61
Width: 403
VWidth: 1504
Flags: W
HStem: 707 20G<54 157.911>
VStem: 54 325
LayerCount: 2
Fore
SplineSet
379 -41 m 1
 283 -41 l 1
 54 727 l 1
 152 727 l 1
 379 -41 l 1
EndSplineSet
Validated: 1
EndChar

StartChar: bracketright
Encoding: 93 93 62
Width: 351
VWidth: 1504
Flags: W
HStem: -116 77<-29 119> 716 78<147 280>
LayerCount: 2
Fore
SplineSet
191 -116 m 1
 -45 -116 l 1
 -29 -39 l 1
 119 -39 l 1
 280 716 l 1
 131 716 l 1
 147 794 l 1
 385 794 l 1
 191 -116 l 1
EndSplineSet
Validated: 1
EndChar

StartChar: asciicircum
Encoding: 94 94 63
Width: 628
VWidth: 1504
Flags: W
HStem: 702 20G<356.207 452.193>
LayerCount: 2
Fore
SplineSet
575 229 m 1
 477 229 l 1
 384 609 l 1
 128 229 l 1
 30 229 l 1
 370 722 l 1
 447 722 l 1
 575 229 l 1
EndSplineSet
Validated: 1
EndChar

StartChar: underscore
Encoding: 95 95 64
Width: 565
VWidth: 1504
Flags: W
HStem: -263 79<-104 442>
LayerCount: 2
Fore
SplineSet
442 -263 m 1
 -122 -263 l 1
 -104 -184 l 1
 460 -184 l 1
 442 -263 l 1
EndSplineSet
Validated: 1
EndChar

StartChar: grave
Encoding: 96 96 65
Width: 315
VWidth: 1504
Flags: W
HStem: 564 173<230 230.035>
VStem: 135 167
LayerCount: 2
Fore
SplineSet
302 564 m 1
 230 564 l 1
 135 710 l 1
 227 737 l 1
 302 564 l 1
EndSplineSet
Validated: 1
EndChar

StartChar: a
Encoding: 97 97 66
Width: 648
VWidth: 1504
Flags: W
HStem: -14 83<168.458 344.559> 453 78<243.749 438.679>
VStem: 21 92<122.757 309.488>
LayerCount: 2
Fore
SplineSet
238 -14 m 0
 110 -14 21 69 21 196 c 0
 21 372 154 531 341 531 c 0
 452 531 538 499 597 436 c 1
 534 137 l 2
 532 123 531 110 531 96 c 0
 531 64 537 34 551 6 c 1
 456 -12 l 1
 444 4 436 33 433 75 c 1
 384 16 319 -14 238 -14 c 0
332 453 m 0
 208 453 113 336 113 209 c 0
 113 116 161 69 257 69 c 0
 357 69 442 138 457 214 c 2
 495 394 l 1
 456 433 401 453 332 453 c 0
EndSplineSet
Validated: 1
Substitution2: "Single Substitution lookup 42 subtable" uni0E38
Substitution2: "Single Substitution lookup 42 subtable" uni0E38
EndChar

StartChar: b
Encoding: 98 98 67
Width: 654
VWidth: 1504
Flags: W
HStem: -12 78<193.39 386.211> 450 82<280.6 463.728> 714 20G<166.771 266>
VStem: 54 90<108.889 221.433> 519 92<209.494 395.996>
LayerCount: 2
Fore
SplineSet
394 532 m 0
 523 532 611 449 611 323 c 0
 611 148 473 -12 290 -12 c 0
 133 -12 54 44 54 156 c 0
 54 173 56 190 60 209 c 2
 171 734 l 1
 266 734 l 1
 211 471 l 1
 264 512 325 532 394 532 c 0
299 66 m 0
 421 66 519 182 519 310 c 0
 519 403 471 450 375 450 c 0
 290 450 188 397 174 305 c 2
 149 196 l 2
 146 183 144 170 144 158 c 0
 144 121 179 66 299 66 c 0
EndSplineSet
Validated: 1
Substitution2: "Single Substitution lookup 42 subtable" uni0E39
Substitution2: "Single Substitution lookup 42 subtable" uni0E39
EndChar

StartChar: c
Encoding: 99 99 68
Width: 521
VWidth: 1504
Flags: W
HStem: -14 80<172.903 360.508> 451 80<245.778 433.655>
VStem: 19 98<121.477 305.629>
LayerCount: 2
Fore
SplineSet
117 204 m 0
 117 145 144 66 253 66 c 0
 303 66 355 81 408 110 c 1
 424 32 l 1
 370 1 308 -14 239 -14 c 0
 64 -14 19 105 19 190 c 0
 19 350 139 531 355 531 c 0
 423 531 478 516 520 486 c 1
 471 408 l 1
 430 437 384 451 334 451 c 0
 198 451 117 321 117 204 c 0
EndSplineSet
Validated: 1
Substitution2: "Single Substitution lookup 42 subtable" uni0E3A
Substitution2: "Single Substitution lookup 42 subtable" uni0E3A
EndChar

StartChar: d
Encoding: 100 100 69
Width: 654
VWidth: 1504
Flags: W
HStem: -14 83<171.941 335.466> 453 78<245.758 414.608> 738 20G<568.772 668>
VStem: 21 94<124.462 308.582>
LayerCount: 2
Fore
SplineSet
21 196 m 0
 21 371 164 531 341 531 c 0
 416 531 473 507 510 460 c 1
 573 758 l 1
 668 758 l 1
 535 137 l 2
 534 127 533 116 533 106 c 0
 533 71 540 38 552 6 c 1
 457 -12 l 1
 445 4 438 33 435 75 c 1
 374 16 307 -14 233 -14 c 256
 96 -14 21 83 21 196 c 0
115 205 m 0
 115 143 143 69 257 69 c 0
 356 69 437 117 453 194 c 2
 477 311 l 2
 479 319 480 328 480 335 c 0
 480 397 413 453 332 453 c 0
 196 453 115 324 115 205 c 0
EndSplineSet
Validated: 1
EndChar

StartChar: e
Encoding: 101 101 70
Width: 588
VWidth: 1504
Flags: W
HStem: -14 85<182.015 401.872> 218 69<132.974 415.661> 453 78<261.155 433.75>
VStem: 18 96<133.537 226.029> 463 82<323.889 425.259>
LayerCount: 2
Fore
SplineSet
250 -14 m 0
 114 -14 18 58 18 185 c 0
 18 388 184 531 360 531 c 0
 483 531 545 477 545 370 c 0
 545 263 422 218 296 218 c 0
 235 218 175 222 116 230 c 1
 115 224 114 218 114 212 c 0
 114 99 206 71 272 71 c 0
 326 71 393 84 474 110 c 1
 466 27 l 1
 388 -0 316 -14 250 -14 c 0
463 372 m 0
 463 426 424 453 346 453 c 0
 265 453 165 388 132 298 c 1
 160 291 208 287 277 287 c 0
 401 287 463 315 463 372 c 0
EndSplineSet
Validated: 1
EndChar

StartChar: f
Encoding: 102 102 71
Width: 382
VWidth: 1504
Flags: W
HStem: -226 82<-178.754 -28.0647> 433 78<68 137 248 378> 687 82<327.495 477.755>
LayerCount: 2
Fore
SplineSet
146 32 m 2
 109 -140 23 -226 -110 -226 c 0
 -152 -226 -185 -215 -209 -193 c 1
 -167 -122 l 1
 -136 -137 -110 -144 -90 -144 c 0
 -21 -144 26 -85 51 32 c 2
 137 433 l 1
 51 433 l 1
 68 511 l 1
 155 511 l 1
 191 683 276 769 409 769 c 0
 451 769 484 758 508 736 c 1
 466 665 l 1
 435 680 410 687 390 687 c 0
 321 687 273 628 248 511 c 1
 394 511 l 1
 378 433 l 1
 232 433 l 1
 146 32 l 2
EndSplineSet
Validated: 1
EndChar

StartChar: g
Encoding: 103 103 72
Width: 499
VWidth: 1504
Flags: W
HStem: -226 80<62.3514 226.296> 152 78<167.513 303.224> 445 77<205.093 334.621> 457 65<409 484>
VStem: 51 87<119.825 161.504 259.208 379.591> 272 89<-107.529 -20.9603> 363 82<291.391 416.669>
LayerCount: 2
Fore
SplineSet
272 -61 m 0xde
 272 21 51 32 51 130 c 0
 51 146 56 165 80 209 c 1
 59 238 49 268 49 300 c 0
 49 407 149 522 281 522 c 2xee
 498 522 l 1
 484 457 l 1
 409 457 l 1
 433 440 445 413 445 378 c 0
 445 315 399 152 212 152 c 0
 190 152 169 155 149 162 c 1
 141 155 138 145 138 141 c 0
 138 126 170 109 235 90 c 0
 319 65 361 23 361 -37 c 0
 361 -113 301 -226 125 -226 c 0
 71 -226 19 -209 -30 -174 c 1
 17 -99 l 1
 64 -130 107 -146 147 -146 c 0
 220 -146 272 -104 272 -61 c 0xde
229 230 m 0
 327 230 363 312 363 360 c 0
 363 406 329 445 274 445 c 256
 207 445 139 386 139 315 c 0
 139 268 174 230 229 230 c 0
EndSplineSet
Validated: 1
EndChar

StartChar: h
Encoding: 104 104 73
Width: 636
VWidth: 1504
Flags: W
HStem: 0 21G<9 108.214 433 493.941> 444 81<277.653 425.435> 738 20G<165.752 265>
VStem: 417 97<4.75108 187.883> 465 98<222.102 402.769>
LayerCount: 2
Fore
SplineSet
465 331 m 0xe8
 465 401 424 444 356 444 c 0
 273 444 183 373 167 299 c 2
 104 0 l 1
 9 0 l 1
 170 758 l 1
 265 758 l 1
 200 456 l 1
 255 502 318 525 388 525 c 0
 505 525 563 469 563 358 c 0xe8
 563 337 560 314 555 289 c 2
 520 119 l 2
 516 99 514 84 514 74 c 0
 514 57 520 36 531 11 c 1
 441 -23 l 1
 425 0 417 27 417 57 c 0xf0
 417 74 420 99 427 132 c 2
 460 287 l 2
 463 301 465 316 465 331 c 0xe8
EndSplineSet
Validated: 1
EndChar

StartChar: i
Encoding: 105 105 74
Width: 245
VWidth: 1504
Flags: W
HStem: 0 21G<9 108.227> 491 20G<112.773 212> 590 144<152.822 235.178>
VStem: 120 148<622.511 701.489>
LayerCount: 2
Fore
SplineSet
104 0 m 1
 9 0 l 1
 117 511 l 1
 212 511 l 1
 104 0 l 1
268 677 m 0
 268 631 225 590 179 590 c 256
 142 590 120 616 120 647 c 0
 120 693 163 734 209 734 c 256
 246 734 268 708 268 677 c 0
EndSplineSet
Validated: 1
EndChar

StartChar: j
Encoding: 106 106 75
Width: 257
VWidth: 1504
Flags: W
HStem: -212 77<-167 -62.25> 491 20G<124.775 224> 590 144<166.828 249.178>
VStem: 133 149<622.542 701.115>
LayerCount: 2
Fore
SplineSet
120 27 m 2
 87 -128 -10 -208 -171 -212 c 1
 -167 -135 l 1
 -98 -130 -51 -116 -27 -90 c 0
 -3 -66 18 -13 35 66 c 2
 129 511 l 1
 224 511 l 1
 120 27 l 2
282 677 m 0
 282 631 239 590 193 590 c 256
 145 590 133 627 133 647 c 0
 133 696 180 734 223 734 c 256
 260 734 282 708 282 677 c 0
EndSplineSet
Validated: 1
EndChar

StartChar: k
Encoding: 107 107 76
Width: 511
VWidth: 1504
Flags: W
HStem: 0 6G<9 108.147 356.336 456.667> 502 20G<414.551 543> 738 20G<165.752 265>
LayerCount: 2
Fore
SplineSet
474 9 m 1
 370 -15 l 1
 191 247 l 1
 149 217 l 1
 104 0 l 1
 9 0 l 1
 170 758 l 1
 265 758 l 1
 173 326 l 1
 442 522 l 1
 543 504 l 1
 269 301 l 1
 474 9 l 1
EndSplineSet
Validated: 1
EndChar

StartChar: l
Encoding: 108 108 77
Width: 320
VWidth: 1504
Flags: W
HStem: -12 86<188.559 232.36> 738 20G<165.758 265>
VStem: 54 97<109.827 311.516>
LayerCount: 2
Fore
SplineSet
151 187 m 0
 151 131 166 82 259 74 c 1
 230 -12 l 1
 112 -6 54 54 54 167 c 0
 54 196 57 228 65 263 c 2
 170 758 l 1
 265 758 l 1
 164 284 l 2
 156 246 151 214 151 187 c 0
EndSplineSet
Validated: 1
EndChar

StartChar: m
Encoding: 109 109 78
Width: 956
VWidth: 1504
Flags: W
HStem: -2 2G<9 108.197 364 463.149 751.5 813.941> 447 79<271.591 410.871 614.114 751.653>
VStem: 102 87<439 507.203> 741 94<4.4523 197.203> 785 98<219.773 411.995>
LayerCount: 2
Fore
SplineSet
724 526 m 0xe8
 828 526 883 452 883 355 c 0xe8
 883 333 880 309 875 284 c 2
 839 114 l 2
 836 98 835 83 835 71 c 0
 835 53 838 31 851 11 c 1
 761 -23 l 1
 742 6 741 58 741 67 c 0xf0
 741 87 743 109 748 132 c 2
 779 283 l 2
 783 302 785 320 785 336 c 0
 785 383 766 447 689 447 c 0
 619 447 540 383 526 323 c 2
 459 0 l 1
 364 0 l 1
 429 308 l 2
 433 327 435 344 435 359 c 0
 435 418 404 447 343 447 c 0
 272 447 183 371 168 305 c 2
 104 0 l 1
 9 0 l 1
 89 376 l 1
 101 442 l 2
 102 447 102 452 102 457 c 0
 102 474 99 491 92 508 c 1
 174 525 l 1
 184 507 189 487 189 464 c 0
 189 456 188 448 187 439 c 1
 234 503 315 526 372 526 c 0
 438 526 485 498 513 442 c 1
 578 498 649 526 724 526 c 0xe8
EndSplineSet
Validated: 1
EndChar

StartChar: n
Encoding: 110 110 79
Width: 636
VWidth: 1504
Flags: W
HStem: -2 2G<9 108.197 432.5 494.941> 447 79<282.438 432.745>
VStem: 102 87<439 507.203> 422 94<4.47538 200.188> 468 96<221.062 411.307>
LayerCount: 2
Fore
SplineSet
382 526 m 256xe8
 497 526 564 462 564 355 c 0xe8
 564 335 562 313 557 290 c 2
 519 114 l 2
 517 99 516 85 516 73 c 0
 516 54 519 32 532 11 c 1
 442 -23 l 1
 423 6 422 58 422 67 c 0xf0
 422 87 424 109 429 132 c 2
 462 290 l 2
 466 310 468 327 468 343 c 0
 468 412 429 447 352 447 c 0
 278 447 180 366 168 305 c 2
 104 0 l 1
 9 0 l 1
 89 376 l 1
 101 442 l 2
 102 447 102 452 102 457 c 0
 102 474 99 491 92 508 c 1
 174 525 l 1
 184 507 189 487 189 464 c 0
 189 456 188 448 187 439 c 1
 249 497 314 526 382 526 c 256xe8
EndSplineSet
Validated: 1
EndChar

StartChar: o
Encoding: 111 111 80
Width: 619
VWidth: 1504
Flags: W
HStem: -12 80<175.975 345.264> 450 81<246.994 420.922>
VStem: 20 95<130.343 305.756> 481 95<212.023 388.168>
LayerCount: 2
Fore
SplineSet
576 322 m 0
 576 154 432 -12 241 -12 c 256
 86 -12 20 94 20 196 c 0
 20 364 166 531 356 531 c 256
 509 531 576 425 576 322 c 0
257 68 m 256
 389 68 481 190 481 308 c 0
 481 367 449 450 338 450 c 256
 206 450 115 325 115 212 c 0
 115 138 158 68 257 68 c 256
EndSplineSet
Validated: 1
EndChar

StartChar: p
Encoding: 112 112 81
Width: 648
VWidth: 1504
Flags: W
HStem: -215 21G<-36 61.2586> -14 83<200.689 378.678> 453 78<290.944 450.565>
VStem: 102 87<439 507.202> 512 95<218.179 392.233>
LayerCount: 2
Fore
SplineSet
286 69 m 0
 451 69 512 229 512 312 c 0
 512 382 470 453 373 453 c 0
 292 453 183 376 167 298 c 2
 149 214 l 2
 147 204 145 194 145 185 c 0
 145 127 194 69 286 69 c 0
607 331 m 0
 607 172 473 -14 272 -14 c 0
 202 -14 149 7 113 48 c 1
 57 -215 l 1
 -36 -215 l 1
 101 438 l 2
 102 444 102 449 102 455 c 0
 102 473 99 491 92 508 c 1
 174 525 l 1
 184 507 189 487 189 464 c 0
 189 456 188 448 187 439 c 1
 248 500 319 531 400 531 c 0
 543 531 607 432 607 331 c 0
EndSplineSet
Validated: 1
EndChar

StartChar: q
Encoding: 113 113 82
Width: 648
VWidth: 1504
Flags: W
HStem: -215 21G<366 464.209> -14 83<168.458 349.15> 453 78<243.749 438.679>
VStem: 21 92<122.757 309.488>
LayerCount: 2
Fore
SplineSet
238 -14 m 0
 110 -14 21 69 21 196 c 0
 21 372 154 531 341 531 c 0
 452 531 538 499 597 436 c 1
 460 -215 l 1
 366 -215 l 1
 421 48 l 1
 368 7 307 -14 238 -14 c 0
332 453 m 0
 208 453 113 336 113 209 c 0
 113 116 161 69 257 69 c 0
 357 69 442 138 457 214 c 2
 495 394 l 1
 456 433 401 453 332 453 c 0
EndSplineSet
Validated: 1
EndChar

StartChar: r
Encoding: 114 114 83
Width: 370
VWidth: 1504
Flags: W
HStem: 0 21G<9 108.191> 444 82<261.279 375.821>
VStem: 98 84<376.476 510.727>
LayerCount: 2
Fore
SplineSet
176 430 m 1
 215 488 286 526 344 526 c 0
 365 526 380 525 391 522 c 1
 375 441 l 1
 367 443 355 444 340 444 c 0
 245 444 185 387 161 272 c 2
 104 0 l 1
 9 0 l 1
 80 338 l 2
 94 401 98 437 98 460 c 0
 98 482 94 494 89 508 c 1
 171 525 l 1
 178 511 182 495 182 476 c 0
 182 462 180 447 176 430 c 1
EndSplineSet
Validated: 1
EndChar

StartChar: s
Encoding: 115 115 84
Width: 445
VWidth: 1504
Flags: W
HStem: -14 83<64.8135 242.783> 451 74<200.115 357.218>
VStem: 71 92<339.996 416.589> 278 97<102.105 195.132>
LayerCount: 2
Fore
SplineSet
375 174 m 0
 375 93 298 -14 135 -14 c 0
 84 -14 33 3 -18 36 c 1
 33 111 l 1
 68 83 109 69 156 69 c 0
 259 69 278 124 278 153 c 0
 278 185 250 210 194 229 c 0
 112 256 71 295 71 348 c 0
 71 420 145 525 293 525 c 0
 352 525 398 510 432 481 c 1
 382 412 l 1
 352 438 315 451 271 451 c 0
 199 451 163 400 163 373 c 0
 163 349 195 325 257 302 c 0
 336 273 375 230 375 174 c 0
EndSplineSet
Validated: 1
EndChar

StartChar: t
Encoding: 116 116 85
Width: 388
VWidth: 1504
Flags: W
HStem: -14 85<178.41 297.999> 433 78<56 141 253 400>
VStem: 77 95<76.011 190.75>
LayerCount: 2
Fore
SplineSet
196 -14 m 0
 101 -14 77 53 77 107 c 0
 77 124 79 142 83 161 c 2
 141 433 l 1
 39 433 l 1
 56 511 l 1
 158 511 l 1
 188 651 l 1
 290 692 l 1
 253 511 l 1
 417 511 l 1
 400 433 l 1
 236 433 l 1
 177 162 l 2
 174 147 172 134 172 123 c 0
 172 88 187 71 217 71 c 0
 242 71 271 76 305 87 c 1
 299 8 l 1
 263 -7 229 -14 196 -14 c 0
EndSplineSet
Validated: 1
EndChar

StartChar: u
Encoding: 117 117 86
Width: 628
VWidth: 1504
Flags: W
HStem: -14 85<177.132 308.517> 506 5G<89 183.5 496.695 596>
VStem: 47 99<102.148 286.867> 98 95<321.055 510.156>
LayerCount: 2
Fore
SplineSet
532 6 m 1xe0
 438 -12 l 1
 426 4 418 33 415 75 c 1
 342 16 276 -14 218 -14 c 0
 104 -14 47 39 47 144 c 0xe0
 47 171 50 200 57 232 c 2
 93 399 l 2
 96 413 98 427 98 442 c 0
 98 464 95 486 89 508 c 1
 179 526 l 1
 188 499 193 472 193 445 c 0xd0
 193 426 191 407 187 388 c 2
 155 241 l 2
 149 213 146 190 146 173 c 0
 146 105 180 71 247 71 c 0
 321 71 420 137 436 209 c 2
 501 511 l 1
 596 511 l 1
 516 137 l 2
 514 128 513 117 513 105 c 0
 513 75 519 42 532 6 c 1xe0
EndSplineSet
Validated: 1
EndChar

StartChar: v
Encoding: 118 118 87
Width: 538
VWidth: 1504
Flags: W
HStem: 0 21G<159.951 254.542> 491 20G<36 139.67 473.802 587>
LayerCount: 2
Fore
SplineSet
241 0 m 1
 165 0 l 1
 36 511 l 1
 135 511 l 1
 227 117 l 1
 487 511 l 1
 587 511 l 1
 241 0 l 1
EndSplineSet
Validated: 1
EndChar

StartChar: w
Encoding: 119 119 88
Width: 722
VWidth: 1504
Flags: W
HStem: 0 21G<55.2172 147.019 450.496 543.237> 491 20G<36 134 351.772 445.679 663.762 770>
VStem: 36 98<332.15 511> 56 72<125 178.85>
LayerCount: 2
Fore
SplineSet
534 0 m 1xd0
 454 0 l 1
 382 411 l 1
 135 0 l 1
 56 0 l 1xd0
 36 511 l 1
 134 511 l 1xe0
 128 125 l 1
 364 511 l 1
 442 511 l 1
 513 125 l 1
 672 511 l 1
 770 511 l 1
 534 0 l 1xd0
EndSplineSet
Validated: 1
EndChar

StartChar: x
Encoding: 120 120 89
Width: 524
VWidth: 1504
Flags: W
HStem: 0 21G<-83 53.6091 347.411 475> 491 20G<39 165.556 434.889 570>
LayerCount: 2
Fore
SplineSet
475 0 m 1
 360 0 l 1
 236 197 l 1
 33 0 l 1
 -83 0 l 1
 194 262 l 1
 39 511 l 1
 153 511 l 1
 266 331 l 1
 456 511 l 1
 570 511 l 1
 307 262 l 1
 475 0 l 1
EndSplineSet
Validated: 1
EndChar

StartChar: y
Encoding: 121 121 90
Width: 543
VWidth: 1504
Flags: W
HStem: -227 78<-66.7179 -11.6435> 491 20G<36 145.066 472.807 590>
LayerCount: 2
Fore
SplineSet
248 11 m 2
 157 -123 52 -202 -66 -227 c 1
 -74 -149 l 1
 19 -129 98 -67 162 38 c 1
 36 511 l 1
 140 511 l 1
 236 132 l 1
 486 511 l 1
 590 511 l 1
 248 11 l 2
EndSplineSet
Validated: 1
EndChar

StartChar: z
Encoding: 122 122 91
Width: 538
VWidth: 1504
Flags: W
HStem: 0 80<111 430> 432 79<105 396>
LayerCount: 2
Fore
SplineSet
430 0 m 1
 -36 0 l 1
 -23 57 l 1
 396 432 l 1
 71 432 l 1
 105 511 l 1
 542 511 l 1
 528 450 l 1
 111 80 l 1
 460 80 l 1
 430 0 l 1
EndSplineSet
Validated: 1
EndChar

StartChar: braceleft
Encoding: 123 123 92
Width: 383
VWidth: 1504
Flags: W
HStem: -132 76<155.201 238> 269 78<53 107.052> 671 78<300.011 408>
VStem: 49 93<-43.0586 75.4561> 117 91<143.989 256.708>
LayerCount: 2
Fore
SplineSet
238 -132 m 1xf0
 203 -132 l 2
 102 -132 49 -96 49 -24 c 0xf0
 49 54 117 174 117 224 c 0
 117 252 90 267 36 269 c 1
 53 347 l 1
 115 349 149 368 156 403 c 0
 170 459 167 549 177 596 c 0
 198 698 269 749 390 749 c 2
 424 749 l 1
 408 671 l 1
 369 671 l 2
 314 671 279 645 265 593 c 1
 256 402 243 380 214 346 c 0
 198 326 181 313 162 308 c 1
 193 295 208 271 208 237 c 0xe8
 208 173 142 37 142 4 c 0
 142 -36 167 -56 215 -56 c 2
 254 -56 l 1
 238 -132 l 1xf0
EndSplineSet
Validated: 1
EndChar

StartChar: bar
Encoding: 124 124 93
Width: 266
VWidth: 1504
Flags: W
VStem: -29 306
LayerCount: 2
Fore
SplineSet
56 -250 m 1
 -29 -250 l 1
 191 791 l 1
 277 791 l 1
 56 -250 l 1
EndSplineSet
Validated: 1
EndChar

StartChar: braceright
Encoding: 125 125 94
Width: 383
VWidth: 1504
Flags: W
HStem: -132 76<-21 88.7847> 269 78<276.586 334> 671 78<147 234.088>
VStem: 178 89<360.016 468.878> 244 92<541.521 659.136>
LayerCount: 2
Fore
SplineSet
336 639 m 0xe8
 336 565 267 436 267 392 c 0
 267 364 295 349 350 347 c 1
 334 269 l 1
 271 267 235 248 227 212 c 0
 219 161 219 70 208 21 c 0
 187 -81 116 -132 -3 -132 c 2
 -38 -132 l 1
 -21 -56 l 1
 17 -56 l 2
 158 -56 113 77 138 208 c 0
 148 258 176 291 223 308 c 1
 198 316 178 347 178 383 c 0xf0
 178 439 244 564 244 619 c 0
 244 654 219 671 170 671 c 2
 131 671 l 1
 147 749 l 1
 182 749 l 2
 284 749 336 712 336 639 c 0xe8
EndSplineSet
Validated: 1
EndChar

StartChar: asciitilde
Encoding: 126 126 95
Width: 634
VWidth: 1504
Flags: W
HStem: 217 84<402.086 518.264> 310 80<126.715 244.969>
VStem: 12 83<217 273.672> 549 75<337.832 390>
LayerCount: 2
Fore
SplineSet
188 390 m 0
 257 390 427 301 478 301 c 0
 509 301 533 331 549 390 c 1
 630 390 l 1
 624 366 l 2
 601 260 526 217 457 217 c 0
 395 217 216 310 170 310 c 0
 135 310 110 279 95 217 c 1
 12 217 l 1
 18 245 l 2
 38 341 116 390 188 390 c 0
EndSplineSet
Validated: 1
EndChar

StartChar: exclamdown
Encoding: 161 161 100
Width: 252
VWidth: 1504
Flags: W
HStem: -212 21G<-38 72.6686> 373 144<113.927 194.125>
VStem: 79 149<406.749 481.998>
LayerCount: 2
Fore
SplineSet
69 -212 m 1
 -38 -212 l 1
 78 295 l 1
 162 295 l 1
 69 -212 l 1
228 462 m 0
 228 415 185 373 138 373 c 256
 101 373 79 399 79 430 c 0
 79 470 120 517 170 517 c 256
 206 517 228 492 228 462 c 0
EndSplineSet
Validated: 1
EndChar

StartChar: cent
Encoding: 162 162 101
Width: 722
VWidth: 1504
Flags: W
HStem: 32 84<369 513.924> 573 80<362.892 418 501 614.803>
VStem: 89 92<200.198 388.357>
LayerCount: 2
Fore
SplineSet
393 116 m 0
 427 116 483 120 563 150 c 1
 579 78 l 1
 519 49 449 34 369 32 c 1
 344 -84 l 1
 262 -84 l 1
 287 36 l 1
 101 71 89 220 89 265 c 0
 89 392 170 610 418 653 c 1
 444 773 l 1
 526 773 l 1
 501 657 l 1
 581 655 645 640 692 611 c 1
 645 539 l 1
 602 559 550 573 489 573 c 0
 243 573 181 383 181 284 c 0
 181 217 215 116 393 116 c 0
EndSplineSet
Validated: 1
EndChar

StartChar: sterling
Encoding: 163 163 102
Width: 722
VWidth: 1504
Flags: W
HStem: 0 71<218 522> 314 70<150 251 334 486> 606 21G<583 616.016> 633 71<420.992 602.126>
VStem: 251 80<215.756 314 384 492.71>
LayerCount: 2
Fore
SplineSet
522 0 m 1
 68 0 l 1
 78 56 l 1
 235 142 245 232 251 314 c 1
 135 314 l 1
 150 384 l 1
 257 384 l 1
 272 541 308 704 514 704 c 0
 555 704 598 692 644 669 c 1
 603 606 l 1
 563 624 527 633 496 633 c 0
 366 633 334 499 334 384 c 1
 501 384 l 1
 486 314 l 1
 331 314 l 1
 315 221 300 145 218 71 c 1
 535 71 l 1
 522 0 l 1
EndSplineSet
Validated: 1
EndChar

StartChar: currency
Encoding: 164 164 103
Width: 722
VWidth: 1504
Flags: W
HStem: 62 90<241.453 419.523> 528 90<311.709 488.826>
VStem: 79 95<217.352 387.961> 559 95<289.628 455.763>
LayerCount: 2
Fore
SplineSet
654 397 m 0
 654 376 653 277 563 181 c 1
 606 122 l 1
 526 53 l 1
 481 114 l 1
 429 79 370 62 305 62 c 0
 242 62 193 79 156 114 c 1
 84 53 l 1
 35 122 l 1
 102 181 l 1
 86 211 79 244 79 279 c 0
 79 329 94 418 170 499 c 1
 126 558 l 1
 206 627 l 1
 251 566 l 1
 303 601 361 618 424 618 c 0
 489 618 540 601 576 566 c 1
 648 627 l 1
 698 558 l 1
 630 499 l 1
 646 468 654 434 654 397 c 0
326 152 m 0
 449 152 559 263 559 378 c 0
 559 452 506 528 406 528 c 0
 280 528 174 416 174 295 c 0
 174 221 227 152 326 152 c 0
EndSplineSet
Validated: 1
EndChar

StartChar: yen
Encoding: 165 165 104
Width: 722
VWidth: 1504
Flags: W
HStem: 137 75<122 280 382 540> 260 75<149 305 423 566>
LayerCount: 2
Fore
SplineSet
540 137 m 1
 367 137 l 1
 343 27 l 1
 256 27 l 1
 280 137 l 1
 107 137 l 1
 122 212 l 1
 295 212 l 1
 305 260 l 1
 132 260 l 1
 149 335 l 1
 307 335 l 1
 164 693 l 1
 269 693 l 1
 379 408 l 1
 611 693 l 1
 718 693 l 1
 423 337 l 1
 582 337 l 1
 566 260 l 1
 393 260 l 1
 382 212 l 1
 555 212 l 1
 540 137 l 1
EndSplineSet
Validated: 1
EndChar

StartChar: brokenbar
Encoding: 166 166 105
Width: 242
VWidth: 1504
Flags: W
HStem: 696 20G<165.688 242>
VStem: -20 262
LayerCount: 2
Fore
SplineSet
159 331 m 1
 87 331 l 1
 170 716 l 1
 242 716 l 1
 159 331 l 1
51 -179 m 1
 -20 -179 l 1
 62 208 l 1
 134 208 l 1
 51 -179 l 1
EndSplineSet
Validated: 1
EndChar

StartChar: section
Encoding: 167 167 106
Width: 571
VWidth: 1504
Flags: W
HStem: -57 68<119.003 292.675> 612 21G<466 498.692> 656 66<288.186 450.471>
VStem: 90 75<327.062 418.736> 164 79<526.292 615.914> 346 76<60.4279 163.673> 412 81<269.924 366.938>
LayerCount: 2
Fore
SplineSet
422 141 m 0xe4
 422 45 338 -57 188 -57 c 0
 125 -57 74 -38 36 0 c 1
 83 63 l 1
 114 27 154 11 206 11 c 0
 295 11 346 65 346 114 c 0
 346 143 328 169 290 188 c 0
 187 240 90 247 90 345 c 0xf4
 90 382 104 436 177 492 c 1
 168 507 164 524 164 543 c 0
 164 612 226 722 389 722 c 0
 406 722 460 721 534 677 c 1
 483 612 l 1
 449 641 409 656 364 656 c 0
 289 656 243 607 243 569 c 0
 243 490 394 502 467 413 c 0
 484 392 493 369 493 344 c 0xea
 493 284 450 233 408 194 c 1
 417 179 422 161 422 141 c 0xe4
367 236 m 1
 408 275 412 310 412 322 c 0xf2
 412 387 308 409 220 453 c 1
 177 421 165 383 165 366 c 0
 165 302 315 275 367 236 c 1
EndSplineSet
Validated: 1
EndChar

StartChar: dieresis
Encoding: 168 168 107
Width: 512
VWidth: 1504
Flags: W
HStem: 573 132<176.674 253.167 399.607 474.79>
VStem: 147 135<601.736 675.897> 370 134<602.188 675.218>
LayerCount: 2
Fore
SplineSet
282 653 m 0
 282 611 241 573 200 573 c 0
 165 573 147 598 147 624 c 0
 147 666 187 705 229 705 c 0
 261 705 282 679 282 653 c 0
504 653 m 0
 504 609 461 573 423 573 c 256
 392 573 370 596 370 624 c 0
 370 668 414 705 451 705 c 256
 482 705 504 681 504 653 c 0
EndSplineSet
Validated: 1
EndChar

StartChar: copyright
Encoding: 169 169 108
Width: 812
VWidth: 1504
Flags: W
HStem: -5 64<316.87 538.255> 132 62<341.889 532.467> 520 58<339.51 531.618> 663 64<316.438 538.647>
VStem: 62 63<250.949 470.619> 206 69<260.737 454.374> 730 63<251.587 469.815>
LayerCount: 2
Fore
SplineSet
206 350 m 0
 206 495 297 578 432 578 c 0
 493 578 539 566 572 542 c 1
 554 487 l 1
 515 509 475 520 432 520 c 0
 327 520 275 466 275 358 c 0
 275 249 328 194 433 194 c 0
 482 194 525 207 560 232 c 1
 579 176 l 1
 541 147 489 132 424 132 c 0
 277 132 206 240 206 350 c 0
793 361 m 256
 793 160 632 -5 427 -5 c 256
 223 -5 62 161 62 361 c 256
 62 562 224 727 427 727 c 256
 633 727 793 561 793 361 c 256
730 361 m 256
 730 525 599 663 427 663 c 256
 257 663 125 528 125 361 c 256
 125 191 260 59 427 59 c 256
 598 59 730 195 730 361 c 256
EndSplineSet
Validated: 1
EndChar

StartChar: ordfeminine
Encoding: 170 170 109
Width: 434
VWidth: 1504
Flags: W
HStem: 363 55<165.289 285.964> 663 56<217.812 363.988>
VStem: 78 68<436.472 582.294> 340 50<371.827 423.812>
LayerCount: 2
Fore
SplineSet
78 487 m 0
 78 601 160 719 284 719 c 0
 347 719 399 701 442 666 c 1
 393 442 l 2
 391 433 390 423 390 412 c 0
 390 396 392 384 397 375 c 1
 346 363 l 1
 342 374 340 386 340 399 c 0
 340 409 340 417 341 424 c 1
 298 383 253 363 205 363 c 0
 124 363 78 415 78 487 c 0
286 663 m 0
 196 663 146 573 146 498 c 0
 146 445 172 418 223 418 c 0
 278 418 331 468 344 519 c 2
 370 638 l 1
 343 655 315 663 286 663 c 0
EndSplineSet
Validated: 1
EndChar

StartChar: guillemotleft
Encoding: 171 171 110
Width: 535
VWidth: 1504
Flags: W
LayerCount: 2
Fore
SplineSet
438 71 m 1
 347 71 l 1
 220 269 l 1
 433 472 l 1
 522 472 l 1
 310 271 l 1
 438 71 l 1
254 71 m 1
 162 71 l 1
 36 269 l 1
 245 474 l 1
 338 474 l 1
 125 269 l 1
 254 71 l 1
EndSplineSet
Validated: 1
EndChar

StartChar: logicalnot
Encoding: 172 172 111
Width: 673
VWidth: 1504
Flags: W
HStem: 352 68<51 534>
VStem: 534 72<132 352>
LayerCount: 2
Fore
SplineSet
606 132 m 1
 534 132 l 1
 534 352 l 1
 51 352 l 1
 51 420 l 1
 606 420 l 1
 606 132 l 1
EndSplineSet
Validated: 1
EndChar

StartChar: registered
Encoding: 174 174 112
Width: 812
VWidth: 1504
Flags: W
HStem: -5 64<316.87 538.255> 331 50<340 466.259> 537 53<341.096 492.309> 663 64<316.438 538.647>
VStem: 62 63<250.949 470.619> 278 62<134 331 381 535.942> 520 56<405.438 510.4> 532 59<134 232.244> 730 63<251.587 469.815>
LayerCount: 2
Fore
SplineSet
402 590 m 0xfd80
 498 590 576 549 576 463 c 0xfe80
 576 411 551 374 502 352 c 1
 564 308 577 227 591 134 c 1
 532 134 l 1
 514 265 475 331 415 331 c 2
 340 331 l 1
 340 134 l 1
 278 134 l 1
 278 578 l 1
 324 586 365 590 402 590 c 0xfd80
520 459 m 256
 520 511 481 537 402 537 c 0
 377 537 356 536 340 534 c 1
 340 381 l 1
 411 381 l 2
 484 381 520 407 520 459 c 256
793 361 m 256
 793 160 632 -5 427 -5 c 256
 223 -5 62 161 62 361 c 256
 62 562 224 727 427 727 c 256
 633 727 793 561 793 361 c 256
730 361 m 256
 730 525 599 663 427 663 c 256
 257 663 125 528 125 361 c 256
 125 191 260 59 427 59 c 256
 598 59 730 195 730 361 c 256
EndSplineSet
Validated: 1
EndChar

StartChar: macron
Encoding: 175 175 113
Width: 565
VWidth: 1504
Flags: W
HStem: 794 80<119 668>
LayerCount: 2
Fore
SplineSet
668 794 m 1
 102 794 l 1
 119 874 l 1
 684 874 l 1
 668 794 l 1
EndSplineSet
Validated: 1
EndChar

StartChar: degree
Encoding: 176 176 114
Width: 416
VWidth: 1504
Flags: W
HStem: 463 48<198.494 308.988> 683 48<226.004 336.076>
VStem: 131 49<530.074 636.036> 355 50<558.077 664.309>
LayerCount: 2
Fore
SplineSet
405 627 m 0
 405 544 328 463 239 463 c 256
 170 463 131 514 131 567 c 0
 131 651 208 731 296 731 c 256
 368 731 405 680 405 627 c 0
250 511 m 256
 302 511 355 562 355 616 c 0
 355 649 329 683 286 683 c 256
 231 683 180 631 180 579 c 0
 180 547 204 511 250 511 c 256
EndSplineSet
Validated: 1
EndChar

StartChar: plusminus
Encoding: 177 177 115
Width: 661
VWidth: 1504
Flags: W
HStem: 0 83<5 543> 326 83<81 287 399 605>
LayerCount: 2
Fore
SplineSet
543 0 m 1
 -12 0 l 1
 5 83 l 1
 560 83 l 1
 543 0 l 1
605 326 m 1
 382 326 l 1
 337 117 l 1
 242 117 l 1
 287 326 l 1
 65 326 l 1
 81 409 l 1
 304 409 l 1
 352 636 l 1
 447 636 l 1
 399 409 l 1
 621 409 l 1
 605 326 l 1
EndSplineSet
Validated: 1
EndChar

StartChar: twosuperior
Encoding: 178 178 116
Width: 391
VWidth: 1504
Flags: W
HStem: 286 67<156 320> 657 68<221.937 315.219>
VStem: 319 75<565.714 651.862>
LayerCount: 2
Fore
SplineSet
287 725 m 0
 348 725 394 694 394 635 c 0
 394 599 378 541 277 454 c 2
 156 353 l 1
 343 353 l 1
 320 286 l 1
 35 286 l 1
 43 324 62 362 179 457 c 2
 268 533 l 2
 311 571 319 603 319 620 c 0
 319 644 300 657 277 657 c 0
 245 657 199 634 184 575 c 1
 122 587 l 1
 154 685 221 725 287 725 c 0
EndSplineSet
Validated: 1
EndChar

StartChar: threesuperior
Encoding: 179 179 117
Width: 391
VWidth: 1504
Flags: W
HStem: 281 71<107.092 251.102> 659 68<220.462 312.875>
VStem: 300 73<398.929 488.338> 314 71<596.148 683.5>
LayerCount: 2
Fore
SplineSet
373 470 m 0xe0
 373 408 321 285 159 281 c 0
 118 281 84 294 56 319 c 1
 98 382 l 1
 109 371 129 352 176 352 c 0
 271 352 300 425 300 454 c 0xe0
 300 477 283 493 257 493 c 0
 232 493 202 482 187 471 c 1
 171 516 l 1
 286 564 314 611 314 635 c 0
 314 651 302 659 278 659 c 0
 258 659 211 647 177 590 c 1
 128 618 l 1
 174 691 230 727 296 727 c 0
 355 727 385 705 385 662 c 0xd0
 385 619 359 579 313 545 c 1
 353 533 373 507 373 470 c 0xe0
EndSplineSet
Validated: 1
EndChar

StartChar: acute
Encoding: 180 180 118
Width: 389
VWidth: 1504
Flags: W
HStem: 551 173
VStem: 129 268
LayerCount: 2
Fore
SplineSet
200 551 m 1
 129 551 l 1
 280 724 l 1
 397 724 l 1
 200 551 l 1
EndSplineSet
Validated: 1
EndChar

StartChar: mu
Encoding: 181 181 119
Width: 622
VWidth: 1504
Flags: W
HStem: -212 21G<-39 58.2742> -14 85<171.857 315.882> 494 20G<108.813 208 491.803 591>
VStem: 412 94<6.44083 60>
LayerCount: 2
Fore
SplineSet
214 -14 m 0
 166 -14 127 2 107 36 c 1
 54 -212 l 1
 -39 -212 l 1
 113 514 l 1
 208 514 l 1
 150 241 l 2
 144 216 142 193 142 174 c 0
 142 105 175 71 242 71 c 0
 308 71 412 118 432 209 c 2
 496 514 l 1
 591 514 l 1
 511 137 l 2
 508 122 506 105 506 88 c 0
 506 50 513 15 514 6 c 1
 420 -12 l 1
 413 11 412 31 412 60 c 1
 314 -6 254 -14 214 -14 c 0
EndSplineSet
Validated: 1
EndChar

StartChar: paragraph
Encoding: 182 182 120
Width: 571
VWidth: 1504
Flags: W
HStem: 666 48<439.983 509.641>
LayerCount: 2
Fore
SplineSet
103 434 m 0
 103 525 151 714 454 714 c 0
 507 714 546 712 570 707 c 1
 400 -95 l 1
 349 -95 l 1
 511 666 l 1
 439 666 l 1
 277 -95 l 1
 224 -95 l 1
 302 271 l 1
 163 271 103 356 103 434 c 0
EndSplineSet
Validated: 1
EndChar

StartChar: periodcentered
Encoding: 183 183 121
Width: 258
VWidth: 1504
Flags: W
HStem: 202 144<78.8219 161.125>
VStem: 46 149<234.926 313.489>
LayerCount: 2
Fore
SplineSet
195 289 m 0
 195 244 152 202 105 202 c 256
 68 202 46 228 46 259 c 0
 46 305 89 346 135 346 c 256
 171 346 195 320 195 289 c 0
EndSplineSet
Validated: 1
EndChar

StartChar: cedilla
Encoding: 184 184 122
Width: 374
VWidth: 1504
Flags: W
HStem: -239 52<-9.60825 118.569>
VStem: 130 71<-175.444 -103.473>
LayerCount: 2
Fore
SplineSet
201 -113 m 0
 201 -163 166 -239 57 -239 c 0
 22 -239 -9 -227 -30 -212 c 1
 0 -164 l 1
 26 -178 57 -187 71 -187 c 0
 122 -187 130 -145 130 -135 c 0
 130 -110 102 -93 45 -83 c 1
 131 17 l 1
 196 17 l 1
 141 -42 l 1
 172 -52 201 -71 201 -113 c 0
EndSplineSet
Validated: 1
EndChar

StartChar: onesuperior
Encoding: 185 185 123
Width: 391
VWidth: 1504
Flags: W
HStem: 293 59<122 187 260 311> 708 20G<266.514 308>
VStem: 110 221
LayerCount: 2
Fore
SplineSet
293 728 m 1
 323 728 331 708 331 692 c 0
 331 687 330 682 329 677 c 2
 260 352 l 1
 323 352 l 1
 311 293 l 1
 110 293 l 1
 122 352 l 1
 187 352 l 1
 244 623 l 1
 171 566 l 1
 146 617 l 1
 293 728 l 1
EndSplineSet
Validated: 1
EndChar

StartChar: ordmasculine
Encoding: 186 186 124
Width: 442
VWidth: 1504
Flags: W
HStem: 349 66<177.121 313.921> 666 67<221.86 358.638>
VStem: 72 68<450.845 584.249> 397 68<495.612 628.128>
LayerCount: 2
Fore
SplineSet
465 582 m 0
 465 464 356 349 227 349 c 0
 123 349 72 421 72 495 c 0
 72 616 178 733 308 733 c 0
 412 733 465 657 465 582 c 0
241 415 m 256
 318 415 397 485 397 567 c 0
 397 615 361 666 295 666 c 256
 219 666 140 596 140 513 c 0
 140 464 175 415 241 415 c 256
EndSplineSet
Validated: 1
EndChar

StartChar: guillemotright
Encoding: 187 187 125
Width: 535
VWidth: 1504
Flags: W
LayerCount: 2
Fore
SplineSet
83 71 m 1
 -6 71 l 1
 208 271 l 1
 80 472 l 1
 168 472 l 1
 298 269 l 1
 83 71 l 1
268 71 m 1
 176 71 l 1
 393 269 l 1
 263 474 l 1
 356 474 l 1
 481 269 l 1
 268 71 l 1
EndSplineSet
Validated: 1
EndChar

StartChar: onequarter
Encoding: 188 188 126
Width: 815
VWidth: 1504
Flags: W
HStem: 0 21G<93 184.121 554 636> 90 72<501 572 665 710> 265 58<71 135 209 260>
LayerCount: 2
Fore
SplineSet
587 162 m 1
 626 340 l 1
 575 299 522 224 501 162 c 1
 587 162 l 1
632 0 m 1
 554 0 l 1
 572 90 l 1
 408 90 l 1
 428 187 545 437 725 441 c 1
 665 162 l 1
 728 162 l 1
 710 90 l 1
 650 90 l 1
 632 0 l 1
260 265 m 1
 59 265 l 1
 71 323 l 1
 135 323 l 1
 191 585 l 1
 123 535 l 1
 93 590 l 1
 244 701 l 1
 268 699 280 688 280 666 c 0
 280 660 279 655 278 648 c 2
 209 323 l 1
 272 323 l 1
 260 265 l 1
168 -14 m 1
 93 -14 l 1
 678 713 l 1
 754 713 l 1
 168 -14 l 1
EndSplineSet
Validated: 1
LCarets2: 2 0 0 
Ligature2: "'frac' Diagonal Fractions in Latin lookup 0 subtable" one fraction four
Ligature2: "'frac' Diagonal Fractions in Latin lookup 0 subtable" one slash four
EndChar

StartChar: onehalf
Encoding: 189 189 127
Width: 815
VWidth: 1504
Flags: W
HStem: -14 21G<93 184.121> 0 69<552 716> 265 58<71 135 209 260> 370 69<618.04 711.169>
VStem: 715 75<283.116 366.116>
LayerCount: 2
Fore
SplineSet
683 439 m 0x78
 744 439 790 410 790 350 c 0
 790 283 743 234 684 184 c 2
 612 124 l 2
 588 106 568 87 552 69 c 1
 739 69 l 1
 716 0 l 1
 430 0 l 1
 442 41 466 93 578 179 c 0
 627 221 715 281 715 332 c 0
 715 347 708 370 672 370 c 0
 631 370 601 343 582 289 c 1
 517 301 l 1
 549 401 617 439 683 439 c 0x78
168 -14 m 1xb8
 93 -14 l 1
 678 713 l 1
 754 713 l 1
 168 -14 l 1xb8
260 265 m 1
 59 265 l 1
 71 323 l 1
 135 323 l 1
 191 585 l 1
 123 535 l 1
 93 590 l 1
 244 701 l 1
 268 699 280 688 280 666 c 0
 280 660 279 655 278 648 c 2
 209 323 l 1
 272 323 l 1
 260 265 l 1
EndSplineSet
Validated: 1
LCarets2: 2 0 0 
Ligature2: "'frac' Diagonal Fractions in Latin lookup 0 subtable" one fraction two
Ligature2: "'frac' Diagonal Fractions in Latin lookup 0 subtable" one slash two
EndChar

StartChar: threequarters
Encoding: 190 190 128
Width: 815
VWidth: 1504
Flags: W
HStem: 0 21G<93 184.121 554 636> 90 72<501 572 665 710> 268 69<102.203 240.121> 645 63<208.478 297.426>
VStem: 291 73<385.331 477.106> 299 73<581.581 657.5>
LayerCount: 2
Fore
SplineSet
587 162 m 1xf0
 626 340 l 1
 579 294 524 229 501 162 c 1
 587 162 l 1xf0
632 0 m 1
 554 0 l 1
 572 90 l 1
 408 90 l 1
 459 282 581 436 725 441 c 1
 665 162 l 1
 728 162 l 1
 710 90 l 1
 650 90 l 1
 632 0 l 1
168 -14 m 1
 93 -14 l 1
 678 713 l 1
 754 713 l 1
 168 -14 l 1
364 461 m 0xf8
 364 362 269 268 149 268 c 0
 108 268 73 280 45 305 c 1
 89 370 l 1
 120 337 157 337 165 337 c 0
 250 337 291 399 291 443 c 0xf8
 291 468 277 480 250 480 c 0
 225 480 199 471 174 453 c 1
 161 498 l 1
 237 533 299 576 299 622 c 0
 299 636 291 645 268 645 c 0
 228 645 194 621 165 572 c 1
 116 600 l 1
 162 672 219 708 286 708 c 0
 359 708 372 670 372 645 c 0xf4
 372 625 363 578 304 534 c 1
 346 528 364 501 364 461 c 0xf8
EndSplineSet
Validated: 1
LCarets2: 2 0 0 
Ligature2: "'frac' Diagonal Fractions in Latin lookup 0 subtable" three fraction four
Ligature2: "'frac' Diagonal Fractions in Latin lookup 0 subtable" three slash four
EndChar

StartChar: questiondown
Encoding: 191 191 129
Width: 434
VWidth: 1504
Flags: W
HStem: -227 86<66.3398 219.722> 369 144<219.094 298.069>
VStem: -47 97<-124.457 -13.9816> 186 145<402.308 480.115> 197 87<216.366 323>
LayerCount: 2
Fore
SplineSet
110 -227 m 0xe8
 11 -227 -47 -178 -47 -100 c 0
 -47 -23 1 44 95 123 c 0
 197 208 197 276 197 300 c 0
 197 307 197 315 196 323 c 1
 281 323 l 1
 284 304 284 295 284 276 c 0
 284 251 277 183 158 81 c 0
 65 -0 50 -47 50 -79 c 0
 50 -120 80 -141 140 -141 c 0
 183 -141 228 -127 274 -98 c 1
 295 -171 l 1
 228 -208 166 -227 110 -227 c 0xe8
331 456 m 0xf0
 331 408 285 369 244 369 c 256
 209 369 186 395 186 426 c 0
 186 475 232 513 274 513 c 256
 308 513 331 487 331 456 c 0xf0
EndSplineSet
Validated: 1
EndChar

StartChar: AE
Encoding: 198 198 136
Width: 876
VWidth: 1504
Flags: W
HStem: 0 83<520 769> 286 81<290 444> 340 83<540 808> 644 83<558 886>
LayerCount: 2
Fore
SplineSet
769 0 m 1xb0
 424 0 l 1
 444 286 l 1
 233 286 l 1xd0
 21 0 l 1
 -81 0 l 1
 462 727 l 1
 904 727 l 1
 886 644 l 1
 558 644 l 1
 540 423 l 1
 824 423 l 1
 808 340 l 1
 537 340 l 1
 520 83 l 1
 785 83 l 1
 769 0 l 1xb0
448 367 m 1
 472 609 l 1
 290 367 l 1
 448 367 l 1
EndSplineSet
Validated: 1
EndChar

StartChar: Ccedilla
Encoding: 199 199 137
Width: 649
VWidth: 1504
Flags: W
HStem: -239 52<127.392 255.569> -11 82<307 474.391> 608 21G<621 660.533> 645 82<344.459 608.299>
VStem: 36 99<172.938 393.127> 267 71<-175.444 -103.473>
LayerCount: 2
Fore
SplineSet
135 279 m 0
 135 193 173 71 322 71 c 0
 405 71 481 86 549 116 c 1
 558 38 l 1
 484 7 400 -9 307 -11 c 1
 278 -42 l 1
 309 -52 338 -71 338 -113 c 0
 338 -163 303 -239 194 -239 c 0
 159 -239 128 -227 107 -212 c 1
 137 -164 l 1
 163 -178 194 -187 208 -187 c 0
 259 -187 267 -145 267 -135 c 0
 267 -110 239 -93 182 -83 c 1
 246 -9 l 1
 79 10 36 150 36 249 c 0
 36 452 168 727 471 727 c 0
 556 727 631 712 695 683 c 1
 648 608 l 1
 594 633 530 645 457 645 c 0
 219 645 135 406 135 279 c 0
EndSplineSet
Validated: 1
EndChar

StartChar: Eth
Encoding: 208 208 146
Width: 690
VWidth: 1504
Flags: W
HStem: -6 81<121.998 353.915> 310 81<30 74 187 409> 642 82<239.728 487.193>
VStem: 578 98<338.986 558.379>
LayerCount: 2
Fore
SplineSet
676 479 m 0
 676 331 590 -6 209 -6 c 0
 168 -6 102 -1 11 9 c 1
 74 310 l 1
 12 310 l 1
 30 391 l 1
 92 391 l 1
 158 704 l 1
 275 717 354 724 394 724 c 0
 612 724 676 605 676 479 c 0
244 75 m 0
 511 75 578 346 578 463 c 0
 578 582 509 642 372 642 c 0
 343 642 299 639 238 633 c 1
 187 391 l 1
 427 391 l 1
 409 310 l 1
 168 310 l 1
 120 80 l 1
 152 77 193 75 244 75 c 0
EndSplineSet
Validated: 1
EndChar

StartChar: multiply
Encoding: 215 215 153
Width: 627
VWidth: 1504
Flags: W
HStem: -8 21G<16.4068 55.3184 442.202 482.085>
LayerCount: 2
Fore
SplineSet
531 51 m 1
 457 -8 l 1
 292 215 l 1
 32 -8 l 1
 -14 51 l 1
 245 274 l 1
 80 501 l 1
 153 560 l 1
 319 337 l 1
 579 560 l 1
 626 501 l 1
 363 275 l 1
 531 51 l 1
EndSplineSet
Validated: 1
EndChar

StartChar: Oslash
Encoding: 216 216 154
Width: 779
VWidth: 1504
Flags: W
HStem: -15 83<250.798 442.414> 648 82<351.91 552.787> 720 20G<617.143 728>
VStem: 38 95<175.372 399.45> 665 94<311.876 537.405>
LayerCount: 2
Fore
SplineSet
759 448 m 0xb8
 759 220 576 -15 319 -15 c 0
 272 -15 230 -8 194 6 c 1
 161 -42 l 1
 65 -42 l 1
 128 47 l 1
 106 67 38 135 38 266 c 0
 38 482 214 730 478 730 c 0xd8
 527 730 570 722 606 705 c 1
 632 740 l 1
 728 740 l 1
 671 662 l 1
 713 622 759 555 759 448 c 0xb8
460 648 m 0
 255 648 133 444 133 282 c 0
 133 189 175 138 185 126 c 1
 554 630 l 1
 527 642 495 648 460 648 c 0
337 68 m 0
 534 68 665 263 665 436 c 0
 665 518 628 570 615 584 c 1
 250 83 l 1
 275 73 304 68 337 68 c 0
EndSplineSet
Validated: 1
EndChar

StartChar: Thorn
Encoding: 222 222 160
Width: 592
VWidth: 1504
Flags: W
HStem: 0 21G<14 106.196> 137 78<150.868 347.549> 534 78<230.531 410.229> 696 20G<160.782 254>
VStem: 467 90<328.947 482.726>
LayerCount: 2
Fore
SplineSet
557 437 m 0
 557 336 496 137 209 137 c 0
 177 137 151 139 132 143 c 1
 102 0 l 1
 14 0 l 1
 165 716 l 1
 254 716 l 1
 230 606 l 1
 251 610 278 612 310 612 c 0
 444 612 557 566 557 437 c 0
229 215 m 0
 436 215 467 352 467 418 c 0
 467 495 410 534 296 534 c 0
 265 534 237 530 212 522 c 1
 150 227 l 1
 171 219 198 215 229 215 c 0
EndSplineSet
Validated: 1
EndChar

StartChar: germandbls
Encoding: 223 223 161
Width: 639
VWidth: 1504
Flags: W
HStem: -215 21G<-30.7273 62.5> -14 83<241.435 398.441> 654 86<325.788 464.398>
VStem: 343 92<333.72 404.317> 446 91<115.463 227.984> 484 90<520.62 635.362>
LayerCount: 2
Fore
SplineSet
537 189 m 0xf8
 537 132 483 -14 305 -14 c 0
 278 -14 228 -11 168 24 c 1
 215 105 l 1
 255 81 291 69 323 69 c 256
 411 69 446 133 446 174 c 0xf8
 446 238 343 288 343 357 c 0
 343 450 484 482 484 584 c 0
 484 631 454 654 394 654 c 0
 310 654 251 577 218 423 c 2
 116 -60 l 2
 105 -109 83 -162 42 -215 c 1
 -38 -193 l 1
 -12 -159 15 -116 26 -60 c 2
 134 447 l 2
 175 642 272 740 423 740 c 0
 514 740 574 690 574 605 c 0xf4
 574 463 435 412 435 371 c 0
 435 339 537 265 537 189 c 0xf8
EndSplineSet
Validated: 1
EndChar

StartChar: ae
Encoding: 230 230 168
Width: 934
VWidth: 1504
Flags: W
HStem: -14 85<112.833 267.965 521.539 749.663> 241 79<486 803> 256 82<200.464 370> 454 78<166.109 360.434 587.48 755.846>
VStem: -1 102<83.9186 188.096> 803 87<320.871 404.137>
LayerCount: 2
Fore
SplineSet
458 211 m 0xdc
 458 117 521 71 615 71 c 0
 673 71 742 84 821 110 c 1
 811 27 l 1
 738 -0 665 -14 593 -14 c 0
 471 -14 416 40 388 92 c 1
 337 21 258 -14 152 -14 c 0
 77 -14 -1 23 -1 108 c 0
 -1 200 65 335 387 338 c 1xbc
 389 347 389 356 389 364 c 0
 389 405 369 454 289 454 c 0
 257 454 195 441 102 415 c 1
 108 501 l 1
 183 522 251 532 311 532 c 0
 397 532 453 511 474 441 c 1
 535 502 611 532 702 532 c 0
 827 532 890 468 890 341 c 0
 890 311 887 278 880 241 c 1
 460 241 l 1
 459 230 458 220 458 211 c 0xdc
101 127 m 0
 101 88 133 69 171 69 c 0
 274 69 343 131 363 223 c 2
 370 256 l 1
 263 254 101 243 101 127 c 0
680 454 m 0
 582 454 518 396 486 320 c 1
 803 320 l 1xdc
 803 427 736 454 680 454 c 0
EndSplineSet
Validated: 1
EndChar

StartChar: ccedilla
Encoding: 231 231 169
Width: 521
VWidth: 1504
Flags: W
HStem: -239 52<64.3918 192.569> -14 80<241 360.736> 451 80<245.778 433.655>
VStem: 19 98<121.775 305.629> 204 71<-175.444 -103.473>
LayerCount: 2
Fore
SplineSet
117 204 m 0
 117 145 144 66 253 66 c 0
 303 66 355 81 408 110 c 1
 424 32 l 1
 371 1 309 -14 241 -14 c 1
 215 -42 l 1
 246 -52 275 -71 275 -113 c 0
 275 -163 240 -239 131 -239 c 0
 96 -239 65 -227 44 -212 c 1
 74 -164 l 1
 100 -178 131 -187 145 -187 c 0
 196 -187 204 -145 204 -135 c 0
 204 -110 176 -93 119 -83 c 1
 182 -9 l 1
 54 14 19 115 19 190 c 0
 19 350 139 531 355 531 c 0
 423 531 478 516 520 486 c 1
 471 408 l 1
 430 437 384 451 334 451 c 0
 198 451 117 321 117 204 c 0
EndSplineSet
Validated: 1
EndChar

StartChar: eth
Encoding: 240 240 178
Width: 568
VWidth: 1504
Flags: W
HStem: -24 84<157.971 294.668> 367 81<215.374 349.792> 644 75<184.573 214.678>
VStem: 26 90<103.469 260.942> 394 115<205.026 388.5>
LayerCount: 2
Fore
SplineSet
26 153 m 0
 26 301 147 448 296 448 c 256
 357 448 398 432 420 400 c 1
 398 483 323 549 320 549 c 1
 152 471 l 1
 125 537 l 1
 259 599 l 1
 227 619 194 634 161 644 c 1
 187 719 l 1
 254 705 311 680 360 645 c 1
 511 716 l 1
 529 647 l 1
 415 594 l 1
 477 519 509 435 509 342 c 0
 509 120 362 -24 199 -24 c 0
 79 -24 26 63 26 153 c 0
220 60 m 0
 313 60 394 156 394 250 c 0
 394 316 350 367 284 367 c 0
 200 367 116 274 116 178 c 0
 116 120 151 60 220 60 c 0
EndSplineSet
Validated: 1
EndChar

StartChar: divide
Encoding: 247 247 185
Width: 627
VWidth: 1504
Flags: W
HStem: 12 144<228.54 305.896> 236 81<39 572> 399 144<309.094 388.906>
VStem: 194 145<45.282 121.413> 276 146<431.885 510.115>
LayerCount: 2
Fore
SplineSet
572 236 m 1xe0
 23 236 l 1
 39 317 l 1
 588 317 l 1
 572 236 l 1xe0
339 101 m 0xf0
 339 54 297 12 251 12 c 256
 217 12 194 38 194 69 c 0
 194 110 235 156 283 156 c 256
 316 156 339 131 339 101 c 0xf0
422 486 m 0xe8
 422 437 376 399 334 399 c 256
 299 399 276 425 276 456 c 0
 276 505 322 543 364 543 c 256
 399 543 422 517 422 486 c 0xe8
EndSplineSet
Validated: 1
EndChar

StartChar: oslash
Encoding: 248 248 186
Width: 619
VWidth: 1504
Flags: W
HStem: -12 80<205.472 345.636> 450 81<247.205 377.234>
VStem: 20 95<130.583 305.974> 481 95<212.217 385.329>
LayerCount: 2
Fore
SplineSet
576 321 m 0
 576 156 434 -12 241 -12 c 0
 208 -12 178 -7 152 2 c 1
 120 -42 l 1
 24 -42 l 1
 84 42 l 1
 73 52 20 104 20 196 c 0
 20 364 166 531 356 531 c 0
 385 531 410 527 433 520 c 1
 469 569 l 1
 566 569 l 1
 504 483 l 1
 545 445 576 390 576 321 c 0
257 68 m 0
 389 68 481 191 481 307 c 0
 481 363 454 394 447 405 c 1
 205 75 l 1
 221 70 238 68 257 68 c 0
338 450 m 0
 207 450 115 326 115 212 c 0
 115 157 137 130 143 120 c 1
 378 445 l 1
 366 448 353 450 338 450 c 0
EndSplineSet
Validated: 1
EndChar

StartChar: thorn
Encoding: 254 254 192
Width: 658
VWidth: 1504
Flags: W
HStem: -14 83<205.295 380.732> 454 78<288.649 455.359> 696 20G<163.773 257>
VStem: 513 90<218.999 396.068>
LayerCount: 2
Fore
SplineSet
603 335 m 0
 603 185 485 -14 269 -14 c 0
 202 -14 150 7 114 48 c 1
 62 -202 l 1
 -26 -202 l 1
 168 716 l 1
 257 716 l 1
 203 462 l 1
 263 509 329 532 400 532 c 0
 538 532 603 439 603 335 c 0
290 69 m 0
 450 69 513 229 513 318 c 0
 513 391 468 454 375 454 c 0
 281 454 187 391 167 295 c 2
 149 209 l 2
 147 201 146 193 146 185 c 0
 146 128 201 69 290 69 c 0
EndSplineSet
Validated: 1
EndChar

StartChar: dotlessi
Encoding: 305 305 194
Width: 245
VWidth: 1504
Flags: W
HStem: 0 21G<9 108.227> 491 20G<112.773 212>
VStem: 9 203
LayerCount: 2
Fore
SplineSet
104 0 m 1
 9 0 l 1
 117 511 l 1
 212 511 l 1
 104 0 l 1
EndSplineSet
Validated: 1
EndChar

StartChar: Lslash
Encoding: 321 321 195
Width: 540
VWidth: 1504
Flags: W
HStem: 0 81<120 454> 696 20G<156.689 256>
LayerCount: 2
Fore
SplineSet
454 0 m 1
 9 0 l 1
 56 224 l 1
 11 214 l 1
 30 307 l 1
 75 317 l 1
 161 716 l 1
 256 716 l 1
 176 340 l 1
 531 420 l 1
 511 326 l 1
 155 247 l 1
 120 81 l 1
 471 81 l 1
 454 0 l 1
EndSplineSet
Validated: 1
EndChar

StartChar: lslash
Encoding: 322 322 196
Width: 326
VWidth: 1504
Flags: W
HStem: -12 86<191.09 234.279> 738 20G<166.714 266>
VStem: 55 98<110.019 312.719>
LayerCount: 2
Fore
SplineSet
153 188 m 0
 153 132 167 82 260 74 c 1
 232 -12 l 1
 116 -6 55 53 55 163 c 0
 55 193 58 226 66 263 c 2
 86 355 l 1
 17 337 l 1
 35 418 l 1
 102 436 l 1
 171 758 l 1
 266 758 l 1
 203 465 l 1
 352 507 l 1
 335 426 l 1
 187 384 l 1
 165 284 l 2
 157 247 153 215 153 188 c 0
EndSplineSet
Validated: 1
EndChar

StartChar: OE
Encoding: 338 338 197
Width: 1087
VWidth: 1504
Flags: W
HStem: -15 81<265.62 483.536> 0 81<669 984> 337 81<742 1018> 635 81<787 1118> 648 83<386.756 596.344>
VStem: 39 98<199.532 403.485>
LayerCount: 2
Fore
SplineSet
39 271 m 0xa4
 39 507 239 731 508 731 c 0xac
 585 731 649 712 701 674 c 1
 710 716 l 1
 1136 716 l 1
 1118 635 l 1
 787 635 l 1
 742 418 l 1
 1036 418 l 1
 1018 337 l 1
 724 337 l 1
 669 81 l 1
 1000 81 l 1
 984 0 l 1
 558 0 l 1x74
 566 41 l 1
 497 4 425 -15 349 -15 c 0
 132 -15 39 130 39 271 c 0xa4
137 298 m 0
 137 188 214 66 367 66 c 0
 452 66 527 96 591 156 c 1
 675 555 l 1
 637 617 575 648 490 648 c 0
 319 648 137 480 137 298 c 0
EndSplineSet
Validated: 1
EndChar

StartChar: oe
Encoding: 339 339 198
Width: 1036
VWidth: 1504
Flags: W
HStem: -14 85<173.067 352.887 627.161 850.718> 241 79<588 906> 450 81<246.994 419.723 694.118 863.007>
VStem: 20 95<130.343 305.756> 481 82<210.291 241> 906 87<320.594 407.675>
LayerCount: 2
Fore
SplineSet
563 207 m 0
 563 117 627 71 721 71 c 256
 776 71 843 84 922 110 c 1
 915 27 l 1
 836 -0 764 -14 698 -14 c 0
 597 -14 525 23 484 98 c 1
 416 25 335 -12 241 -12 c 0
 86 -12 20 94 20 196 c 0
 20 364 166 531 356 531 c 0
 453 531 519 492 554 415 c 1
 631 492 715 531 808 531 c 0
 932 531 993 469 993 344 c 0
 993 314 990 279 982 241 c 1
 566 241 l 1
 564 229 563 218 563 207 c 0
257 68 m 256
 389 68 481 190 481 308 c 0
 481 367 449 450 338 450 c 256
 206 450 115 325 115 212 c 0
 115 138 158 68 257 68 c 256
781 453 m 0
 695 453 617 394 588 320 c 1
 906 320 l 1
 906 390 881 453 781 453 c 0
EndSplineSet
Validated: 1
EndChar

StartChar: florin
Encoding: 402 402 204
Width: 607
VWidth: 1504
Flags: W
HStem: -104 83<-84.1643 68.4165> -20 20G<-83.7576 -57> 382 78<224 272 399 505> 645 83<509.733 663.187>
LayerCount: 2
Fore
SplineSet
505 382 m 1
 364 382 l 1
 260 140 l 2
 191 -23 94 -104 -30 -104 c 0
 -69 -104 -99 -91 -120 -66 c 1
 -68 0 l 1
 -46 -14 -23 -21 2 -21 c 0
 67 -21 123 35 171 147 c 2
 272 382 l 1
 191 382 l 1
 224 460 l 1
 308 460 l 1
 317 484 l 2
 394 647 492 728 609 728 c 0
 648 728 678 715 699 690 c 1
 647 624 l 1
 626 638 603 645 578 645 c 0
 511 645 454 589 406 477 c 2
 399 460 l 1
 539 460 l 1
 505 382 l 1
EndSplineSet
Validated: 1
EndChar

StartChar: circumflex
Encoding: 710 710 205
Width: 327
VWidth: 1504
Flags: W
HStem: 579 173<229 232>
VStem: 77 286
LayerCount: 2
Fore
SplineSet
363 579 m 1
 281 579 l 1
 242 686 l 1
 159 579 l 1
 77 579 l 1
 232 752 l 1
 284 752 l 1
 363 579 l 1
EndSplineSet
Validated: 1
EndChar

StartChar: caron
Encoding: 711 711 206
Width: 463
VWidth: 1504
Flags: W
HStem: 579 173<260 263>
VStem: 182 286
LayerCount: 2
Fore
SplineSet
313 579 m 1
 260 579 l 1
 182 752 l 1
 263 752 l 1
 302 645 l 1
 385 752 l 1
 468 752 l 1
 313 579 l 1
EndSplineSet
Validated: 1
EndChar

StartChar: breve
Encoding: 728 728 207
Width: 514
VWidth: 1504
Flags: W
HStem: 570 72<274.216 389.285> 719 20G<170 251 439 525>
VStem: 170 81<665.952 739>
LayerCount: 2
Fore
SplineSet
326 642 m 256
 397 642 433 710 445 739 c 1
 525 739 l 1
 477 613 397 570 311 570 c 256
 203 570 170 639 170 727 c 0
 170 739 l 1
 251 739 l 1
 251 696 266 642 326 642 c 256
EndSplineSet
Validated: 1
EndChar

StartChar: dotaccent
Encoding: 729 729 208
Width: 290
VWidth: 1504
Flags: W
HStem: 754 132<215.304 290.873>
VStem: 185 134<781.623 856.602>
LayerCount: 2
Fore
SplineSet
319 835 m 0
 319 793 282 754 239 754 c 256
 211 754 185 775 185 805 c 0
 185 850 230 886 268 886 c 256
 298 886 319 862 319 835 c 0
EndSplineSet
Validated: 1
EndChar

StartChar: ring
Encoding: 730 730 209
Width: 400
VWidth: 1504
Flags: W
HStem: 578 61<229.056 317.687> 755 63<243.798 333.834>
VStem: 158 64<645.908 733.355> 340 65<661.801 748.838>
LayerCount: 2
Fore
SplineSet
405 723 m 0
 405 648 332 578 256 578 c 256
 195 578 158 621 158 671 c 0
 158 749 229 818 307 818 c 256
 367 818 405 775 405 723 c 0
269 639 m 256
 307 639 340 674 340 712 c 0
 340 736 321 755 293 755 c 256
 252 755 222 717 222 686 c 0
 222 660 241 639 269 639 c 256
EndSplineSet
Validated: 1
EndChar

StartChar: ogonek
Encoding: 731 731 210
Width: 383
VWidth: 1504
Flags: W
HStem: -230 84<41.5 185.076>
VStem: -14 90<-164.025 -58.612>
LayerCount: 2
Fore
SplineSet
137 29 m 1
 105 -22 76 -76 76 -109 c 0
 76 -131 88 -143 110 -146 c 0
 132 -146 173 -133 212 -117 c 1
 194 -205 l 1
 149 -222 110 -230 78 -230 c 0
 5 -230 -14 -185 -14 -142 c 0
 -14 -108 -3 -76 48 29 c 1
 137 29 l 1
EndSplineSet
Validated: 1
EndChar

StartChar: tilde
Encoding: 732 732 211
Width: 389
VWidth: 1504
Flags: W
HStem: 552 74<258.663 346.745> 596 70<163.959 242.556>
VStem: 95 66<560 593.698> 353 65<629.591 666>
LayerCount: 2
Fore
SplineSet
202 666 m 0x70
 241 666 286 626 316 626 c 0xb0
 335 626 347 639 353 666 c 1
 418 666 l 1x70
 404 610 372 552 305 552 c 0xb0
 275 552 211 596 187 596 c 0
 166 596 162 570 161 560 c 1
 95 560 l 1
 104 606 138 666 202 666 c 0x70
EndSplineSet
Validated: 1
EndChar

StartChar: hungarumlaut
Encoding: 733 733 212
Width: 540
VWidth: 1504
Flags: W
HStem: 481 258
LayerCount: 2
Fore
SplineSet
369 481 m 1
 305 481 l 1
 454 739 l 1
 551 739 l 1
 369 481 l 1
179 481 m 1
 116 481 l 1
 265 739 l 1
 360 739 l 1
 179 481 l 1
EndSplineSet
Validated: 1
EndChar

StartChar: uni0E01
Encoding: 3585 3585 214
Width: 588
VWidth: 1504
Flags: W
HStem: 0 21G<9 106.214> 532 80<241.563 403.364>
VStem: 440 96<330.438 497.406>
LayerCount: 2
Fore
SplineSet
341 612 m 0
 502 612 536 517 536 453 c 0
 536 436 533 417 529 397 c 2
 460 71 l 2
 448 14 425 -24 390 -41 c 1
 316 0 l 1
 345 17 365 52 375 105 c 2
 436 399 l 2
 439 412 440 424 440 435 c 0
 440 475 418 532 328 532 c 0
 268 532 217 507 174 456 c 1
 219 447 248 424 260 388 c 1
 203 358 170 322 161 280 c 2
 102 0 l 1
 9 0 l 1
 69 286 l 2
 78 328 106 361 152 385 c 1
 136 398 114 405 88 405 c 0
 80 405 72 404 63 403 c 1
 94 522 202 612 341 612 c 0
EndSplineSet
Validated: 1
EndChar

StartChar: uni0E02
Encoding: 3586 3586 215
Width: 624
VWidth: 1504
Flags: W
HStem: -12 80<271.889 391.596> 326 58<123.339 202.161> 551 61<198.669 313.193>
VStem: 55 64<388.091 461.813> 172 93<78 152.083> 215 63<398.21 473.841> 328 91<425.822 535.648>
LayerCount: 2
Fore
SplineSet
158 384 m 256xf6
 185 384 215 407 215 441 c 0
 215 462 200 477 177 477 c 256
 149 477 119 451 119 422 c 0
 119 409 127 384 158 384 c 256xf6
265 109 m 0xfa
 265 81 300 68 328 68 c 0
 368 68 406 90 414 120 c 2
 502 542 l 2
 514 598 538 634 573 651 c 1
 656 617 l 1
 623 602 600 565 588 507 c 2
 510 141 l 2
 487 29 397 -12 311 -12 c 256
 232 -12 172 24 172 102 c 0xfa
 172 114 173 127 176 141 c 2
 197 239 l 2
 214 321 328 413 328 490 c 0
 328 524 301 551 263 551 c 0
 231 551 209 544 196 531 c 1
 255 528 278 490 278 456 c 0xf6
 278 390 216 326 146 326 c 0
 74 326 55 385 55 421 c 0
 55 530 169 612 275 612 c 0
 352 612 419 581 419 506 c 0
 419 405 304 302 289 230 c 2
 266 120 l 2
 265 116 265 113 265 109 c 0xfa
EndSplineSet
Validated: 1
EndChar

StartChar: uni0E03
Encoding: 3587 3587 216
Width: 648
VWidth: 1504
Flags: W
HStem: -12 80<295.889 416.225> 257 62<114.079 193.917> 412 62<151.002 204.564> 592 20G<185 262.294>
VStem: 44 67<322.432 396.901> 196 93<78 152.136> 208 63<333.241 409.012> 371 79<411.439 531.109>
LayerCount: 2
Fore
SplineSet
150 319 m 256xfb
 185 319 208 351 208 378 c 0
 208 390 200 412 170 412 c 256
 138 412 111 383 111 354 c 0
 111 333 129 319 150 319 c 256xfb
289 109 m 0xfd
 289 81 324 68 352 68 c 0
 392 68 430 89 438 120 c 2
 526 542 l 2
 539 598 562 634 597 651 c 1
 680 617 l 1
 647 602 624 565 612 507 c 2
 534 141 l 2
 511 29 421 -12 335 -12 c 256
 256 -12 196 24 196 102 c 0xfd
 196 114 197 127 200 141 c 2
 215 209 l 2
 236 299 371 395 371 473 c 0
 371 504 360 526 338 540 c 1
 271 483 l 1
 217 543 l 1
 194 531 156 492 150 469 c 1
 165 472 176 474 182 474 c 0
 236 474 271 436 271 390 c 0xfb
 271 325 215 257 137 257 c 0
 62 257 44 326 44 364 c 0
 44 440 123 601 247 612 c 1
 286 561 l 1
 343 614 l 1
 414 597 450 558 450 496 c 0
 450 378 330 311 311 221 c 2
 290 120 l 2
 289 116 289 113 289 109 c 0xfd
EndSplineSet
Validated: 1
EndChar

StartChar: uni0E04
Encoding: 3588 3588 217
Width: 606
VWidth: 1504
Flags: W
HStem: 0 21G<30 133.5> 260 53<264.868 345.189> 405 51<278.023 354.501> 532 80<253.556 413.888>
VStem: 55 208<259.093 448> 358 56<326.387 401.342> 459 95<378.545 492.728>
LayerCount: 2
Fore
SplineSet
301 313 m 256
 334 313 358 341 358 370 c 0
 358 384 348 405 320 405 c 256
 288 405 263 375 263 346 c 0
 263 326 278 313 301 313 c 256
360 612 m 0
 479 612 554 549 554 455 c 0
 554 440 553 424 549 408 c 2
 478 71 l 2
 466 14 443 -24 408 -41 c 1
 334 0 l 1
 363 17 382 52 393 105 c 2
 457 411 l 2
 459 419 459 427 459 434 c 0
 459 493 407 532 335 532 c 0
 236 532 169 451 153 381 c 0
 145 345 151 307 141 259 c 2
 132 217 l 1
 132 217 142 254 161 296 c 0
 190 360 253 456 332 456 c 0
 388 456 414 414 414 379 c 0
 414 312 349 260 290 260 c 0
 265 260 245 269 229 287 c 1
 180 196 144 100 123 0 c 1
 30 0 l 1
 50 96 l 2
 57 128 60 163 60 199 c 0
 60 246 55 269 55 317 c 0
 55 521 224 612 360 612 c 0
EndSplineSet
Validated: 1
EndChar

StartChar: uni0E05
Encoding: 3589 3589 218
Width: 606
VWidth: 1504
Flags: W
HStem: 0 21G<30 131.5> 229 51<258.669 338.033> 372 52<270.975 345.981>
VStem: 61 86<199.203 431.656> 350 57<292.672 368.376> 463 98<404.301 528.969>
LayerCount: 2
Fore
SplineSet
293 280 m 256
 323 280 350 302 350 335 c 0
 350 355 335 372 313 372 c 256
 280 372 256 340 256 316 c 0
 256 302 264 280 293 280 c 256
61 208 m 0
 61 253 57 276 57 321 c 0
 57 485 160 583 266 617 c 1
 353 558 l 1
 474 617 l 1
 532 591 561 547 561 487 c 0
 561 471 559 453 555 435 c 2
 478 71 l 2
 466 14 443 -24 408 -41 c 1
 334 0 l 1
 363 17 382 52 393 105 c 2
 457 411 l 2
 461 432 463 451 463 468 c 0
 463 497 456 518 442 531 c 1
 335 472 l 1
 245 531 l 1
 147 472 148 339 147 314 c 0
 146 279 141 245 135 212 c 1
 134 199 l 1
 158 265 l 2
 184 334 244 424 325 424 c 0
 375 424 407 388 407 344 c 0
 407 285 347 229 284 229 c 0
 259 229 238 237 221 254 c 1
 173 165 140 80 123 0 c 1
 30 0 l 1
 50 96 l 2
 58 131 61 169 61 208 c 0
EndSplineSet
Validated: 1
EndChar

StartChar: uni0E06
Encoding: 3590 3590 219
Width: 681
VWidth: 1504
Flags: W
HStem: -12 71<142.27 222.484> 0 21G<429.5 543.181> 158 72<154.218 233.461> 257 62<120.818 199.41> 412 60<155.663 211.356> 592 20G<198.5 265.294>
VStem: 49 68<323.087 395.345> 65 72<64.0707 142.102> 214 62<333.423 408.853> 373 82<418.113 532.945>
LayerCount: 2
Fore
SplineSet
141 257 m 0xbdc0
 68 257 49 315 49 357 c 0
 49 463 147 607 250 612 c 1
 289 561 l 1
 347 614 l 1
 419 596 455 558 455 500 c 0
 455 383 330 305 316 221 c 2
 311 199 l 1
 366 178 417 144 466 99 c 1
 560 542 l 2
 572 598 595 634 630 651 c 1
 713 617 l 1
 680 602 657 565 645 507 c 2
 539 0 l 1
 453 0 l 1x7ec0
 406 61 358 100 311 117 c 1
 308 102 l 2
 295 41 233 -12 162 -12 c 256
 101 -12 65 33 65 83 c 0
 65 161 137 230 214 230 c 0
 221 230 227 230 232 229 c 1
 250 313 373 387 373 480 c 0
 373 507 362 527 340 542 c 1
 275 484 l 1
 223 543 l 1
 202 534 164 496 155 468 c 1
 163 471 174 472 187 472 c 0
 242 472 276 433 276 388 c 0
 276 321 214 257 141 257 c 0xbdc0
177 59 m 0xbdc0
 212 59 239 91 239 119 c 0
 239 132 231 158 199 158 c 0
 163 158 137 124 137 99 c 0
 137 78 154 59 177 59 c 0xbdc0
156 319 m 256
 191 319 214 351 214 378 c 0
 214 390 206 412 176 412 c 256
 144 412 117 383 117 354 c 0x3ec0
 117 333 135 319 156 319 c 256
EndSplineSet
Validated: 1
EndChar

StartChar: uni0E07
Encoding: 3591 3591 220
Width: 469
VWidth: 1504
Flags: W
HStem: 0 21G<220.714 330.245> 387 61<262.028 313.729> 551 61<275.645 356.876>
VStem: 196 62<453.096 533.412> 362 71<466.173 545.313>
LayerCount: 2
Fore
SplineSet
334 612 m 0
 396 612 433 575 433 520 c 0
 433 511 432 501 430 490 c 2
 326 0 l 1
 235 0 l 1
 60 245 l 2
 27 294 27 322 27 341 c 1
 87 393 l 1
 91 366 100 341 114 320 c 2
 259 116 l 1
 314 388 l 1
 311 387 302 387 286 387 c 0
 232 387 196 421 196 469 c 0
 196 546 263 612 334 612 c 0
299 448 m 256
 335 448 362 482 362 511 c 0
 362 531 347 551 320 551 c 256
 285 551 258 517 258 487 c 0
 258 464 276 448 299 448 c 256
EndSplineSet
Validated: 1
EndChar

StartChar: uni0E08
Encoding: 3592 3592 221
Width: 586
VWidth: 1504
Flags: W
HStem: -12 80<296.588 365.883> 199 60<146.446 205.589> 352 60<156.743 235.33> 532 80<207.051 411.959>
VStem: 81 62<261.914 338.79> 205 90<69.7383 205> 239 62<272.973 347.471> 444 95<404.027 499.997>
LayerCount: 2
Fore
SplineSet
329 612 m 0xfd
 444 612 539 575 539 473 c 0
 539 459 537 445 534 430 c 2
 465 105 l 2
 451 36 393 -12 311 -12 c 0
 240 -12 205 19 205 81 c 2xfd
 206 205 l 1
 195 201 183 199 168 199 c 0
 116 199 81 238 81 282 c 0
 81 348 144 412 214 412 c 0
 266 412 301 376 301 328 c 2
 301 325 l 1xfb
 295 95 l 1
 295 92 l 2
 295 76 305 68 326 68 c 0
 351 68 366 78 370 98 c 2
 442 436 l 2
 444 443 444 450 444 456 c 0
 444 512 382 532 320 532 c 0
 234 532 177 508 149 459 c 1
 59 459 l 1
 94 560 184 611 329 612 c 0xfd
181 259 m 256
 212 259 239 288 239 314 c 0xfb
 239 337 223 352 200 352 c 256
 173 352 143 329 143 295 c 0
 143 282 151 259 181 259 c 256
EndSplineSet
Validated: 1
EndChar

StartChar: uni0E09
Encoding: 3593 3593 222
Width: 609
VWidth: 1504
Flags: W
HStem: -12 66<354.814 432.987> 0 21G<74 181.5> 174 58<104.015 125> 322 59<112.928 191.156> 532 80<230.499 433.678>
VStem: 41 60<234.451 309.588> 60 90<424 462.789> 194 61<244.81 318.605> 282 70<57.2434 104.5> 448 68<68.5503 143.175> 467 95<351.633 501.607>
LayerCount: 2
Fore
SplineSet
516 127 m 0x79c0
 516 56 450 -12 375 -12 c 0xb9c0
 319 -12 282 27 282 75 c 0
 282 80 282 85 283 90 c 1
 245 77 204 47 159 0 c 1
 74 0 l 1
 98 117 l 2
 104 145 113 164 125 174 c 1
 94 174 41 189 41 248 c 0x7dc0
 41 322 102 381 170 381 c 256
 223 381 255 344 255 300 c 0
 255 245 214 217 200 162 c 2
 188 99 l 1
 243 144 338 174 397 226 c 0
 417 246 430 269 435 296 c 2
 465 435 l 2
 466 441 467 447 467 453 c 0
 467 510 406 532 338 532 c 0
 245 532 171 492 150 424 c 1
 60 424 l 1
 102 549 200 612 353 612 c 0
 465 612 562 571 562 471 c 0x7ba0
 562 458 560 444 557 429 c 2
 526 286 l 2
 518 248 501 220 475 202 c 1
 502 184 516 159 516 127 c 0x79c0
137 232 m 256
 170 232 194 261 194 285 c 0
 194 300 186 322 156 322 c 256
 127 322 101 298 101 266 c 0x3d80
 101 252 108 232 137 232 c 256
390 54 m 256xb9c0
 423 54 448 85 448 111 c 0
 448 131 432 147 409 147 c 256
 379 147 352 119 352 90 c 0
 352 69 367 54 390 54 c 256xb9c0
EndSplineSet
Validated: 1
EndChar

StartChar: uni0E0A
Encoding: 3594 3594 223
Width: 624
VWidth: 1504
Flags: W
HStem: -12 80<270.666 393.24> 326 58<122.456 201.289> 477 54<196 210.731> 551 61<197.16 316.207>
VStem: 56 63<388.02 462.531> 171 94<76.9082 145.708> 215 63<397.109 473.458> 328 90<424.488 538.898> 469 95<291.484 450.819>
LayerCount: 2
Fore
SplineSet
56 421 m 0xfb80
 56 535 173 612 275 612 c 0
 370 612 418 576 418 504 c 0
 418 406 302 303 289 230 c 2
 265 111 l 1
 265 82 286 68 328 68 c 0
 369 68 407 91 414 120 c 2
 462 349 l 2
 467 373 469 390 469 400 c 0
 469 430 458 449 435 457 c 1
 467 567 571 654 626 672 c 1
 693 627 l 1
 628 601 574 551 529 477 c 1
 552 465 564 442 564 409 c 0
 564 398 561 379 555 350 c 2
 510 141 l 2
 491 50 419 -12 311 -12 c 0
 218 -12 171 27 171 104 c 0xfd80
 171 117 180 162 197 239 c 0
 214 316 328 410 328 489 c 0
 328 530 306 551 263 551 c 0
 230 551 208 544 196 531 c 1
 251 529 278 504 278 456 c 0
 278 385 212 326 146 326 c 0
 86 326 56 358 56 421 c 0xfb80
158 384 m 256
 185 384 215 407 215 441 c 0xfb80
 215 462 200 477 177 477 c 256
 149 477 119 451 119 422 c 0
 119 409 127 384 158 384 c 256
EndSplineSet
Validated: 1
EndChar

StartChar: uni0E0B
Encoding: 3595 3595 224
Width: 648
VWidth: 1504
Flags: W
HStem: -12 80<294.699 417.24> 257 62<115.447 194.551> 412 62<150.986 205.022> 592 20G<195 262.294>
VStem: 44 68<323.14 397.995> 208 63<332.087 408.571> 370 80<415.267 531.098> 493 95<291.484 450.819>
LayerCount: 2
Fore
SplineSet
137 257 m 0
 76 257 44 307 44 366 c 0
 44 477 143 604 247 612 c 1
 286 561 l 1
 343 614 l 1
 414 597 450 557 450 496 c 0
 450 389 327 297 311 221 c 2
 289 111 l 1
 289 82 310 68 352 68 c 0
 393 68 431 91 438 120 c 2
 486 349 l 2
 491 373 493 390 493 400 c 0
 493 430 482 449 459 457 c 1
 488 557 588 652 650 672 c 1
 718 627 l 1
 653 601 598 551 554 477 c 1
 577 465 588 442 588 409 c 0
 588 398 585 379 579 350 c 2
 534 141 l 2
 515 50 443 -12 335 -12 c 0
 242 -12 196 27 196 104 c 0
 196 117 202 152 215 209 c 0
 235 295 370 400 370 472 c 0
 370 504 359 527 338 540 c 1
 271 483 l 1
 217 543 l 1
 193 531 157 491 150 469 c 1
 165 472 176 474 182 474 c 0
 232 474 271 440 271 390 c 0
 271 316 204 257 137 257 c 0
150 319 m 256
 183 319 208 347 208 378 c 0
 208 390 200 412 170 412 c 256
 141 412 112 387 112 357 c 0
 112 344 120 319 150 319 c 256
EndSplineSet
Validated: 1
EndChar

StartChar: uni0E0C
Encoding: 3596 3596 225
Width: 849
VWidth: 1504
Flags: W
HStem: -12 62<74.6624 156.486 366.585 448.953> 0 21G<617.5 711.221> 152 63<147 168.607> 531 81<237.291 390.548>
VStem: 8 62<54.8959 135.713> 174 67<68.3703 146.879> 296 66<54.6108 135.023> 427 95<368.978 493.328> 624 83<0 33.1682>
LayerCount: 2
Fore
SplineSet
335 612 m 0xbf80
 448 612 522 555 522 453 c 0
 522 435 520 417 516 397 c 2
 477 214 l 1
 550 189 603 153 636 108 c 1
 728 542 l 2
 740 598 764 634 799 651 c 1
 881 617 l 1
 848 602 826 565 814 507 c 2
 707 0 l 1
 624 0 l 1x7f80
 611 49 578 88 525 117 c 1
 523 101 522 51 473 16 c 0
 446 -3 419 -12 390 -12 c 0
 333 -12 296 28 296 77 c 0
 296 106 310 169 382 206 c 1
 423 399 l 2
 425 410 427 421 427 432 c 0
 427 491 386 531 323 531 c 0
 262 531 213 506 176 456 c 1
 220 447 248 424 260 388 c 1
 203 360 170 324 161 280 c 2
 147 215 l 1
 218 215 241 163 241 127 c 0
 241 56 174 -12 99 -12 c 0
 46 -12 8 25 8 76 c 0
 8 101 18 140 44 165 c 1
 69 286 l 2
 78 328 106 361 152 385 c 1
 136 398 114 405 88 405 c 0
 80 405 72 404 63 403 c 1
 94 522 197 612 335 612 c 0xbf80
111 50 m 256xbf80
 144 50 174 82 174 111 c 0
 174 134 157 152 132 152 c 256
 99 152 70 122 70 89 c 0
 70 66 88 50 111 50 c 256xbf80
403 50 m 256
 436 50 466 82 466 111 c 0
 466 134 449 152 424 152 c 256
 391 152 362 122 362 89 c 0
 362 66 380 50 403 50 c 256
EndSplineSet
Validated: 1
EndChar

StartChar: uni0E0D
Encoding: 3597 3597 226
Width: 849
VWidth: 1504
Flags: W
HStem: -311 72<421.421 525.308> -111 58<347.153 426.687> -12 80<467.937 612.906> -12 62<104.102 186.772> 152 63<146.648 200.046> 531 81<237.291 390.548>
VStem: 29 71<54.3333 135.391> 204 62<67.5321 147.553> 272 60<-201.571 -124.7> 363 94<80.1619 159.915> 427 95<323.977 495.048> 430 57<-190.799 -114.321> 621 81<-123.856 -60>
LayerCount: 2
Fore
SplineSet
487 -136 m 0xcf98
 487 -166 474 -219 421 -236 c 1
 435 -238 445 -239 450 -239 c 0
 534 -239 591 -179 621 -60 c 1
 702 -60 l 1
 671 -202 589 -311 430 -311 c 0
 335 -311 272 -263 272 -190 c 0
 272 -107 340 -53 405 -53 c 0
 459 -53 487 -93 487 -136 c 0xcf98
457 113 m 0xdfc8
 457 78 502 68 535 68 c 0
 576 68 630 82 641 128 c 2
 728 542 l 2
 740 598 764 634 799 651 c 1
 881 617 l 1
 848 602 826 565 814 507 c 2
 736 141 l 2
 718 50 632 -12 517 -12 c 0
 391 -12 363 59 363 106 c 0xefc8
 363 117 365 129 367 141 c 2
 423 399 l 2
 425 410 427 421 427 432 c 0
 427 491 386 531 323 531 c 0
 262 531 213 506 176 456 c 1
 217 448 245 425 260 388 c 1
 203 360 170 324 161 280 c 2
 146 209 l 1
 154 213 164 215 176 215 c 0
 230 215 266 179 266 130 c 0
 266 57 203 -12 125 -12 c 0
 67 -12 29 26 29 81 c 0
 29 90 30 100 32 110 c 2
 69 286 l 2
 78 328 106 361 152 385 c 1
 136 398 114 405 88 405 c 0
 80 405 72 404 63 403 c 1
 94 522 197 612 335 612 c 0
 448 612 522 555 522 453 c 0xdfa8
 522 435 520 417 516 397 c 2
 459 128 l 2
 458 123 457 118 457 113 c 0xdfc8
370 -206 m 256
 404 -206 430 -174 430 -147 c 0xcf98
 430 -126 414 -111 391 -111 c 256
 355 -111 332 -142 332 -170 c 0
 332 -183 340 -206 370 -206 c 256
141 50 m 256xdf88
 172 50 204 78 204 113 c 0
 204 135 187 152 162 152 c 256
 129 152 100 122 100 89 c 0
 100 66 118 50 141 50 c 256xdf88
EndSplineSet
Validated: 1
Substitution2: "Single Substitution lookup 42 subtable" uni0E0D.alt1
Substitution2: "Single Substitution lookup 42 subtable" uni0E0D.alt1
EndChar

StartChar: uni0E0E
Encoding: 3598 3598 227
Width: 639
VWidth: 1504
Flags: W
HStem: -352 69<44.3096 125.486> -199 65<51.1387 149.626> -12 63<34.0001 116.466> 153 62<46.791 124.219> 532 80<287.532 449.828>
VStem: -35 64<56.2567 134.778> -28 70<-280.214 -209.686> 490 96<366.593 493.033>
LayerCount: 2
Fore
SplineSet
391 612 m 0xfd
 541 612 586 522 586 447 c 0
 586 431 584 414 581 397 c 2
 423 -346 l 1
 328 -346 l 1
 326 -293 288 -251 215 -220 c 1
 190 -308 142 -352 71 -352 c 0
 13 -352 -28 -317 -28 -263 c 0xfb
 -28 -223 -5 -134 138 -134 c 0
 152 -134 163 -134 171 -135 c 1
 191 -96 208 -74 253 -50 c 1
 308 -83 l 1
 273 -100 250 -122 238 -150 c 1
 291 -171 330 -196 355 -226 c 1
 487 399 l 2
 489 410 490 420 490 430 c 0
 490 491 446 532 376 532 c 0
 315 532 265 507 226 456 c 1
 267 448 295 425 311 388 c 1
 231 349 215 326 204 190 c 0
 198 113 194 64 143 21 c 0
 117 -1 88 -12 57 -12 c 0
 -0 -12 -35 27 -35 77 c 0
 -35 146 31 215 102 215 c 0
 114 215 121 214 123 211 c 1
 134 304 l 2
 142 339 165 366 203 385 c 1
 185 398 164 405 138 405 c 0
 131 405 122 404 114 403 c 1
 141 511 238 612 391 612 c 0xfd
114 -199 m 0
 60 -199 42 -220 42 -251 c 0
 42 -272 56 -283 83 -283 c 0
 126 -278 142 -244 150 -203 c 1
 141 -200 129 -199 114 -199 c 0
71 51 m 256
 104 51 133 81 133 114 c 0
 133 137 115 153 92 153 c 256
 56 153 29 119 29 92 c 0xfd
 29 69 46 51 71 51 c 256
EndSplineSet
Validated: 513
Substitution2: "Single Substitution lookup 42 subtable" uni0E0E.alt1
Substitution2: "Single Substitution lookup 42 subtable" uni0E0E.alt1
EndChar

StartChar: uni0E0F
Encoding: 3599 3599 228
Width: 639
VWidth: 1504
Flags: W
HStem: -353 76<-18.4621 56.0433> -199 70<-9.61938 77.6988> -12 63<34.0001 116.466> 153 62<46.791 124.219> 532 80<287.532 449.828>
VStem: -89 70<-275.303 -208.41> -35 64<56.2567 134.778> 490 96<366.708 493.033>
LayerCount: 2
Fore
SplineSet
38 -199 m 0xfd
 -9 -199 -19 -231 -19 -252 c 0
 -19 -268 -8 -277 12 -277 c 0
 46 -277 68 -253 78 -206 c 1
 69 -201 56 -199 38 -199 c 0xfd
71 51 m 256
 104 51 133 81 133 114 c 0
 133 137 115 153 92 153 c 256
 56 153 29 119 29 92 c 0xfb
 29 69 46 51 71 51 c 256
391 612 m 0
 541 612 586 522 586 447 c 0
 586 431 584 414 581 397 c 2
 421 -347 l 1
 337 -347 l 1
 281 -245 l 1
 185 -347 l 1
 137 -253 l 1
 117 -308 58 -353 5 -353 c 0
 -53 -353 -89 -316 -89 -265 c 0xfd
 -89 -229 -70 -129 63 -129 c 0
 82 -129 96 -131 104 -134 c 1
 123 -97 155 -68 200 -47 c 1
 239 -110 l 1
 200 -120 175 -140 164 -171 c 1
 208 -244 l 1
 299 -152 l 1
 353 -233 l 1
 487 399 l 2
 489 410 490 420 490 430 c 0
 490 491 446 532 376 532 c 0
 315 532 265 507 226 456 c 1
 267 448 295 425 311 388 c 1
 231 349 215 326 204 190 c 0
 198 113 194 64 143 21 c 0
 117 -1 88 -12 57 -12 c 0
 -0 -12 -35 27 -35 77 c 0
 -35 146 31 215 102 215 c 0
 114 215 121 214 123 211 c 1
 134 304 l 2
 142 339 165 366 203 385 c 1
 185 398 164 405 138 405 c 0
 131 405 122 404 114 403 c 1
 141 511 238 612 391 612 c 0
EndSplineSet
Validated: 513
Substitution2: "Single Substitution lookup 42 subtable" uni0E0F.alt1
Substitution2: "Single Substitution lookup 42 subtable" uni0E0F.alt1
EndChar

StartChar: uni0E10
Encoding: 3600 3600 229
Width: 559
VWidth: 1504
Flags: W
HStem: -343 68<-77.7156 -1.68344 141 269.494> -227 53<243.163 276.982> -199 68<-70.9973 17.5762> -110 54<245.219 309.251> -12 78<244.752 324.109> 164 57<116.791 158.725> 308 58<125.402 201.473> 495 87<367.724 513.48> 532 80<220.087 385.7>
VStem: -140 61<-273.915 -208.448> 56 58<223.876 296.796> 145 97<69.7603 142> 179 62<-173.135 -114.298> 204 72<233.496 304.83> 310 67<-168.548 -111.365> 384 96<303.978 363.722> 534 72<602.472 631.944>
LayerCount: 2
Fore
SplineSet
-14 -199 m 0xbe6380
 -71 -199 -79 -229 -79 -250 c 0
 -79 -267 -69 -275 -47 -275 c 0
 -12 -275 9 -252 18 -206 c 1
 6 -201 -5 -199 -14 -199 c 0xbe6380
296 -56 m 0
 344 -56 377 -89 377 -128 c 0
 377 -132 377 -136 376 -141 c 2
 353 -245 l 2
 339 -312 299 -346 232 -346 c 2
 108 -346 l 1
 60 -256 l 1
 47 -303 -2 -343 -53 -343 c 0
 -122 -343 -140 -296 -140 -262 c 0
 -140 -198 -87 -131 0 -131 c 0xbe6b80
 20 -131 34 -133 41 -138 c 1
 51 -105 74 -80 111 -62 c 1
 152 -89 l 1
 119 -103 98 -131 89 -173 c 1
 141 -272 l 1
 220 -272 l 2
 252 -272 270 -264 274 -247 c 2
 277 -227 l 1
 259 -227 l 2
 199 -227 179 -187 179 -161 c 0xde6b80
 179 -101 238 -56 296 -56 c 0
196 492 m 1
 439 450 480 412 480 365 c 0
 480 359 480 353 478 346 c 2
 432 125 l 2
 413 34 355 -12 260 -12 c 0
 183 -12 145 18 145 78 c 0x9ef380
 145 90 146 103 149 117 c 2
 159 167 l 1
 151 165 144 164 138 164 c 0
 87 164 56 199 56 242 c 0
 56 313 124 366 185 366 c 0
 236 366 276 335 276 287 c 0x9ee780
 276 281 276 273 274 266 c 2
 244 120 l 2
 242 113 242 106 242 100 c 0
 242 77 254 66 278 66 c 0
 310 66 330 84 338 120 c 2
 384 337 l 2
 384 340 l 0
 384 388 137 426 75 426 c 1
 118 567 223 612 311 612 c 0x9ef380
 365 612 420 582 478 582 c 0
 502 582 521 605 534 650 c 1
 606 630 l 1
 574 540 523 495 454 495 c 0x9f7380
 406 495 347 532 295 532 c 0x9ef380
 279 532 218 521 196 492 c 1
150 221 m 256
 177 221 204 247 204 273 c 0x9e6780
 204 294 189 308 168 308 c 256
 138 308 114 282 114 254 c 0
 114 234 130 221 150 221 c 256
268 -174 m 256xde6b80
 293 -174 310 -152 310 -138 c 0
 310 -127 304 -110 281 -110 c 256
 258 -110 241 -126 241 -149 c 0
 241 -159 246 -174 268 -174 c 256xde6b80
EndSplineSet
Validated: 5
Substitution2: "Single Substitution lookup 42 subtable" uni0E10.alt1
Substitution2: "Single Substitution lookup 42 subtable" uni0E10.alt1
EndChar

StartChar: uni0E11
Encoding: 3601 3601 230
Width: 740
VWidth: 1504
Flags: W
HStem: 0 21G<170 286.235> 257 62<113.962 193.653> 412 62<147.307 205.457> 523 89<559.07 649>
VStem: 44 67<322.876 396.16> 208 60<333.859 408.751> 352 76<420.776 540.88> 608 97<413.398 559.5>
LayerCount: 2
Fore
SplineSet
150 319 m 256
 185 319 208 351 208 378 c 0
 208 390 200 412 170 412 c 256
 138 412 111 383 111 354 c 0
 111 333 129 319 150 319 c 256
135 257 m 0
 76 257 44 307 44 364 c 0
 44 451 124 601 244 612 c 1
 283 561 l 1
 341 614 l 1
 399 601 428 567 428 511 c 0
 428 401 317 299 293 181 c 2
 275 132 265 104 263 95 c 1
 502 522 l 2
 537 582 576 612 621 612 c 0
 677 612 705 586 705 533 c 0
 705 519 703 504 699 486 c 2
 612 71 l 2
 600 14 577 -24 542 -41 c 1
 468 0 l 1
 497 17 516 52 526 105 c 2
 606 483 l 2
 607 490 608 495 608 500 c 0
 608 516 602 523 590 523 c 0
 576 523 565 516 557 502 c 2
 275 0 l 1
 170 0 l 1
 203 161 l 2
 229 274 352 404 352 499 c 0
 352 518 346 533 334 542 c 1
 266 483 l 1
 215 543 l 1
 190 530 154 491 147 469 c 1
 154 472 166 474 181 474 c 0
 237 474 268 432 268 388 c 0
 268 323 210 257 135 257 c 0
EndSplineSet
Validated: 1
EndChar

StartChar: uni0E12
Encoding: 3602 3602 231
Width: 828
VWidth: 1504
Flags: W
HStem: -12 66<364.965 445.596> 0 21G<39 141.5 591 690.221> 388 50<256.148 334.776>
VStem: 57 94<216.533 442.01> 73 83<130.043 347.321> 190 52<298.058 373.747> 296 67<56.9076 134.372> 338 52<309.369 384.239> 449 95<338.352 528.332>
LayerCount: 2
Fore
SplineSet
73 201 m 0x6d80
 73 238 57 282 57 347 c 0
 57 430 122 576 271 614 c 1
 337 546 l 1
 424 614 l 1
 504 602 544 554 544 472 c 0
 544 449 541 424 535 397 c 2
 492 197 l 1
 534 183 600 138 617 114 c 1
 707 542 l 2
 719 598 743 634 778 651 c 1
 860 617 l 1
 827 602 805 565 793 507 c 2
 686 0 l 1
 599 0 l 1x7480
 583 43 558 76 523 98 c 1
 513 47 469 -12 387 -12 c 0
 314 -12 296 45 296 78 c 0
 296 151 361 198 402 209 c 1
 441 394 l 2
 446 419 449 442 449 461 c 0
 449 493 441 516 426 531 c 1
 319 465 l 1
 250 531 l 1
 187 503 151 420 151 353 c 0xb680
 151 303 156 278 156 228 c 0
 156 182 152 157 135 129 c 1
 168 180 209 218 259 245 c 1
 200 250 190 299 190 319 c 0
 190 384 246 438 310 438 c 0
 362 438 390 398 390 361 c 0
 390 322 365 261 261 168 c 0
 187 101 146 45 137 0 c 1
 39 0 l 1
 60 96 l 2
 69 138 73 173 73 201 c 0x6d80
280 295 m 256
 313 295 338 326 338 351 c 0x2580
 338 364 330 388 299 388 c 256
 265 388 242 356 242 329 c 0
 242 317 250 295 280 295 c 256
400 54 m 256xa680
 440 54 460 87 460 112 c 0
 460 127 452 149 421 149 c 256
 388 149 363 120 363 89 c 0
 363 67 377 54 400 54 c 256xa680
EndSplineSet
Validated: 1
EndChar

StartChar: uni0E13
Encoding: 3603 3603 232
Width: 866
VWidth: 1504
Flags: W
HStem: -12 65<103.511 189.319 611.497 694.003> 0 21G<338 453.5> 152 63<146.648 200.046> 531 81<237.291 390.548>
VStem: 29 71<54.3333 135.391> 204 62<67.5321 147.553> 427 95<325.969 495.366> 542 65<59.1638 86> 711 64<70.5758 149.905>
LayerCount: 2
Fore
SplineSet
775 127 m 0xbf80
 775 66 720 -12 638 -12 c 0xbf80
 579 -12 542 29 542 80 c 0
 542 86 l 1
 511 68 474 39 433 0 c 1
 338 0 l 1x7f80
 423 399 l 2
 425 410 427 421 427 432 c 0
 427 491 386 531 323 531 c 0
 262 531 213 506 176 456 c 1
 214 453 242 430 260 388 c 1
 203 360 170 324 161 280 c 2
 146 209 l 1
 154 213 164 215 176 215 c 0
 230 215 266 179 266 130 c 0
 266 57 203 -12 125 -12 c 0
 67 -12 29 26 29 81 c 0
 29 90 30 100 32 110 c 2
 69 286 l 2
 78 328 106 361 152 385 c 1
 136 398 114 405 88 405 c 0
 80 405 72 404 63 403 c 1
 94 522 197 612 335 612 c 0
 448 612 522 555 522 454 c 0
 522 437 520 419 516 399 c 2
 451 95 l 1
 498 139 602 203 660 245 c 1
 678 263 690 287 696 316 c 2
 745 542 l 2
 757 598 780 634 815 651 c 1
 898 617 l 1
 865 602 842 565 830 507 c 2
 784 284 l 2
 775 245 758 218 734 202 c 1
 761 184 775 159 775 127 c 0xbf80
648 53 m 256
 681 53 711 85 711 114 c 0
 711 137 694 155 669 155 c 256
 636 155 607 125 607 92 c 0
 607 69 625 53 648 53 c 256
141 50 m 256
 172 50 204 78 204 113 c 0
 204 135 187 152 162 152 c 256
 129 152 100 122 100 89 c 0
 100 66 118 50 141 50 c 256
EndSplineSet
Validated: 1
EndChar

StartChar: uni0E14
Encoding: 3604 3604 233
Width: 609
VWidth: 1504
Flags: W
HStem: 0 21G<38 134.5> 408 52<269.34 346.897> 532 80<257.677 416.342>
VStem: 57 93<205.498 432.552> 72 89<147.618 342.702> 202 55<319.914 395.461> 350 54<331.228 405.234> 461 96<370.908 492.465>
LayerCount: 2
Fore
SplineSet
293 317 m 256xe7
 327 317 350 347 350 371 c 0
 350 393 335 408 313 408 c 256
 279 408 257 380 257 350 c 0
 257 330 272 317 293 317 c 256xe7
341 532 m 0
 261 532 150 468 150 349 c 0xf7
 150 294 161 267 161 212 c 0
 161 186 158 171 149 147 c 1
 188 194 229 234 272 266 c 1
 217 270 202 314 202 339 c 0
 202 408 265 460 325 460 c 256
 388 460 404 408 404 382 c 0
 404 280 237 159 170 77 c 0
 150 51 137 25 132 0 c 1
 38 0 l 1
 60 102 l 2
 68 139 72 170 72 195 c 0xef
 72 225 57 298 57 341 c 0xf7
 57 473 187 612 355 612 c 0
 480 612 557 549 557 448 c 0
 557 432 555 415 551 397 c 2
 481 71 l 2
 469 14 446 -24 411 -41 c 1
 337 0 l 1
 366 17 386 52 396 105 c 2
 457 403 l 2
 460 414 461 424 461 434 c 0
 461 493 408 532 341 532 c 0
EndSplineSet
Validated: 1
EndChar

StartChar: uni0E15
Encoding: 3605 3605 234
Width: 609
VWidth: 1504
Flags: W
HStem: 0 21G<33 130> 385 51<262.825 341.109>
VStem: 33 95<0 53.0815> 58 92<207.418 443.449> 68 88<129.36 331.098> 198 53<297.734 373.431> 344 53<308.438 381.672> 463 96<335.586 522.323>
LayerCount: 2
Fore
SplineSet
287 295 m 256xc7
 321 295 344 324 344 349 c 0
 344 363 336 385 307 385 c 256
 271 385 251 356 251 327 c 0
 251 308 266 295 287 295 c 256xc7
68 192 m 0xcf
 68 227 58 275 58 331 c 0
 58 465 142 581 269 614 c 1
 341 549 l 1
 435 614 l 1
 518 601 559 553 559 469 c 0
 559 447 556 423 551 397 c 2
 481 71 l 2
 469 14 446 -24 411 -41 c 1
 337 0 l 1
 366 17 386 52 396 105 c 2
 456 394 l 2
 461 415 463 433 463 450 c 0
 463 486 453 513 433 532 c 1
 325 465 l 1
 248 532 l 1
 182 503 150 416 150 336 c 0xd7
 150 289 156 266 156 219 c 0xcf
 156 182 153 164 134 128 c 1
 154 160 224 220 268 244 c 1
 208 248 198 296 198 319 c 0
 198 375 251 436 317 436 c 256
 367 436 397 402 397 360 c 0
 397 250 228 158 165 77 c 0
 144 48 132 22 128 0 c 1
 33 0 l 1xe7
 60 104 68 154 68 192 c 0xcf
EndSplineSet
Validated: 1
EndChar

StartChar: uni0E16
Encoding: 3606 3606 235
Width: 588
VWidth: 1504
Flags: W
HStem: -12 62<104.102 186.772> 152 63<146.648 200.046> 532 80<241.563 403.364>
VStem: 29 71<54.3333 135.391> 204 62<67.5321 147.553> 440 96<330.438 497.406>
LayerCount: 2
Fore
SplineSet
141 50 m 256
 172 50 204 78 204 113 c 0
 204 135 187 152 162 152 c 256
 129 152 100 122 100 89 c 0
 100 66 118 50 141 50 c 256
341 612 m 0
 502 612 536 517 536 453 c 0
 536 436 533 417 529 397 c 2
 460 71 l 2
 448 14 425 -24 390 -41 c 1
 316 0 l 1
 345 17 365 52 375 105 c 2
 436 399 l 2
 439 412 440 424 440 435 c 0
 440 475 418 532 328 532 c 0
 268 532 217 507 174 456 c 1
 219 447 248 424 260 388 c 1
 203 358 170 322 161 280 c 2
 146 209 l 1
 154 213 164 215 176 215 c 0
 230 215 266 179 266 130 c 0
 266 57 203 -12 125 -12 c 0
 67 -12 29 26 29 81 c 0
 29 90 30 100 32 110 c 2
 69 286 l 2
 78 328 106 361 152 385 c 1
 136 398 114 405 88 405 c 0
 80 405 72 404 63 403 c 1
 94 522 202 612 341 612 c 0
EndSplineSet
Validated: 1
EndChar

StartChar: uni0E17
Encoding: 3607 3607 236
Width: 658
VWidth: 1504
Flags: W
HStem: 0 21G<89 205.255> 384 63<121.167 168.685> 532 80<481.922 553.5> 549 63<133.01 215.323>
VStem: 51 65<452.511 531.525> 221 68<464.994 543.322> 528 95<453.867 531.104>
LayerCount: 2
Fore
SplineSet
528 612 m 0xee
 579 612 623 595 623 528 c 0
 623 515 621 500 618 484 c 2
 531 71 l 2
 519 14 495 -24 460 -41 c 1
 387 0 l 1
 416 17 435 52 445 105 c 2
 525 486 l 2
 527 496 528 504 528 510 c 0
 528 525 523 532 513 532 c 0xee
 500 532 489 525 481 510 c 2
 194 0 l 1
 89 0 l 1
 170 387 l 1
 160 385 151 384 144 384 c 0
 80 384 51 431 51 473 c 0
 51 539 111 612 193 612 c 0xde
 253 612 289 573 289 518 c 0
 289 509 288 500 286 490 c 2
 238 266 l 2
 231 232 214 179 187 107 c 1
 207 151 231 200 259 254 c 2
 400 522 l 2
 431 582 474 612 528 612 c 0xee
158 447 m 256
 191 447 221 479 221 508 c 0
 221 531 204 549 179 549 c 256xde
 146 549 116 517 116 488 c 0
 116 465 133 447 158 447 c 256
EndSplineSet
Validated: 1
EndChar

StartChar: uni0E18
Encoding: 3608 3608 237
Width: 538
VWidth: 1504
Flags: W
HStem: -12 80<135.086 296.044> 504 80<338.435 483.686> 534 78<193.903 374.765>
VStem: 34 94<78.625 153.5> 360 96<287.767 351.156>
LayerCount: 2
Fore
SplineSet
360 324 m 2xb8
 360 364 251 386 60 424 c 1
 95 535 146 612 284 612 c 0xb8
 342 612 404 584 450 584 c 0
 472 584 491 606 507 651 c 1
 576 632 l 1
 532 533 507 504 427 504 c 0xd8
 380 504 322 534 271 534 c 0
 217 534 184 517 173 484 c 1
 398 433 456 410 456 346 c 0
 456 340 455 333 454 326 c 2
 412 128 l 2
 392 35 318 -12 194 -12 c 0
 62 -12 34 44 34 82 c 0
 34 96 34 111 38 128 c 2
 59 229 l 2
 71 285 94 321 129 338 c 1
 212 304 l 1
 179 289 156 252 144 194 c 2
 129 122 l 2
 128 118 128 114 128 111 c 0
 128 82 156 68 212 68 c 0
 274 68 309 86 317 122 c 2
 360 320 l 1
 360 324 l 2xb8
EndSplineSet
Validated: 1
EndChar

StartChar: uni0E19
Encoding: 3609 3609 238
Width: 651
VWidth: 1504
Flags: W
HStem: -12 62<395.377 476.609> 0 21G<89 203.5> 384 63<121.167 168.685> 549 63<133.01 215.323>
VStem: 51 65<452.511 531.525> 221 68<465.307 543.322> 328 62<55.8098 86> 494 66<67.1735 147.291>
LayerCount: 2
Fore
SplineSet
560 127 m 0x7f
 560 54 493 -12 420 -12 c 0xbf
 359 -12 328 31 328 77 c 0
 328 86 l 1
 281 65 223 42 184 0 c 1
 89 0 l 1
 170 387 l 1
 160 385 151 384 144 384 c 0
 80 384 51 431 51 473 c 0
 51 539 111 612 193 612 c 0
 253 612 289 573 289 518 c 0
 289 509 288 500 286 490 c 2
 205 108 l 1
 259 144 384 173 441 224 c 0
 458 239 470 263 477 296 c 2
 529 542 l 2
 542 598 565 634 600 651 c 1
 683 617 l 1
 650 602 627 565 615 507 c 2
 569 284 l 2
 560 244 543 217 519 202 c 1
 546 184 560 159 560 127 c 0x7f
158 447 m 256
 191 447 221 479 221 508 c 0
 221 531 204 549 179 549 c 256
 146 549 116 517 116 488 c 0
 116 465 133 447 158 447 c 256
432 50 m 256
 465 50 494 80 494 113 c 0
 494 136 476 152 453 152 c 256
 420 152 390 120 390 91 c 0
 390 68 407 50 432 50 c 256
EndSplineSet
Validated: 1
EndChar

StartChar: uni0E1A
Encoding: 3610 3610 239
Width: 669
VWidth: 1504
Flags: W
HStem: -12 80<234.118 417.628> 384 63<121.167 168.685> 549 63<133.01 215.323>
VStem: 51 65<452.511 531.525> 113 95<92.1709 165.947> 221 68<466.119 543.322>
LayerCount: 2
Fore
SplineSet
158 447 m 256xf4
 191 447 221 479 221 508 c 0
 221 531 204 549 179 549 c 256
 146 549 116 517 116 488 c 0
 116 465 133 447 158 447 c 256xf4
208 126 m 0xec
 208 88 273 68 322 68 c 0
 352 68 450 82 460 134 c 2
 548 542 l 2
 560 598 583 634 618 651 c 1
 701 617 l 1
 668 602 645 565 633 507 c 2
 555 135 l 2
 534 37 450 -12 305 -12 c 0
 178 -12 113 25 113 99 c 0xec
 113 110 114 122 117 135 c 2
 170 387 l 1
 160 385 151 384 144 384 c 0
 80 384 51 431 51 473 c 0xf4
 51 539 111 612 193 612 c 0
 253 612 289 573 289 518 c 0
 289 509 288 500 286 490 c 2
 209 134 l 2
 208 131 208 128 208 126 c 0xec
EndSplineSet
Validated: 1
EndChar

StartChar: uni0E1B
Encoding: 3611 3611 240
Width: 669
VWidth: 1504
Flags: W
HStem: -12 80<234.118 417.628> 384 63<121.167 168.685> 549 63<133.01 215.323>
VStem: 51 65<452.511 531.525> 113 95<92.1709 165.947> 221 68<466.119 543.322>
LayerCount: 2
Fore
SplineSet
208 126 m 0xec
 208 88 273 68 322 68 c 0
 352 68 450 82 460 134 c 2
 594 763 l 2
 606 819 630 855 665 872 c 1
 748 838 l 1
 715 823 692 786 680 728 c 2
 555 135 l 2
 534 37 450 -12 305 -12 c 0
 178 -12 113 25 113 99 c 0xec
 113 110 114 122 117 135 c 2
 170 387 l 1
 160 385 151 384 144 384 c 0
 80 384 51 431 51 473 c 0xf4
 51 539 111 612 193 612 c 0
 253 612 289 573 289 518 c 0
 289 509 288 500 286 490 c 2
 209 134 l 2
 208 131 208 128 208 126 c 0xec
158 447 m 256
 191 447 221 479 221 508 c 0
 221 531 204 549 179 549 c 256
 146 549 116 517 116 488 c 0xf4
 116 465 133 447 158 447 c 256
EndSplineSet
Validated: 1
EndChar

StartChar: uni0E1C
Encoding: 3612 3612 241
Width: 622
VWidth: 1504
Flags: W
HStem: 0 21G<-6 102.68 378.701 484.221> 384 63<171.53 254.242> 549 63<185.287 267.467>
VStem: 272 64<465.121 543.856>
LayerCount: 2
Fore
SplineSet
336 522 m 0
 336 454 273 384 196 384 c 0
 181 384 172 384 168 385 c 1
 114 128 l 1
 272 313 l 1
 332 313 l 1
 412 126 l 1
 501 542 l 2
 513 598 537 634 572 651 c 1
 654 617 l 1
 621 602 599 565 587 507 c 2
 480 0 l 1
 387 0 l 1
 287 241 l 1
 86 0 l 1
 -6 0 l 1
 98 490 l 2
 112 563 178 612 244 612 c 0
 304 612 336 569 336 522 c 0
209 447 m 256
 242 447 272 479 272 508 c 0
 272 531 255 549 230 549 c 256
 197 549 167 517 167 488 c 0
 167 465 184 447 209 447 c 256
EndSplineSet
Validated: 1
EndChar

StartChar: uni0E1D
Encoding: 3613 3613 242
Width: 622
VWidth: 1504
Flags: W
HStem: 0 21G<-6 102.68 378.701 484.203> 384 63<171.53 254.242> 549 63<185.287 267.467>
VStem: 272 64<465.121 543.856>
LayerCount: 2
Fore
SplineSet
209 447 m 256
 242 447 272 479 272 508 c 0
 272 531 255 549 230 549 c 256
 197 549 167 517 167 488 c 0
 167 465 184 447 209 447 c 256
336 522 m 0
 336 454 273 384 196 384 c 0
 181 384 172 384 168 385 c 1
 114 128 l 1
 272 313 l 1
 332 313 l 1
 412 126 l 1
 548 763 l 2
 560 819 583 855 618 872 c 1
 701 838 l 1
 668 823 645 786 633 728 c 2
 480 0 l 1
 387 0 l 1
 287 241 l 1
 86 0 l 1
 -6 0 l 1
 98 490 l 2
 112 563 178 612 244 612 c 0
 304 612 336 569 336 522 c 0
EndSplineSet
Validated: 1
EndChar

StartChar: uni0E1E
Encoding: 3614 3614 243
Width: 725
VWidth: 1504
Flags: W
HStem: 0 21G<89 200.429 475.112 586.221> 384 63<121.167 168.685> 549 63<133.01 215.323>
VStem: 51 65<452.511 531.525> 221 68<464.994 543.322>
LayerCount: 2
Fore
SplineSet
193 612 m 0
 253 612 289 573 289 518 c 0
 289 509 288 500 286 490 c 2
 238 266 l 2
 233 240 216 187 187 107 c 1
 228 198 250 247 254 254 c 2
 429 575 l 1
 486 575 l 1
 522 254 l 2
 523 248 525 199 529 107 c 1
 534 187 540 240 545 266 c 2
 603 542 l 2
 615 598 639 634 674 651 c 1
 757 617 l 1
 724 602 701 565 689 507 c 2
 582 0 l 1
 477 0 l 1
 433 466 l 1
 190 0 l 1
 89 0 l 1
 170 387 l 1
 160 385 151 384 144 384 c 0
 80 384 51 431 51 473 c 0
 51 539 111 612 193 612 c 0
158 447 m 256
 191 447 221 479 221 508 c 0
 221 531 204 549 179 549 c 256
 146 549 116 517 116 488 c 0
 116 465 133 447 158 447 c 256
EndSplineSet
Validated: 1
EndChar

StartChar: uni0E1F
Encoding: 3615 3615 244
Width: 725
VWidth: 1504
Flags: W
HStem: 0 21G<89 200.429 475.112 586.231> 384 63<121.167 168.685> 549 63<133.01 215.323>
VStem: 51 65<452.511 531.525> 221 68<464.994 543.322>
LayerCount: 2
Fore
SplineSet
193 612 m 0
 253 612 289 573 289 518 c 0
 289 509 288 500 286 490 c 2
 238 266 l 2
 233 240 216 187 187 107 c 1
 228 198 250 247 254 254 c 2
 429 575 l 1
 486 575 l 1
 522 254 l 2
 523 248 525 199 529 107 c 1
 534 187 540 240 545 266 c 2
 650 763 l 2
 662 819 686 855 721 872 c 1
 803 838 l 1
 770 823 748 786 736 728 c 2
 582 0 l 1
 477 0 l 1
 433 466 l 1
 190 0 l 1
 89 0 l 1
 170 387 l 1
 160 385 151 384 144 384 c 0
 80 384 51 431 51 473 c 0
 51 539 111 612 193 612 c 0
158 447 m 256
 191 447 221 479 221 508 c 0
 221 531 204 549 179 549 c 256
 146 549 116 517 116 488 c 0
 116 465 133 447 158 447 c 256
EndSplineSet
Validated: 1
EndChar

StartChar: uni0E20
Encoding: 3616 3616 245
Width: 639
VWidth: 1504
Flags: W
HStem: -12 63<34.0001 116.466> 153 62<46.791 124.219> 532 80<287.532 449.828>
VStem: -35 64<56.2567 134.778> 490 96<366.844 493.033>
LayerCount: 2
Fore
SplineSet
71 51 m 256
 104 51 133 81 133 114 c 0
 133 137 115 153 92 153 c 256
 56 153 29 119 29 92 c 0
 29 69 46 51 71 51 c 256
391 612 m 0
 541 612 586 522 586 447 c 0
 586 431 584 414 581 397 c 2
 511 71 l 2
 499 14 476 -24 441 -41 c 1
 367 0 l 1
 396 17 416 52 426 105 c 2
 487 399 l 2
 489 410 490 420 490 430 c 0
 490 491 446 532 376 532 c 0
 315 532 265 507 226 456 c 1
 273 446 301 423 311 388 c 1
 231 349 215 326 204 190 c 0
 198 113 194 64 143 21 c 0
 117 -1 88 -12 57 -12 c 0
 -0 -12 -35 27 -35 77 c 0
 -35 146 31 215 102 215 c 0
 114 215 121 214 123 211 c 1
 134 304 l 2
 142 339 165 366 203 385 c 1
 185 398 164 405 138 405 c 0
 131 405 122 404 114 403 c 1
 141 511 238 612 391 612 c 0
EndSplineSet
Validated: 1
EndChar

StartChar: uni0E21
Encoding: 3617 3617 246
Width: 627
VWidth: 1504
Flags: W
HStem: -12 71<70.6336 152.099> 0 21G<367.5 488.221> 161 69<82.016 153> 384 63<137.456 185.466> 549 63<150.146 232.781>
VStem: -6 71<63.8743 143.678> 68 65<452.019 532.824> 237 68<463.293 544.322>
LayerCount: 2
Fore
SplineSet
174 447 m 256x3f
 210 447 237 478 237 510 c 0
 237 533 219 549 196 549 c 256
 160 549 133 518 133 486 c 0
 133 463 151 447 174 447 c 256x3f
107 59 m 256xbf
 140 59 169 89 169 122 c 0
 169 145 151 161 128 161 c 256
 95 161 65 129 65 100 c 0
 65 77 82 59 107 59 c 256xbf
209 612 m 0
 268 612 305 574 305 520 c 0
 305 510 304 500 302 490 c 2
 241 205 l 1
 315 178 372 142 411 98 c 1
 505 542 l 2
 517 598 541 634 576 651 c 1
 659 617 l 1
 626 602 603 565 591 507 c 2
 484 0 l 1
 391 0 l 1
 344 52 293 89 238 110 c 1
 234 95 229 56 182 21 c 0x7f
 153 -1 123 -12 92 -12 c 0
 26 -12 -6 38 -6 83 c 0
 -6 165 69 230 143 230 c 2
 153 230 l 1
 187 387 l 1
 176 385 168 384 161 384 c 0
 103 384 68 425 68 472 c 0
 68 543 132 612 209 612 c 0
EndSplineSet
Validated: 1
EndChar

StartChar: uni0E22
Encoding: 3618 3618 247
Width: 580
VWidth: 1504
Flags: W
HStem: -12 80<136.507 332.538> 287 74<182.772 308> 411 51<190.673 271.583> 558 54<203.303 283.195>
VStem: 21 96<88.5503 228.271> 79 97<365.982 418> 287 56<476.372 553.728>
LayerCount: 2
Fore
SplineSet
227 462 m 256xf2
 263 462 287 493 287 521 c 0
 287 543 271 558 247 558 c 256
 211 558 188 527 188 497 c 0
 188 476 204 462 227 462 c 256xf2
343 534 m 0
 343 475 291 411 217 411 c 0
 201 411 187 413 176 418 c 1xf6
 176 380 190 361 218 361 c 2
 325 361 l 1
 308 287 l 1
 202 287 l 2
 166 287 139 251 132 218 c 2
 119 149 l 2
 118 142 117 136 117 130 c 0
 117 89 154 68 229 68 c 0
 315 68 364 95 376 149 c 2
 459 542 l 2
 471 598 494 634 529 651 c 1
 612 617 l 1
 579 602 557 565 545 507 c 2
 469 152 l 2
 446 43 360 -12 212 -12 c 0
 113 -12 21 13 21 111 c 0xfa
 21 124 23 137 26 152 c 2
 41 221 l 2
 51 269 78 303 123 323 c 1
 94 347 79 378 79 418 c 0xf6
 79 504 140 612 254 612 c 0
 308 612 343 581 343 534 c 0
EndSplineSet
Validated: 1
EndChar

StartChar: uni0E23
Encoding: 3619 3619 248
Width: 494
VWidth: 1504
Flags: W
HStem: -12 63<199.402 281.186> 153 64<212.271 293.575> 505 79<310.372 447.338> 532 80<190.184 360.726>
VStem: 128 67<56.3031 135.616> 320 94<310.556 367.799>
LayerCount: 2
Fore
SplineSet
403 505 m 0xec
 352 505 304 532 256 532 c 0
 212 532 183 515 170 481 c 1
 243 465 304 448 353 430 c 0
 394 415 414 391 414 357 c 0
 414 351 414 344 412 337 c 2
 363 101 l 2
 348 35 286 -12 223 -12 c 256
 165 -12 128 26 128 75 c 0
 128 148 194 217 271 217 c 0
 283 217 290 216 293 215 c 1
 320 344 l 2
 320 347 l 0
 320 363 292 387 57 429 c 1
 79 513 137 612 257 612 c 0xdc
 316 612 369 584 417 584 c 0
 439 584 454 606 462 651 c 1
 531 632 l 1
 506 547 463 505 403 505 c 0xec
236 51 m 256
 269 51 299 83 299 112 c 0
 299 135 282 153 257 153 c 256
 224 153 195 123 195 90 c 0
 195 67 213 51 236 51 c 256
EndSplineSet
Validated: 1
EndChar

StartChar: uni0E24
Encoding: 3620 3620 249
Width: 588
VWidth: 1504
Flags: W
HStem: -12 62<104.102 186.772> 152 63<146.648 200.046> 532 80<241.563 403.364>
VStem: 29 71<54.3333 135.391> 204 62<67.5321 147.553> 440 96<330.312 497.406>
LayerCount: 2
Fore
SplineSet
341 612 m 0
 502 612 536 517 536 453 c 0
 536 436 533 417 529 397 c 2
 411 -161 l 2
 399 -218 375 -255 340 -272 c 1
 266 -232 l 1
 295 -215 315 -179 325 -126 c 2
 436 399 l 2
 439 412 440 424 440 435 c 0
 440 475 418 532 328 532 c 0
 268 532 217 507 174 456 c 1
 219 447 248 424 260 388 c 1
 203 358 170 322 161 280 c 2
 146 209 l 1
 154 213 164 215 176 215 c 0
 230 215 266 179 266 130 c 0
 266 57 203 -12 125 -12 c 0
 67 -12 29 26 29 81 c 0
 29 90 30 100 32 110 c 2
 69 286 l 2
 78 328 106 361 152 385 c 1
 136 398 114 405 88 405 c 0
 80 405 72 404 63 403 c 1
 94 522 202 612 341 612 c 0
141 50 m 256
 172 50 204 78 204 113 c 0
 204 135 187 152 162 152 c 256
 129 152 100 122 100 89 c 0
 100 66 118 50 141 50 c 256
EndSplineSet
Validated: 1
EndChar

StartChar: uni0E25
Encoding: 3621 3621 250
Width: 600
VWidth: 1504
Flags: W
HStem: -11 64<106.278 188.514> 155 63<143.057 199.663> 532 80<230.869 421.711>
VStem: 30 71<57.924 137.038> 206 68<71.7061 149.306> 459 93<407.522 499.296>
LayerCount: 2
Fore
SplineSet
347 612 m 0
 460 612 552 562 552 466 c 0
 552 456 551 444 548 430 c 2
 478 101 l 2
 463 26 444 -17 420 -30 c 1
 347 3 l 1
 370 30 381 67 381 114 c 0
 381 210 326 319 277 352 c 1
 218 345 161 282 143 218 c 1
 177 218 l 2
 233 218 274 174 274 123 c 0
 274 39 194 -11 128 -11 c 0
 69 -11 30 25 30 80 c 0
 30 194 63 283 128 347 c 0
 179 398 235 424 296 424 c 1
 347 392 384 351 406 301 c 1
 433 202 l 1
 432 223 432 242 432 259 c 0
 432 289 433 313 436 331 c 2
 457 441 l 2
 458 447 459 449 459 454 c 0
 459 508 390 532 328 532 c 0
 240 532 173 487 149 424 c 1
 59 424 l 1
 90 537 199 612 347 612 c 0
143 53 m 256
 176 53 206 85 206 114 c 0
 206 137 189 155 164 155 c 256
 131 155 101 123 101 94 c 0
 101 71 118 53 143 53 c 256
EndSplineSet
Validated: 1
EndChar

StartChar: uni0E26
Encoding: 3622 3622 251
Width: 639
VWidth: 1504
Flags: W
HStem: -12 63<34.0001 116.466> 153 62<46.791 124.219> 532 80<287.532 449.828>
VStem: -35 64<56.2567 134.778> 490 96<366.763 493.033>
LayerCount: 2
Fore
SplineSet
71 51 m 256
 104 51 133 81 133 114 c 0
 133 137 115 153 92 153 c 256
 56 153 29 119 29 92 c 0
 29 69 46 51 71 51 c 256
391 612 m 0
 541 612 586 522 586 447 c 0
 586 431 584 414 581 397 c 2
 462 -161 l 2
 450 -218 426 -255 391 -272 c 1
 317 -232 l 1
 346 -215 366 -179 376 -126 c 2
 487 399 l 2
 489 410 490 420 490 430 c 0
 490 491 446 532 376 532 c 0
 315 532 265 507 226 456 c 1
 273 446 301 423 311 388 c 1
 231 349 215 326 204 190 c 0
 198 113 194 64 143 21 c 0
 117 -1 88 -12 57 -12 c 0
 -0 -12 -35 27 -35 77 c 0
 -35 146 31 215 102 215 c 0
 114 215 121 214 123 211 c 1
 134 304 l 2
 142 339 165 366 203 385 c 1
 180 396 152 402 120 402 c 0
 114 402 l 1
 141 511 238 612 391 612 c 0
EndSplineSet
Validated: 1
EndChar

StartChar: uni0E27
Encoding: 3623 3623 252
Width: 570
VWidth: 1504
Flags: W
HStem: -11 64<280.3 362.737> 155 62<292.8 376.047> 532 80<225.591 404.406>
VStem: 53 90<403 453.182> 211 65<58.2338 138.712> 429 94<405.06 505.767>
LayerCount: 2
Fore
SplineSet
325 612 m 0
 490 612 523 530 523 476 c 0
 523 462 521 446 517 430 c 2
 450 110 l 2
 435 39 372 -11 304 -11 c 0
 245 -11 211 30 211 76 c 0
 211 143 272 217 352 217 c 0
 363 217 372 216 379 215 c 1
 426 436 l 2
 428 444 429 452 429 460 c 0
 429 508 389 532 308 532 c 0
 232 532 161 483 143 403 c 1
 53 403 l 1
 85 528 183 612 325 612 c 0
317 53 m 256
 348 53 380 81 380 116 c 0
 380 138 363 155 338 155 c 256
 305 155 276 125 276 92 c 0
 276 69 294 53 317 53 c 256
EndSplineSet
Validated: 1
EndChar

StartChar: uni0E28
Encoding: 3624 3624 253
Width: 606
VWidth: 1504
Flags: W
HStem: 0 21G<30 133.5> 260 53<264.618 343.728> 405 51<277.935 355.776> 532 80<251.843 415.019>
VStem: 358 56<326.782 402.144> 460 94<379.03 489.601>
LayerCount: 2
Fore
SplineSet
60 194 m 0
 60 240 54 275 54 310 c 0
 54 395 84 467 143 525 c 0
 202 583 275 612 360 612 c 0
 399 612 433 605 463 591 c 1
 503 632 540 659 575 672 c 1
 642 627 l 1
 602 610 563 582 526 543 c 1
 545 518 554 488 554 453 c 0
 554 437 552 422 549 408 c 2
 478 71 l 2
 466 14 443 -24 408 -41 c 1
 334 0 l 1
 362 17 382 52 393 105 c 2
 457 411 l 2
 459 420 460 427 460 433 c 0
 460 495 400 532 335 532 c 0
 242 532 171 456 153 381 c 0
 147 345 151 307 141 259 c 2
 132 220 l 1
 161 296 l 2
 214 403 271 456 332 456 c 0
 380 456 414 422 414 378 c 0
 414 307 344 260 290 260 c 0
 266 260 246 269 229 287 c 1
 180 196 144 100 123 0 c 1
 30 0 l 1
 50 96 l 2
 57 130 60 163 60 194 c 0
301 313 m 0
 329 313 358 338 358 369 c 0
 358 393 345 405 320 405 c 0
 292 405 263 378 263 347 c 0
 263 324 276 313 301 313 c 0
EndSplineSet
Validated: 1
EndChar

StartChar: uni0E29
Encoding: 3625 3625 254
Width: 693
VWidth: 1504
Flags: W
HStem: -12 80<235.093 440.951> 223 82<339.986 472.439> 384 63<121.167 168.685> 399 49<351.386 427.131> 549 63<133.01 215.323>
VStem: 51 65<452.511 531.525> 113 97<93.4688 165.947> 221 68<466.307 543.322> 281 56<308.179 384.562> 430 57<318.544 396.704>
LayerCount: 2
Fore
SplineSet
158 447 m 256xed40
 191 447 221 479 221 508 c 0
 221 531 204 549 179 549 c 256
 146 549 116 517 116 488 c 0
 116 465 133 447 158 447 c 256xed40
375 305 m 256
 408 305 430 337 430 363 c 0
 430 378 423 399 394 399 c 256
 361 399 337 367 337 341 c 0xd8c0
 337 320 352 305 375 305 c 256
487 376 m 0
 487 354 478 307 438 283 c 1
 466 285 493 290 520 298 c 1
 572 542 l 2
 584 598 607 634 642 651 c 1
 725 617 l 1
 692 602 669 565 657 507 c 2
 624 350 l 1
 643 365 660 384 674 406 c 1
 713 356 l 1
 687 324 652 295 608 269 c 1
 579 135 l 2
 558 37 471 -12 317 -12 c 0
 178 -12 113 28 113 108 c 0xdac0
 113 117 115 126 117 135 c 2
 170 387 l 1
 160 385 151 384 144 384 c 0
 80 384 51 431 51 473 c 0xec40
 51 539 111 612 193 612 c 0
 253 612 289 573 289 518 c 0
 289 509 288 500 286 490 c 2
 211 140 l 2
 210 137 210 134 210 130 c 0xeb40
 210 105 233 68 332 68 c 0
 423 68 478 100 486 140 c 2
 505 230 l 1
 481 225 460 223 441 223 c 0
 334 223 281 254 281 317 c 0
 281 382 328 448 408 448 c 0
 469 448 487 405 487 376 c 0
EndSplineSet
Validated: 1
EndChar

StartChar: uni0E2A
Encoding: 3626 3626 255
Width: 600
VWidth: 1504
Flags: W
HStem: -11 64<106.278 188.514> 155 63<143.057 199.663> 532 80<230.869 421.677>
VStem: 30 71<57.924 137.038> 206 68<71.7061 149.306> 459 93<407.522 499.296>
LayerCount: 2
Fore
SplineSet
59 424 m 1
 90 537 199 612 347 612 c 0
 390 612 428 605 462 590 c 1
 505 635 542 662 575 672 c 1
 642 627 l 1
 600 610 561 582 526 543 c 1
 543 521 552 495 552 466 c 0
 552 456 551 444 548 430 c 2
 478 101 l 2
 463 26 444 -17 420 -30 c 1
 347 3 l 1
 370 30 381 67 381 114 c 0
 381 210 326 319 277 352 c 1
 218 345 161 282 143 218 c 1
 177 218 l 2
 233 218 274 174 274 123 c 0
 274 39 194 -11 128 -11 c 0
 69 -11 30 25 30 80 c 0
 30 194 63 283 128 347 c 0
 179 398 235 424 296 424 c 1
 347 392 384 351 406 301 c 1
 433 202 l 1
 432 223 432 242 432 259 c 0
 432 289 433 313 436 331 c 2
 457 441 l 2
 458 446 459 450 459 454 c 0
 459 508 390 532 328 532 c 0
 240 532 173 487 149 424 c 1
 59 424 l 1
143 53 m 256
 176 53 206 85 206 114 c 0
 206 137 189 155 164 155 c 256
 131 155 101 123 101 94 c 0
 101 71 118 53 143 53 c 256
EndSplineSet
Validated: 1
EndChar

StartChar: uni0E2B
Encoding: 3627 3627 256
Width: 658
VWidth: 1504
Flags: W
HStem: 0 21G<89 191.786> 384 63<121.167 168.685> 549 63<133.01 215.323 494.01 577.027>
VStem: 51 65<452.511 531.525> 221 68<464.994 543.322> 412 65<452.074 531.652> 496 93<302.569 374.578> 582 65<464.972 544.061>
LayerCount: 2
Fore
SplineSet
647 524 m 0xfd
 647 501 640 454 584 411 c 1
 588 398 589 384 589 369 c 0
 589 356 588 343 585 329 c 2
 531 71 l 2
 519 14 495 -24 460 -41 c 1
 387 0 l 1
 416 17 435 52 445 105 c 2
 493 334 l 2
 495 343 496 350 496 356 c 0xfe
 496 369 492 375 484 375 c 0
 476 375 462 362 442 337 c 2
 176 0 l 1
 89 0 l 1
 170 387 l 1
 160 385 151 384 144 384 c 0
 80 384 51 431 51 473 c 0
 51 539 111 612 193 612 c 0
 253 612 289 573 289 518 c 0
 289 509 288 500 286 490 c 2
 238 266 l 2
 233 240 216 187 187 107 c 1
 206 150 229 189 256 226 c 2
 370 369 l 2
 394 399 414 416 429 420 c 1
 418 438 412 456 412 475 c 0
 412 538 472 612 554 612 c 256
 611 612 647 573 647 524 c 0xfd
158 447 m 256
 191 447 221 479 221 508 c 0
 221 531 204 549 179 549 c 256
 146 549 116 517 116 488 c 0
 116 465 133 447 158 447 c 256
519 447 m 256
 552 447 582 479 582 508 c 0xfd
 582 531 565 549 540 549 c 256
 507 549 477 517 477 488 c 0
 477 465 494 447 519 447 c 256
EndSplineSet
Validated: 1
EndChar

StartChar: uni0E2C
Encoding: 3628 3628 257
Width: 703
VWidth: 1504
Flags: W
HStem: 0 21G<89 199.627 459.657 565.245> 384 63<121.167 168.685 500.167 547.685> 549 63<133.01 215.323 512.01 595.266>
VStem: 51 65<452.511 531.525> 221 68<465.994 543.322> 430 65<452.511 531.525> 600 68<465.76 544.327>
LayerCount: 2
Fore
SplineSet
430 473 m 0
 430 539 490 612 572 612 c 0
 590 612 606 608 620 600 c 1
 652 633 686 657 722 672 c 1
 790 627 l 1
 731 602 689 575 663 545 c 1
 666 535 668 525 668 515 c 0
 668 507 667 499 665 490 c 2
 561 0 l 1
 466 0 l 1
 381 268 l 1
 185 0 l 1
 89 0 l 1
 170 387 l 1
 160 385 151 384 144 384 c 0
 80 384 51 431 51 473 c 0
 51 539 111 612 193 612 c 0
 253 612 289 573 289 518 c 0
 289 509 288 500 286 490 c 2
 235 250 l 2
 228 219 211 169 185 102 c 1
 199 126 215 150 233 174 c 2
 361 332 l 1
 427 332 l 1
 489 174 l 2
 497 150 503 126 507 102 c 1
 509 169 513 219 520 250 c 2
 549 387 l 1
 539 385 530 384 523 384 c 0
 459 384 430 431 430 473 c 0
537 447 m 256
 570 447 600 479 600 508 c 0
 600 531 583 549 558 549 c 256
 525 549 495 517 495 488 c 0
 495 465 512 447 537 447 c 256
158 447 m 256
 191 447 221 479 221 508 c 0
 221 531 204 549 179 549 c 256
 146 549 116 517 116 488 c 0
 116 465 133 447 158 447 c 256
EndSplineSet
Validated: 513
Substitution2: "Single Substitution lookup 42 subtable" uni0E2C.alt1
Substitution2: "Single Substitution lookup 42 subtable" uni0E2C.alt1
EndChar

StartChar: uni0E2D
Encoding: 3629 3629 258
Width: 592
VWidth: 1504
Flags: W
HStem: -12 80<156.514 344.414> 190 61<150.535 232.45> 353 62<162.922 244.233> 532 80<204.6 417.959>
VStem: 43 96<87.1624 165.4> 249 65<266.953 348.739> 450 95<403.889 499.997>
LayerCount: 2
Fore
SplineSet
335 612 m 0
 450 612 545 575 545 473 c 0
 545 459 543 445 540 430 c 2
 478 135 l 2
 458 38 354 -12 229 -12 c 256
 135 -12 43 16 43 102 c 0
 43 112 44 123 47 135 c 2
 78 287 l 2
 91 346 135 415 221 415 c 0
 277 415 314 378 314 329 c 0
 314 255 247 190 173 190 c 0
 164 190 157 191 152 193 c 1
 141 146 l 2
 140 140 139 134 139 129 c 0
 139 88 175 68 247 68 c 0
 329 68 376 94 387 147 c 2
 448 436 l 2
 450 443 450 450 450 456 c 0
 450 512 388 532 326 532 c 0
 231 532 174 508 155 459 c 1
 65 459 l 1
 100 560 190 611 335 612 c 0
187 251 m 256
 220 251 249 281 249 314 c 0
 249 337 231 353 208 353 c 256
 177 353 145 325 145 290 c 0
 145 268 162 251 187 251 c 256
EndSplineSet
Validated: 1
EndChar

StartChar: uni0E2E
Encoding: 3630 3630 259
Width: 579
VWidth: 1504
Flags: W
HStem: -12 80<142.678 330.654> 161 62<130.971 211.701> 325 62<142.074 225.027> 423 61<177.643 379.491> 546 68<190.608 410.728>
VStem: 30 96<86.6143 162.922> 88 89<467.5 529.874> 230 65<240.531 319.716>
LayerCount: 2
Fore
SplineSet
295 299 m 0xfd
 295 226 229 161 153 161 c 0
 144 161 137 162 132 164 c 1
 128 146 l 2
 126 138 126 131 126 124 c 0xfd
 126 87 164 68 233 68 c 0
 315 68 362 94 373 147 c 2
 444 477 l 1
 403 441 342 423 263 423 c 0
 146 423 88 445 88 490 c 0xfb
 88 539 132 614 334 614 c 0
 378 614 416 606 447 591 c 1
 481 627 518 654 558 672 c 1
 626 627 l 1
 573 604 534 576 510 543 c 1
 523 523 530 498 530 468 c 0
 530 455 529 441 526 426 c 2
 465 135 l 2
 444 37 341 -12 215 -12 c 256
 121 -12 30 16 30 103 c 0
 30 113 31 124 33 135 c 2
 59 259 l 2
 72 318 116 387 202 387 c 0
 259 387 295 349 295 299 c 0xfd
307 546 m 0
 203 546 177 522 177 506 c 0xfb
 177 491 213 484 284 484 c 0
 345 484 387 501 412 534 c 1
 381 542 346 546 307 546 c 0
167 223 m 256
 200 223 230 255 230 284 c 0
 230 307 213 325 188 325 c 256
 155 325 125 293 125 264 c 0
 125 241 142 223 167 223 c 256
EndSplineSet
Validated: 1
EndChar

StartChar: uni0E2F
Encoding: 3631 3631 260
Width: 571
VWidth: 1504
Flags: W
HStem: 375 70<141.991 223.652> 548 64<155.362 236.157> 580 20G<374.5 479>
VStem: 72 65<449.361 529.566> 242 65<474.605 542.693> 438 97<460.312 530.232>
LayerCount: 2
Fore
SplineSet
177 445 m 256xdc
 215 445 242 479 242 506 c 0
 242 527 227 548 200 548 c 256
 168 548 137 516 137 485 c 0
 137 471 145 445 177 445 c 256xdc
214 612 m 256
 275 612 307 569 307 520 c 0
 307 492 300 482 296 474 c 1
 335 499 365 541 384 600 c 1
 451 600 l 2xbc
 507 600 535 576 535 528 c 0
 535 517 534 505 531 492 c 2
 442 71 l 2
 430 14 407 -24 372 -41 c 1
 298 0 l 1
 327 17 346 52 356 105 c 2
 433 474 l 2
 437 490 438 503 438 512 c 0
 438 524 436 530 430 531 c 1
 401 432 285 375 191 375 c 0
 107 375 72 424 72 469 c 0
 72 543 135 612 214 612 c 256
EndSplineSet
Validated: 1
EndChar

StartChar: uni0E30
Encoding: 3632 3632 261
Width: 511
VWidth: 1504
Flags: W
HStem: 17 70<182 260.08> 194 57<77.1619 154.853> 358 71<254 335.635> 535 58<150.083 227.224>
VStem: 6 58<104.661 180.512> 78 59<446.519 522.151> 158 62<114.932 191.035> 231 62<456.593 531.844>
LayerCount: 2
Fore
SplineSet
293 512 m 0
 293 483 280 447 254 429 c 1
 349 433 407 489 430 597 c 1
 514 597 l 1
 475 438 384 358 239 358 c 0
 105 358 78 421 78 464 c 0
 78 532 137 593 206 593 c 0
 275 593 293 541 293 512 c 0
173 444 m 256
 201 444 231 466 231 497 c 0
 231 510 223 535 193 535 c 256
 162 535 137 510 137 478 c 0
 137 464 144 444 173 444 c 256
220 171 m 0
 220 141 208 106 182 87 c 1
 276 91 335 147 358 256 c 1
 442 256 l 1
 403 97 312 17 167 17 c 0
 32 17 6 81 6 124 c 0
 6 191 66 251 134 251 c 0
 202 251 220 201 220 171 c 0
101 102 m 256
 130 102 158 126 158 159 c 0
 158 173 148 194 120 194 c 256
 91 194 64 167 64 138 c 0
 64 124 72 102 101 102 c 256
EndSplineSet
Validated: 1
EndChar

StartChar: uni0E31
Encoding: 3633 3633 262
Width: 0
VWidth: 1504
Flags: W
HStem: 718 70<-93 -1.71875> 895 57<-198.13 -120.163>
VStem: -271 59<806.142 880.327> -117 61<815.902 891.395>
LayerCount: 2
Fore
SplineSet
-56 871 m 0
 -56 842 -68 807 -93 788 c 1
 11 792 84 852 125 967 c 1
 214 967 l 1
 153 801 45 718 -108 718 c 0
 -243 718 -271 781 -271 823 c 0
 -271 884 -215 952 -141 952 c 0
 -73 952 -56 900 -56 871 c 0
-174 803 m 256
 -145 803 -117 827 -117 860 c 0
 -117 874 -127 895 -155 895 c 256
 -186 895 -212 865 -212 840 c 0
 -212 825 -204 803 -174 803 c 256
EndSplineSet
Validated: 1
Substitution2: "Single Substitution lookup 42 subtable" uni0E31.alt1
Substitution2: "Single Substitution lookup 42 subtable" uni0E31.alt1
EndChar

StartChar: uni0E32
Encoding: 3634 3634 263
Width: 515
VWidth: 1504
Flags: W
HStem: 532 80<212.625 352.478>
VStem: 56 90<415 465.301> 375 96<407.964 510.817>
LayerCount: 2
Fore
SplineSet
302 612 m 0
 392 612 471 574 471 483 c 0
 471 469 469 455 466 439 c 2
 388 71 l 2
 376 14 352 -24 317 -41 c 1
 244 0 l 1
 273 17 292 52 302 105 c 2
 372 438 l 2
 374 446 375 453 375 460 c 0
 375 489 359 532 286 532 c 256
 215 532 161 480 146 415 c 1
 56 415 l 1
 86 527 173 612 302 612 c 0
EndSplineSet
Validated: 1
EndChar

StartChar: uni0E34
Encoding: 3636 3636 265
Width: 0
VWidth: 1504
Flags: W
HStem: 728 21G<-448.5 -444> 737 59<-365.756 -131.752> 869 61<-305.04 -129.144>
LayerCount: 2
Fore
SplineSet
-206 930 m 0xa0
 -37 930 5 813 5 716 c 0
 5 703 4 690 3 677 c 1
 -111 717 -220 737 -323 737 c 0x60
 -370 737 -419 734 -469 728 c 1
 -428 863 -341 930 -206 930 c 0xa0
-72 766 m 1
 -74 805 -118 869 -208 869 c 0
 -282 869 -344 837 -367 790 c 1
 -349 794 -322 796 -286 796 c 0
 -211 796 -140 786 -72 766 c 1
EndSplineSet
Validated: 1
Substitution2: "Single Substitution lookup 42 subtable" uni0E34.alt1
Substitution2: "Single Substitution lookup 42 subtable" uni0E34.alt1
EndChar

StartChar: uni0E35
Encoding: 3637 3637 266
Width: 0
VWidth: 1504
Flags: W
HStem: 728 21G<-448.5 -444> 737 59<-365.756 -131.752> 869 61<-305.04 -128.493>
LayerCount: 2
Fore
SplineSet
3 677 m 1xa0
 -111 717 -220 737 -323 737 c 0x60
 -370 737 -419 734 -469 728 c 1
 -428 863 -341 930 -206 930 c 0
 -135 930 -82 910 -47 871 c 1
 -26 975 l 1
 63 975 l 1
 5 698 l 1
 5 691 4 684 3 677 c 1xa0
-72 766 m 1
 -74 805 -118 869 -208 869 c 0
 -282 869 -344 837 -367 790 c 1
 -349 794 -322 796 -286 796 c 0
 -211 796 -140 786 -72 766 c 1
EndSplineSet
Validated: 1
Substitution2: "Single Substitution lookup 42 subtable" uni0E35.alt1
Substitution2: "Single Substitution lookup 42 subtable" uni0E35.alt1
EndChar

StartChar: uni0E36
Encoding: 3638 3638 267
Width: 0
VWidth: 1504
Flags: W
HStem: 728 21G<-448.5 -444> 737 59<-365.756 -131.752> 869 61<-305.04 -127.858> 943 47<-52.6509 19.6092>
VStem: 22 48<867.872 940.963>
LayerCount: 2
Fore
SplineSet
-72 766 m 1x78
 -74 805 -118 869 -208 869 c 0
 -282 869 -344 837 -367 790 c 1
 -349 794 -322 796 -286 796 c 0
 -211 796 -140 786 -72 766 c 1x78
-29 857 m 256
 -2 857 22 882 22 908 c 0
 22 927 9 943 -11 943 c 0
 -34 943 -65 922 -65 889 c 0
 -65 874 -51 857 -29 857 c 256
70 918 m 0
 70 878 36 826 -12 814 c 1
 -1 785 5 752 5 716 c 0
 5 703 4 690 3 677 c 1
 -111 717 -220 737 -323 737 c 0x78
 -370 737 -419 734 -469 728 c 1xb8
 -428 863 -341 930 -206 930 c 0
 -167 930 -133 924 -105 912 c 1
 -90 953 -51 990 -2 990 c 0
 43 990 70 957 70 918 c 0
EndSplineSet
Validated: 1
Substitution2: "Single Substitution lookup 42 subtable" uni0E36.alt1
Substitution2: "Single Substitution lookup 42 subtable" uni0E36.alt1
EndChar

StartChar: uni0E37
Encoding: 3639 3639 268
Width: 0
VWidth: 1504
Flags: W
HStem: 728 21G<-448.5 -444> 737 59<-365.756 -131.752> 869 61<-305.04 -163.905>
LayerCount: 2
Fore
SplineSet
3 677 m 1xa0
 -111 717 -220 737 -323 737 c 0x60
 -370 737 -419 734 -469 728 c 1
 -428 863 -341 930 -206 930 c 0
 -191 930 -178 929 -165 927 c 1
 -155 975 l 1
 -87 975 l 1
 -101 912 l 1
 -81 903 -63 889 -47 871 c 1
 -26 975 l 1
 63 975 l 1
 5 698 l 1
 3 677 l 1xa0
-72 766 m 1
 -74 805 -118 869 -208 869 c 0
 -282 869 -344 837 -367 790 c 1
 -349 794 -322 796 -286 796 c 0
 -211 796 -140 786 -72 766 c 1
EndSplineSet
Validated: 1
Substitution2: "Single Substitution lookup 42 subtable" uni0E37.alt1
Substitution2: "Single Substitution lookup 42 subtable" uni0E37.alt1
EndChar

StartChar: uni0E38
Encoding: 3640 3640 269
Width: 0
VWidth: 1504
Flags: W
HStem: -239 51<-304.736 -275> -105 46<-298.503 -227.38>
VStem: -363 54<-185.937 -115.075> -225 53<-176.7 -106.835>
LayerCount: 2
Fore
SplineSet
-275 -188 m 256
 -252 -188 -225 -164 -225 -138 c 0
 -225 -120 -238 -105 -257 -105 c 256
 -280 -105 -309 -124 -309 -154 c 0
 -309 -164 -302 -188 -275 -188 c 256
-250 -59 m 0
 -205 -59 -172 -86 -172 -127 c 0
 -172 -134 -172 -141 -174 -149 c 2
 -205 -296 l 2
 -217 -353 -240 -391 -275 -408 c 1
 -341 -370 l 1
 -316 -353 -298 -326 -287 -290 c 2
 -275 -238 l 1
 -289 -239 l 2
 -340 -239 -363 -201 -363 -169 c 0
 -363 -120 -315 -59 -250 -59 c 0
EndSplineSet
Validated: 1
Substitution2: "Single Substitution lookup 41 subtable" a
Substitution2: "Single Substitution lookup 42 subtable" uni0E38.alt1
Substitution2: "Single Substitution lookup 41 subtable" a
Substitution2: "Single Substitution lookup 42 subtable" uni0E38.alt1
EndChar

StartChar: uni0E39
Encoding: 3641 3641 270
Width: 0
VWidth: 1504
Flags: W
HStem: -372 65<-382.658 -290.657> -239 51<-485.717 -460> -105 46<-480.102 -407.113>
VStem: -544 54<-185.7 -116.382> -473 89<-305.087 -251.414> -405 52<-176.784 -106.761>
LayerCount: 2
Fore
SplineSet
-430 -59 m 0xf8
 -388 -59 -353 -85 -353 -127 c 0xf4
 -353 -134 -353 -141 -355 -149 c 2
 -384 -284 l 1
 -384 -288 l 2
 -384 -301 -371 -307 -343 -307 c 0
 -311 -307 -293 -299 -290 -284 c 2
 -265 -164 l 2
 -253 -107 -229 -70 -194 -53 c 1
 -128 -90 l 1
 -153 -107 -170 -134 -179 -170 c 2
 -200 -274 l 2
 -214 -336 -276 -372 -358 -372 c 0
 -422 -372 -473 -343 -473 -299 c 0
 -473 -295 -472 -289 -471 -284 c 2
 -460 -239 l 1
 -469 -239 l 2
 -516 -239 -544 -207 -544 -168 c 0
 -544 -120 -495 -59 -430 -59 c 0xf8
-456 -188 m 256
 -432 -188 -405 -165 -405 -138 c 0
 -405 -126 -412 -105 -438 -105 c 256
 -459 -105 -490 -124 -490 -153 c 0
 -490 -171 -476 -188 -456 -188 c 256
EndSplineSet
Validated: 1
Substitution2: "Single Substitution lookup 41 subtable" b
Substitution2: "Single Substitution lookup 42 subtable" uni0E39.alt1
Substitution2: "Single Substitution lookup 41 subtable" b
Substitution2: "Single Substitution lookup 42 subtable" uni0E39.alt1
EndChar

StartChar: uni0E3A
Encoding: 3642 3642 271
Width: 0
VWidth: 1504
Flags: W
HStem: -167 105<-234.031 -163.148>
VStem: -252 107<-148.358 -80.375>
LayerCount: 2
Fore
SplineSet
-145 -102 m 0
 -145 -137 -178 -167 -209 -167 c 256
 -235 -167 -252 -146 -252 -125 c 0
 -252 -90 -218 -62 -187 -62 c 256
 -161 -62 -145 -80 -145 -102 c 0
EndSplineSet
Validated: 1
Substitution2: "Single Substitution lookup 41 subtable" c
Substitution2: "Single Substitution lookup 42 subtable" uni0E3A.alt1
Substitution2: "Single Substitution lookup 41 subtable" c
Substitution2: "Single Substitution lookup 42 subtable" uni0E3A.alt1
EndChar

StartChar: uni0E3F
Encoding: 3647 3647 272
Width: 585
VWidth: 1504
Flags: W
HStem: 32 79<143.881 176 260 311.462> 335 83<208 365.875> 606 80<246.583 314 397 408.42>
VStem: 402 88<184.672 302.401> 435 92<472.392 579.627>
LayerCount: 2
Fore
SplineSet
527 557 m 0xe8
 527 518 516 439 423 379 c 1
 467 349 490 310 490 262 c 0xf0
 490 219 468 69 260 38 c 1
 235 -84 l 1
 152 -84 l 1
 176 32 l 1
 141 32 95 37 39 47 c 1
 170 665 l 1
 231 678 279 685 314 686 c 1
 335 785 l 1
 418 785 l 1
 397 681 l 1
 483 667 527 626 527 557 c 0xe8
199 111 m 0
 318 111 402 167 402 252 c 0
 402 307 354 335 257 335 c 2
 190 335 l 1
 143 116 l 1
 159 113 178 111 199 111 c 0
290 418 m 2
 395 418 435 487 435 534 c 0xe8
 435 582 392 606 305 606 c 0
 299 606 279 604 245 599 c 1
 208 418 l 1
 290 418 l 2
EndSplineSet
Validated: 1
EndChar

StartChar: uni0E40
Encoding: 3648 3648 273
Width: 312
VWidth: 1504
Flags: W
HStem: -12 63<99.5542 182.82> 153 64<144.284 194.554>
VStem: 26 69<56.2103 132.881> 200 65<68.8703 147.459>
LayerCount: 2
Fore
SplineSet
265 127 m 0
 265 56 197 -12 123 -12 c 0
 64 -12 26 26 26 81 c 0
 26 90 27 100 29 110 c 2
 120 542 l 2
 132 598 156 634 191 651 c 1
 274 617 l 1
 241 602 218 565 206 507 c 2
 144 214 l 1
 149 216 158 217 171 217 c 0
 228 217 265 175 265 127 c 0
137 51 m 256
 170 51 200 83 200 112 c 0
 200 135 183 153 158 153 c 256
 125 153 95 121 95 92 c 0
 95 69 112 51 137 51 c 256
EndSplineSet
Validated: 1
EndChar

StartChar: uni0E41
Encoding: 3649 3649 274
Width: 594
VWidth: 1504
Flags: W
HStem: -12 63<99.5542 182.82 381.01 462.899> 153 64<144.284 194.554 426.549 475.715>
VStem: 26 69<56.2103 132.881> 200 65<68.8703 147.459> 307 70<56.1453 137.016> 481 65<69.4918 148.088>
LayerCount: 2
Fore
SplineSet
265 127 m 0
 265 56 197 -12 123 -12 c 0
 64 -12 26 26 26 81 c 0
 26 90 27 100 29 110 c 2
 120 542 l 2
 132 598 156 634 191 651 c 1
 274 617 l 1
 241 602 218 565 206 507 c 2
 144 214 l 1
 149 216 158 217 171 217 c 0
 228 217 265 175 265 127 c 0
546 128 m 0
 546 58 480 -12 405 -12 c 0
 345 -12 307 27 307 81 c 0
 307 90 308 100 310 110 c 2
 402 542 l 2
 414 598 437 634 472 651 c 1
 555 617 l 1
 522 602 499 565 487 507 c 2
 426 214 l 1
 431 216 440 217 453 217 c 0
 508 217 546 177 546 128 c 0
137 51 m 256
 170 51 200 83 200 112 c 0
 200 135 183 153 158 153 c 256
 125 153 95 121 95 92 c 0
 95 69 112 51 137 51 c 256
418 51 m 256
 451 51 481 83 481 112 c 0
 481 135 464 153 439 153 c 256
 406 153 377 123 377 90 c 0
 377 67 395 51 418 51 c 256
EndSplineSet
Validated: 1
EndChar

StartChar: uni0E42
Encoding: 3650 3650 275
Width: 379
VWidth: 1504
Flags: W
HStem: -12 63<165.716 249.006> 153 64<211.528 260.258> 862 75<336.278 434.469> 912 75<168.123 305.194>
VStem: 92 69<56.5441 132.084> 221 95<673.833 763.066> 266 65<68.8703 148.023>
LayerCount: 2
Fore
SplineSet
331 127 m 0xda
 331 56 263 -12 190 -12 c 0
 129 -12 92 28 92 81 c 0
 92 90 93 100 95 110 c 2
 221 707 l 1
 221 715 l 2
 221 776 135 815 57 815 c 1
 86 930 150 987 247 987 c 0xdc
 313 987 354 937 393 937 c 0
 418 937 440 957 459 996 c 1
 525 978 l 1
 489 901 443 862 388 862 c 0xec
 335 862 293 912 230 912 c 0
 195 912 169 899 153 874 c 1
 262 844 316 796 316 729 c 0xdc
 316 719 315 709 313 699 c 2
 211 214 l 1
 216 216 225 217 238 217 c 0
 298 217 331 172 331 127 c 0xda
203 51 m 256
 236 51 266 83 266 112 c 0xca
 266 135 249 153 224 153 c 256
 191 153 161 121 161 92 c 0
 161 69 178 51 203 51 c 256
EndSplineSet
Validated: 1
EndChar

StartChar: uni0E43
Encoding: 3651 3651 276
Width: 404
VWidth: 1504
Flags: W
HStem: -12 63<192.634 274.668> 153 64<236.284 286.233> 719 51<108.171 187.112> 863 44<188 199.358> 925 66<190.782 319.72>
VStem: 54 51<773.066 849.144> 117 70<55.81 131.615> 202 53<784.92 859.967> 291 65<66.9609 148.637> 333 90<806.745 911.11>
LayerCount: 2
Fore
SplineSet
356 129 m 0xff80
 356 56 290 -12 215 -12 c 0
 155 -12 117 27 117 83 c 0
 117 91 118 100 120 110 c 2
 241 677 l 2
 255 743 333 810 333 869 c 0
 333 905 302 925 266 925 c 0
 232 925 206 919 188 907 c 1
 230 907 255 878 255 839 c 0
 255 779 198 719 132 719 c 0
 70 719 54 771 54 799 c 0
 54 856 104 991 278 991 c 0
 362 991 423 947 423 882 c 0xff40
 423 807 345 729 331 665 c 2
 236 214 l 1
 241 216 250 217 263 217 c 0
 319 217 356 177 356 129 c 0xff80
229 51 m 256
 262 51 291 81 291 114 c 0xff80
 291 137 273 153 250 153 c 256
 217 153 187 121 187 92 c 0
 187 69 204 51 229 51 c 256
143 770 m 256
 174 770 202 799 202 829 c 0
 202 841 194 863 164 863 c 256
 131 863 105 835 105 805 c 0
 105 791 115 770 143 770 c 256
EndSplineSet
Validated: 1
EndChar

StartChar: uni0E44
Encoding: 3652 3652 277
Width: 379
VWidth: 1504
Flags: W
HStem: -12 63<165.716 249.006> 153 64<211.528 260.258> 721 21G<78 152.03>
VStem: 92 69<56.5441 134.365> 266 65<68.8703 148.023>
LayerCount: 2
Fore
SplineSet
331 127 m 0
 331 56 263 -12 190 -12 c 0
 129 -12 92 28 92 81 c 0
 92 90 93 100 95 110 c 2
 253 853 l 1
 134 721 l 1
 78 739 l 1
 89 806 95 869 95 929 c 0
 95 954 94 978 92 1002 c 1
 173 1002 l 1
 168 923 162 863 155 823 c 1
 296 990 l 1
 327 985 358 959 358 923 c 0
 358 917 358 911 356 904 c 2
 211 214 l 1
 216 216 225 217 238 217 c 0
 298 217 331 172 331 127 c 0
203 51 m 256
 236 51 266 83 266 112 c 0
 266 135 249 153 224 153 c 256
 191 153 161 121 161 92 c 0
 161 69 178 51 203 51 c 256
EndSplineSet
Validated: 1
EndChar

StartChar: uni0E45
Encoding: 3653 3653 278
Width: 314
VWidth: 1504
Flags: W
HStem: 532 80<11.759 150.792>
VStem: -144 90<415 464.967> 173 97<407.421 510.717>
LayerCount: 2
Fore
SplineSet
101 612 m 0
 190 612 270 573 270 483 c 0
 270 469 268 455 265 439 c 2
 137 -161 l 2
 125 -218 101 -255 66 -272 c 1
 -8 -232 l 1
 21 -215 41 -179 51 -126 c 2
 170 438 l 2
 172 446 173 454 173 461 c 0
 173 489 157 532 84 532 c 256
 14 532 -39 479 -54 415 c 1
 -144 415 l 1
 -114 526 -28 612 101 612 c 0
EndSplineSet
Validated: 1
EndChar

StartChar: uni0E46
Encoding: 3654 3654 279
Width: 657
VWidth: 1504
Flags: W
HStem: 257 60<196.869 283.09> 429 60<265 295.979>
VStem: 124 66<323.264 407.953> 303 66<336.987 423.048> 508 96<404.364 515.197>
LayerCount: 2
Fore
SplineSet
478 621 m 1
 571 597 604 535 604 477 c 0
 604 464 602 450 599 436 c 2
 475 -147 l 2
 463 -204 440 -242 405 -259 c 1
 331 -218 l 1
 360 -201 380 -166 390 -113 c 2
 505 435 l 2
 507 444 508 452 508 460 c 0
 508 490 495 514 468 534 c 1
 387 480 l 1
 310 535 l 1
 291 524 276 509 265 489 c 1
 275 489 l 2
 334 489 369 447 369 398 c 0
 369 327 301 257 226 257 c 0
 144 257 124 325 124 371 c 0
 124 482 219 592 341 621 c 1
 402 564 l 1
 478 621 l 1
235 317 m 256
 266 317 303 345 303 385 c 0
 303 409 286 429 259 429 c 256
 224 429 190 397 190 362 c 0
 190 346 199 317 235 317 c 256
EndSplineSet
Validated: 1
EndChar

StartChar: uni0E47
Encoding: 3655 3655 280
Width: 0
VWidth: 1504
Flags: W
HStem: 705 46<-105.409 -43.0245> 817 45<-99.8589 -38.6622> 887 61<-272.625 -36.5256>
VStem: -384 85<762.754 863.809> -38 45<756.777 816.536>
LayerCount: 2
Fore
SplineSet
7 801 m 0
 7 748 -40 705 -89 705 c 0
 -138 705 -189 726 -244 769 c 1
 -274 761 -318 720 -328 698 c 1
 -365 727 -384 761 -384 800 c 0
 -384 889 -301 948 -203 948 c 2
 -101 948 l 2
 -52 948 -22 970 -12 1014 c 2
 -5 1048 l 1
 66 1048 l 1
 59 1015 l 2
 37 920 -43 887 -111 887 c 2
 -221 887 l 2
 -245 887 -299 871 -299 808 c 0
 -299 802 -298 796 -296 791 c 1
 -276 814 -251 827 -220 829 c 1
 -201 814 -176 801 -146 790 c 1
 -138 830 -94 862 -56 862 c 0
 -6 862 7 821 7 801 c 0
-78 751 m 256
 -57 751 -38 771 -38 791 c 0
 -38 805 -49 817 -65 817 c 256
 -83 817 -106 799 -106 777 c 0
 -106 762 -93 751 -78 751 c 256
EndSplineSet
Validated: 1
Substitution2: "Single Substitution lookup 42 subtable" uni0E47.alt1
Substitution2: "Single Substitution lookup 42 subtable" uni0E47.alt1
EndChar

StartChar: uni0E48
Encoding: 3656 3656 281
Width: 0
VWidth: 1504
Flags: W
HStem: 1018 172<20 72>
VStem: -17 127
LayerCount: 2
Fore
SplineSet
72 1018 m 1
 -17 1018 l 1
 20 1190 l 1
 110 1190 l 1
 72 1018 l 1
EndSplineSet
Validated: 1
Substitution2: "Single Substitution lookup 42 subtable" uni0E48.alt2
Substitution2: "Single Substitution lookup 42 subtable" uni0E48.alt2
EndChar

StartChar: uni0E49
Encoding: 3657 3657 282
Width: 0
VWidth: 1504
Flags: W
HStem: 1003 50<-164 -99.2679> 1221 49<-84.4043 -14.1803>
VStem: -141 48<1144.68 1212.9> -13 49<1151.81 1219.53> 155 78<1207.76 1256>
LayerCount: 2
Fore
SplineSet
-57 1056 m 1
 43 1076 127 1155 155 1256 c 1
 233 1256 l 1
 172 1103 87 1003 -132 1003 c 2
 -174 1003 l 1
 -164 1053 l 1
 -123 1056 -95 1070 -81 1097 c 1
 -121 1107 -141 1129 -141 1163 c 0
 -141 1225 -87 1270 -33 1270 c 0
 22 1270 36 1231 36 1205 c 0
 36 1146 -14 1092 -57 1056 c 1
-62 1143 m 256
 -34 1143 -13 1168 -13 1190 c 0
 -13 1209 -26 1221 -45 1221 c 256
 -73 1221 -93 1197 -93 1173 c 0
 -93 1155 -79 1143 -62 1143 c 256
EndSplineSet
Validated: 1
Substitution2: "Single Substitution lookup 42 subtable" uni0E49.alt2
Substitution2: "Single Substitution lookup 42 subtable" uni0E49.alt2
EndChar

StartChar: uni0E4A
Encoding: 3658 3658 283
Width: 0
VWidth: 1504
Flags: W
HStem: 1005 43<-234.623 -165.267> 1125 45<-179 -158.724>
VStem: -280 44<1049.98 1116.3> -157 48<1055.97 1123.45> -1 56<1096.96 1195.44> 126 64<1185.4 1247>
LayerCount: 2
Fore
SplineSet
-32 1258 m 1
 19 1256 55 1224 55 1173 c 0
 55 1143 43 1106 18 1074 c 1
 71 1103 107 1161 126 1247 c 1
 190 1247 l 1
 151 1090 58 1011 -89 1011 c 1
 -78 1054 l 1
 -11 1084 -1 1138 -1 1159 c 0
 -1 1180 -12 1193 -33 1200 c 1
 -90 1152 l 1
 -126 1203 l 1
 -144 1199 -162 1188 -179 1170 c 1
 -126 1170 -109 1131 -109 1104 c 0
 -109 1054 -157 1005 -212 1005 c 0
 -251 1005 -280 1028 -280 1068 c 0
 -280 1124 -223 1241 -101 1258 c 1
 -74 1218 l 1
 -32 1258 l 1
-203 1048 m 256
 -179 1048 -157 1068 -157 1095 c 0
 -157 1107 -163 1125 -188 1125 c 256
 -213 1125 -236 1105 -236 1078 c 0
 -236 1060 -223 1048 -203 1048 c 256
EndSplineSet
Validated: 1
Substitution2: "Single Substitution lookup 42 subtable" uni0E4A.alt2
Substitution2: "Single Substitution lookup 42 subtable" uni0E4A.alt2
EndChar

StartChar: uni0E4B
Encoding: 3659 3659 284
Width: 0
VWidth: 1504
Flags: W
HStem: 1085 61<-57 2 96 162>
VStem: -69 243
LayerCount: 2
Fore
SplineSet
162 1085 m 1
 84 1085 l 1
 69 1018 l 1
 -12 1018 l 1
 2 1085 l 1
 -69 1085 l 1
 -57 1146 l 1
 14 1146 l 1
 27 1209 l 1
 110 1209 l 1
 96 1146 l 1
 174 1146 l 1
 162 1085 l 1
EndSplineSet
Validated: 1
Substitution2: "Single Substitution lookup 42 subtable" uni0E4B.alt2
Substitution2: "Single Substitution lookup 42 subtable" uni0E4B.alt2
EndChar

StartChar: uni0E4C
Encoding: 3660 3660 285
Width: 0
VWidth: 1504
Flags: W
HStem: 961 53<-58.8253 10.2289>
VStem: -113 53<1016.2 1081.73> 18 53<1021.21 1090.17> 123 62<1218.64 1256>
LayerCount: 2
Fore
SplineSet
-41 961 m 256
 -85 961 -113 994 -113 1033 c 0
 -113 1073 -87 1149 17 1181 c 0
 67 1196 113 1209 123 1256 c 1
 185 1256 l 1
 166 1194 130 1156 35 1131 c 1
 59 1118 71 1099 71 1073 c 0
 71 1015 19 961 -41 961 c 256
-27 1014 m 256
 -3 1014 18 1034 18 1060 c 0
 18 1073 12 1091 -11 1091 c 0
 -35 1091 -60 1070 -60 1043 c 0
 -60 1026 -47 1014 -27 1014 c 256
EndSplineSet
Validated: 1
Substitution2: "Single Substitution lookup 42 subtable" uni0E4C.alt2
Substitution2: "Single Substitution lookup 42 subtable" uni0E4C.alt2
EndChar

StartChar: uni0E4D
Encoding: 3661 3661 286
Width: 0
VWidth: 1504
Flags: W
HStem: 699 67<-87.3836 4.34248> 887 67<-69.8311 21.0197>
VStem: -164 68<774.42 860.917> 28 67<789.187 878.873>
LayerCount: 2
Fore
SplineSet
95 856 m 0
 95 775 23 699 -60 699 c 0
 -127 699 -164 746 -164 800 c 0
 -164 877 -88 954 -6 954 c 0
 55 954 95 910 95 856 c 0
-45 766 m 256
 -3 766 28 803 28 841 c 0
 28 866 9 887 -20 887 c 0
 -58 887 -96 851 -96 815 c 0
 -96 787 -77 766 -45 766 c 256
EndSplineSet
Validated: 1
Substitution2: "Single Substitution lookup 42 subtable" uni0E4D.alt1
Substitution2: "Single Substitution lookup 42 subtable" uni0E4D.alt1
EndChar

StartChar: uni0E4E
Encoding: 3662 3662 287
Width: 0
VWidth: 1504
Flags: W
HStem: 684 58<-166.974 -70.9609> 735 20G<-71 -63.2105> 951 60<-62.1623 60.6415>
VStem: -232 64<745.152 803.888> -136 67<877.48 942.017>
LayerCount: 2
Fore
SplineSet
-83 820 m 0xb8
 -152 820 -168 787 -168 766 c 0
 -168 750 -151 742 -117 742 c 0xb8
 -102 742 -83 746 -59 755 c 1x78
 -71 698 l 1
 -93 689 -119 684 -149 684 c 0
 -196 684 -232 712 -232 753 c 0
 -232 805 -189 858 -129 868 c 1
 -134 877 -136 887 -136 898 c 0
 -136 943 -97 1011 8 1011 c 0
 36 1011 62 1006 86 996 c 1
 51 940 l 1
 33 947 14 951 -5 951 c 0
 -58 951 -69 924 -69 907 c 0
 -69 884 -46 871 0 866 c 1
 -36 809 l 1
 -54 816 -70 820 -83 820 c 0xb8
EndSplineSet
Validated: 1
Substitution2: "Single Substitution lookup 42 subtable" uni0E4E.alt1
Substitution2: "Single Substitution lookup 42 subtable" uni0E4E.alt1
EndChar

StartChar: uni0E4F
Encoding: 3663 3663 288
Width: 676
VWidth: 1504
Flags: W
HStem: -9 51<195.163 374.801> 95 54<246.994 369.235> 341 53<279.073 400.629> 447 52<271.977 452.501>
VStem: 63 54<119.601 291.322> 170 54<172.291 286.478> 423 53<202.833 317.879> 530 54<198.762 370.337>
LayerCount: 2
Fore
SplineSet
304 149 m 256
 372 149 423 212 423 267 c 0
 423 306 393 341 344 341 c 256
 281 341 224 282 224 223 c 0
 224 182 256 149 304 149 c 256
476 279 m 0
 476 185 388 95 292 95 c 256
 212 95 170 155 170 213 c 0
 170 302 255 394 355 394 c 256
 432 394 476 339 476 279 c 0
280 42 m 256
 409 42 530 162 530 290 c 0
 530 368 476 447 367 447 c 0
 236 447 117 328 117 200 c 0
 117 120 174 42 280 42 c 256
584 298 m 0
 584 148 440 -9 269 -9 c 256
 135 -9 63 89 63 191 c 0
 63 344 208 499 378 499 c 0
 512 499 584 394 584 298 c 0
EndSplineSet
Validated: 1
EndChar

StartChar: uni0E50
Encoding: 3664 3664 289
Width: 685
VWidth: 1504
Flags: W
HStem: -14 83<207.183 383.474> 370 83<263.402 438.509>
VStem: 52 102<117.723 266.745> 492 101<170.501 320.408>
LayerCount: 2
Fore
SplineSet
290 69 m 256
 398 69 492 149 492 252 c 0
 492 323 437 370 355 370 c 256
 253 370 154 297 154 184 c 0
 154 115 210 69 290 69 c 256
372 453 m 0
 493 453 593 378 593 266 c 0
 593 110 429 -14 274 -14 c 0
 151 -14 52 61 52 172 c 0
 52 333 217 453 372 453 c 0
EndSplineSet
Validated: 1
EndChar

StartChar: uni0E51
Encoding: 3665 3665 290
Width: 685
VWidth: 1504
Flags: W
HStem: -11 77<165.901 275.3> 74 58<254.706 277> 235 60<267.768 349.811> 369 82<256.911 437.915>
VStem: 42 92<99.4507 252.11> 184 66<137.02 217.054> 355 69<150.672 230.121> 502 90<129.706 307.753>
LayerCount: 2
Fore
SplineSet
592 241 m 0
 592 208 585 81 460 -30 c 1
 349 -30 l 1
 485 78 502 178 502 230 c 0
 502 289 471 369 350 369 c 0
 241 369 134 284 134 171 c 0
 134 128 153 66 230 66 c 0
 245 66 261 69 277 74 c 1
 203 74 184 130 184 159 c 0
 184 232 256 295 325 295 c 0
 404 295 424 237 424 198 c 0
 424 114 346 -11 199 -11 c 0
 73 -11 42 90 42 152 c 0
 42 323 208 451 370 451 c 0
 527 451 592 342 592 241 c 0
292 132 m 256
 326 132 355 163 355 196 c 0
 355 217 338 235 314 235 c 256
 282 235 250 205 250 173 c 0
 250 151 267 132 292 132 c 256
EndSplineSet
Validated: 1
EndChar

StartChar: uni0E52
Encoding: 3666 3666 291
Width: 685
VWidth: 1504
Flags: W
HStem: 0 78<109.259 492.72> 108 57<222.829 299.816> 254 57<275 309.864> 375 79<300.824 379.997 482.512 582>
VStem: 150 71<167.687 240.77> 313 58<177.204 251.132> 394 60<284 343.581> 545 93<289.9 369.935>
LayerCount: 2
Fore
SplineSet
150 196 m 0
 150 273 209 454 360 454 c 0
 409 454 436 435 442 396 c 1
 468 435 502 454 545 454 c 0
 619 454 638 394 638 351 c 0
 638 341 637 331 635 320 c 2
 588 105 l 2
 574 35 533 0 466 0 c 2
 75 0 l 2
 30 1 8 22 8 64 c 0
 8 74 9 86 12 98 c 2
 102 523 l 2
 103 527 103 530 103 533 c 0
 103 541 100 546 93 549 c 1
 92 549 84 550 68 552 c 1
 83 629 l 1
 175 629 198 600 198 557 c 0
 198 546 197 535 194 522 c 2
 110 126 l 2
 109 120 108 115 108 111 c 0
 108 89 120 78 143 78 c 2
 453 78 l 2
 479 78 494 90 499 114 c 2
 542 317 l 2
 544 327 545 335 545 342 c 0
 545 362 537 372 520 372 c 0
 488 372 466 343 454 284 c 1
 394 284 l 1
 394 290 l 0
 394 347 376 375 341 375 c 0
 301 375 279 323 275 311 c 1
 287 311 l 2
 339 311 371 277 371 233 c 0
 371 173 319 108 245 108 c 0
 182 108 150 137 150 196 c 0
257 165 m 256
 290 165 313 193 313 221 c 0
 313 241 298 254 275 254 c 256
 238 254 221 220 221 197 c 0
 221 184 230 165 257 165 c 256
EndSplineSet
Validated: 1
EndChar

StartChar: uni0E53
Encoding: 3667 3667 292
Width: 685
VWidth: 1504
Flags: W
HStem: -11 59<83.4787 165.724> 0 21G<251 344.199 472 564.181> 146 65<98.6824 177.233> 372 81<182.649 297.374 440.789 530.845>
VStem: 5 75<51.7231 129.884> 181 66<64.0817 140.85> 537 88<256.092 366.544>
LayerCount: 2
Fore
SplineSet
510 453 m 0xbe
 602 453 625 386 625 334 c 0
 625 319 623 304 620 287 c 2
 560 0 l 1
 472 0 l 1
 532 286 l 2
 535 300 537 312 537 322 c 0
 537 355 521 372 490 372 c 0
 448 372 408 323 399 281 c 2
 340 0 l 1
 251 0 l 1x7e
 310 281 l 2
 312 291 313 300 313 308 c 0
 313 349 286 370 233 370 c 0
 161 370 114 275 98 197 c 1
 116 206 134 211 153 211 c 0
 207 211 247 177 247 126 c 0
 247 53 175 -11 104 -11 c 0
 64 -11 5 5 5 116 c 0
 5 251 94 453 254 453 c 0
 313 453 354 430 375 385 c 1
 413 431 458 453 510 453 c 0xbe
119 48 m 256xbe
 156 48 181 80 181 108 c 0
 181 131 162 146 140 146 c 256
 104 146 80 112 80 85 c 0
 80 70 88 48 119 48 c 256xbe
EndSplineSet
Validated: 1
EndChar

StartChar: uni0E54
Encoding: 3668 3668 293
Width: 685
VWidth: 1504
Flags: W
HStem: -11 77<139.116 303.829> 275 65<279.326 358.047> 373 83<213.75 572.537>
VStem: 1 96<110.07 262.161> 201 65<188.966 263.455> 360 67<198.828 272.109>
LayerCount: 2
Fore
SplineSet
427 253 m 0
 427 230 419 181 360 140 c 1
 429 103 482 136 594 57 c 1
 535 -14 l 1
 484 13 440 27 403 27 c 0
 342 27 242 -11 181 -11 c 0
 43 -11 1 84 1 157 c 0
 1 173 3 190 6 208 c 0
 41 373 166 456 381 456 c 0
 466 456 528 462 567 475 c 0
 630 496 677 548 707 629 c 1
 793 629 l 1
 748 520 690 447 621 411 c 0
 572 386 493 373 384 373 c 0
 307 373 249 366 212 352 c 0
 115 313 97 217 97 179 c 0
 97 122 139 66 194 66 c 0
 200 66 239 72 311 83 c 1
 238 103 201 141 201 195 c 0
 201 281 272 340 340 340 c 0
 409 340 427 283 427 253 c 0
304 185 m 256
 338 185 360 217 360 242 c 0
 360 262 343 275 322 275 c 256
 284 275 266 242 266 218 c 0
 266 205 276 185 304 185 c 256
EndSplineSet
Validated: 1
EndChar

StartChar: uni0E55
Encoding: 3669 3669 294
Width: 685
VWidth: 1504
Flags: W
HStem: -11 77<139.116 303.829> 275 65<279.326 358.047> 373 107<373.297 449.573> 570 59<380.432 458.644>
VStem: 1 96<110.07 264.964> 201 65<188.966 263.455> 310 59<482.266 558.632> 360 67<198.828 272.109> 461 59<492.431 567.035>
LayerCount: 2
Fore
SplineSet
1 157 m 0xfd80
 1 228 35 433 326 454 c 1
 316 468 310 484 310 502 c 0xfe80
 310 570 370 629 436 629 c 0
 487 629 520 596 520 550 c 0
 520 513 501 480 477 457 c 1
 573 466 657 493 707 629 c 1
 793 629 l 1
 748 520 690 447 621 411 c 0
 572 386 493 373 384 373 c 0
 307 373 249 366 212 352 c 0
 115 313 97 217 97 179 c 0
 97 122 139 66 194 66 c 0
 200 66 239 72 311 83 c 1
 238 103 201 141 201 195 c 0
 201 281 272 340 340 340 c 0
 409 340 427 283 427 253 c 0
 427 230 419 181 360 140 c 1
 430 102 481 136 594 57 c 1
 535 -14 l 1
 484 13 440 27 403 27 c 0
 342 27 242 -11 181 -11 c 0
 43 -11 1 84 1 157 c 0xfd80
304 185 m 256
 338 185 360 217 360 242 c 0xfd80
 360 262 343 275 322 275 c 256
 284 275 266 242 266 218 c 0
 266 205 276 185 304 185 c 256
405 480 m 256
 432 480 461 502 461 534 c 0
 461 556 447 570 424 570 c 256
 399 570 369 551 369 514 c 0xfe80
 369 500 376 480 405 480 c 256
EndSplineSet
Validated: 1
EndChar

StartChar: uni0E56
Encoding: 3670 3670 295
Width: 685
VWidth: 1504
Flags: W
HStem: -14 85<206.879 408.975> 188 63<146.672 227.9> 369 84<247.196 480.01>
VStem: 63 68<93.6055 172.421> 122 86<413.853 591.949> 232 64<104.646 183.726> 537 93<180.057 318.114>
LayerCount: 2
Fore
SplineSet
630 282 m 0xee
 630 125 489 -14 284 -14 c 0
 94 -14 63 58 63 106 c 0
 63 172 115 251 202 251 c 256
 260 251 296 212 296 164 c 0
 296 141 286 98 260 72 c 1
 266 71 277 71 293 71 c 0
 428 71 537 146 537 258 c 0
 537 325 476 369 385 369 c 0
 276 369 191 337 131 274 c 1xf6
 99 274 l 1
 114 356 122 418 122 459 c 0
 122 525 109 582 83 629 c 1
 185 629 l 1
 200 586 208 540 208 491 c 0
 208 465 206 439 202 412 c 1
 250 439 316 453 399 453 c 0
 526 453 630 399 630 282 c 0xee
170 90 m 256
 206 90 232 119 232 150 c 0
 232 173 213 188 191 188 c 256
 155 188 131 154 131 127 c 0
 131 112 139 90 170 90 c 256
EndSplineSet
Validated: 1
EndChar

StartChar: uni0E57
Encoding: 3671 3671 296
Width: 685
VWidth: 1504
Flags: W
HStem: -6 63<64.7784 146.148> 161 62<87.9696 158.968> 375 78<148.602 236.473 366.601 433.406>
VStem: -10 69<62.2771 140.855> 165 67<74.6569 154.753> 440 88<218.605 371.958>
LayerCount: 2
Fore
SplineSet
417 453 m 0
 506 453 528 386 528 328 c 0
 528 263 497 176 465 107 c 1
 513 135 550 209 575 329 c 0
 608 486 639 586 668 629 c 1
 760 629 l 1
 705 567 691 487 665 347 c 0
 614 112 523 -5 314 -5 c 1
 421 179 440 286 440 316 c 0
 440 353 427 375 406 375 c 0
 370 375 339 322 331 281 c 2
 319 221 l 1
 229 221 l 1
 241 278 l 2
 244 292 245 305 245 316 c 0
 245 355 228 375 193 375 c 0
 140 375 103 291 92 227 c 2
 87 211 l 1
 107 219 124 223 138 223 c 0
 195 223 232 181 232 131 c 0
 232 55 168 -6 90 -6 c 0
 10 -6 -10 64 -10 127 c 0
 -10 246 60 453 206 453 c 0
 260 453 294 433 308 394 c 1
 339 433 376 453 417 453 c 0
101 57 m 256
 136 57 165 90 165 118 c 0
 165 139 149 161 122 161 c 256
 90 161 59 129 59 98 c 0
 59 75 76 57 101 57 c 256
EndSplineSet
Validated: 1
EndChar

StartChar: uni0E58
Encoding: 3672 3672 297
Width: 685
VWidth: 1504
Flags: W
HStem: -24 21G<64.5 101.5> -12 75<422.174 506.156> 171 74<435.553 519.72> 373 80<203.287 535.486> 586 20G<620 710>
VStem: 8 86<106.437 269.512> 526 76<82.9923 165.328> 620 90<535.102 606>
LayerCount: 2
Fore
SplineSet
602 146 m 0xbf
 602 66 524 -12 444 -12 c 0x7f
 371 -12 302 26 236 102 c 1
 183 84 110 15 93 -24 c 1
 36 22 8 82 8 157 c 0
 8 238 42 362 137 414 c 0
 185 440 262 453 369 453 c 0
 446 453 501 460 534 474 c 0
 579 494 608 534 620 593 c 2
 623 606 l 1
 710 606 l 1
 700 543 680 442 560 399 c 0
 513 382 432 373 319 373 c 0
 139 373 94 262 94 167 c 0
 94 137 101 117 117 105 c 1
 150 153 232 193 281 193 c 1
 297 162 320 140 349 126 c 1
 365 194 435 245 498 245 c 0
 566 245 602 197 602 146 c 0xbf
459 63 m 256
 493 63 526 95 526 127 c 0
 526 149 511 171 483 171 c 256
 448 171 416 139 416 105 c 0
 416 83 431 63 459 63 c 256
EndSplineSet
Validated: 1
EndChar

StartChar: uni0E59
Encoding: 3673 3673 298
Width: 685
VWidth: 1504
Flags: W
HStem: -11 59<162.86 244.264> 146 60<174.242 255.019> 326 82<537.855 615.273> 370 83<190.956 335.539 460.728 534.749>
VStem: 11 90<127.793 267.331> 259 60<63.0758 141.339> 649 72<459.649 624>
LayerCount: 2
Fore
SplineSet
457 324 m 0xee
 457 245 550 70 602 42 c 1
 528 -15 l 1
 431 75 386 235 372 302 c 0
 364 338 316 370 259 370 c 256
 179 370 101 280 101 182 c 0
 101 162 104 144 110 126 c 1
 137 179 178 206 233 206 c 0
 288 206 319 166 319 123 c 0
 319 53 253 -11 187 -11 c 0
 65 -11 11 79 11 165 c 0
 11 312 137 453 284 453 c 0xde
 341 453 383 436 412 403 c 1
 430 435 455 451 486 451 c 0
 525 451 551 408 590 408 c 0
 625 408 649 527 649 594 c 0
 649 604 648 614 647 624 c 1
 721 624 l 1
 721 574 716 525 705 478 c 0
 684 377 645 326 587 326 c 0
 555 326 515 372 492 372 c 0
 471 372 457 359 457 324 c 0xee
197 48 m 256
 233 48 259 77 259 108 c 0
 259 131 240 146 218 146 c 256
 182 146 158 112 158 85 c 0
 158 70 166 48 197 48 c 256
EndSplineSet
Validated: 1
EndChar

StartChar: uni0E5A
Encoding: 3674 3674 299
Width: 789
VWidth: 1504
Flags: W
HStem: 375 70<142.121 223.652> 548 64<155.49 236.157> 580 20G<374.5 479 602 706>
VStem: 71 66<449.6 529.631> 242 65<474.605 542.693> 438 97<475 530.232> 665 97<460.312 530.232>
LayerCount: 2
Fore
SplineSet
177 445 m 256xde
 215 445 242 479 242 506 c 0
 242 527 227 548 200 548 c 256
 168 548 137 516 137 485 c 0
 137 471 145 445 177 445 c 256xde
214 612 m 256
 275 612 307 569 307 520 c 0
 307 492 300 482 296 474 c 1
 335 499 365 541 384 600 c 1
 451 600 l 2
 507 600 535 576 535 528 c 0
 535 517 534 505 531 492 c 2
 528 475 l 1
 565 501 593 543 611 600 c 1
 678 600 l 2xbe
 734 600 762 576 762 528 c 0
 762 517 761 505 758 492 c 2
 669 71 l 2
 657 14 634 -24 599 -41 c 1
 525 0 l 1
 554 17 574 52 584 105 c 2
 660 474 l 2
 664 490 665 503 665 512 c 0
 665 524 663 530 657 531 c 1
 637 465 588 418 510 391 c 1
 442 71 l 2
 430 14 407 -24 372 -41 c 1
 298 0 l 1
 327 17 346 52 356 105 c 2
 433 474 l 2
 437 490 438 503 438 512 c 0
 438 524 436 530 430 531 c 1
 401 432 285 375 191 375 c 0
 128 375 71 405 71 467 c 0
 71 545 136 612 214 612 c 256
EndSplineSet
Validated: 1
EndChar

StartChar: uni0E5B
Encoding: 3675 3675 300
Width: 1048
VWidth: 1504
Flags: W
HStem: 36 50<199.959 359.246> 194 41<271.442 345.478> 253 16<941.737 973.636> 319 41<281.001 356.893> 465 6<306.106 310 313 316 340.094 353.581> 472 18<259.935 270.952 344.048 346.685> 481 9<270.533 271.938 320 327.974 364 371.974> 492 19<280 283 293 296 301 304 317 374.999 381 384>
VStem: 99 55<133.229 321.843> 231 39<237.168 307.401> 259 13<484 489.349> 281 11<471 481 483 492> 292 4<471 492> 304 13<474 492> 316 24<471.001 478> 319 9<481.023 490> 360 16<471 480> 363 9<481.023 490> 381 4<471 478> 408 45<330.711 450.949>
LayerCount: 2
Fore
SplineSet
319 481 m 1xfb9930
 320 490 l 1
 325 490 l 2
 327 490 328 489 328 487 c 2
 328 486 l 2
 328 483 326 481 323 481 c 2
 319 481 l 1xfb9930
322 480 m 2
 329 480 331 484 331 487 c 0
 331 490 329 492 325 492 c 2
 317 492 l 1xf99c30
 313 471 l 1
 316 471 l 1xf99a30
 317 480 l 1xf99c30
 322 480 l 2
363 481 m 1xfb9870
 364 490 l 1
 369 490 l 2
 371 490 372 489 372 487 c 2
 372 486 l 2
 372 483 370 481 367 481 c 2
 363 481 l 1xfb9870
310 471 m 1
 310 474 l 1
 299 474 l 1
 304 492 l 1xf99c30
 301 492 l 1
 296 471 l 1
 310 471 l 1
268 492 m 0
 259 492 256 481 256 477 c 0
 256 473 258 471 263 471 c 256
 269 471 273 473 274 478 c 1
 271 478 l 1
 270 474 267 472 263 472 c 256
 260 472 259 473 259 476 c 0
 259 478 261 490 268 490 c 0
 271 490 272 488 272 484 c 1xfdb830
 275 484 l 1
 274 489 272 492 268 492 c 0
355 486 m 1
 355 488 l 2
 355 491 353 492 350 492 c 0
 345 492 342 490 341 486 c 1
 344 483 348 480 352 477 c 1
 351 474 349 472 346 472 c 256xfd9a30
 344 472 342 473 342 475 c 0
 342 476 343 477 343 478 c 1
 340 478 l 1
 340 475 l 0
 340 472 342 471 346 471 c 256
 351 471 354 473 355 477 c 1
 353 480 349 483 344 486 c 1
 345 489 347 490 350 490 c 1xfb9a30
 351 488 352 487 352 486 c 1
 355 486 l 1
292 471 m 1
 296 492 l 1
 293 492 l 1
 292 483 l 1
 281 483 l 1
 283 492 l 1
 280 492 l 1
 275 471 l 1
 278 471 l 1
 281 481 l 1
 292 481 l 1xfb9830
 289 471 l 1
 292 471 l 1
391 471 m 1
 387 483 l 1
 396 492 l 1
 391 492 l 1
 382 481 l 1
 384 492 l 1
 381 492 l 1
 376 471 l 1xfb98b0
 379 471 l 1
 381 478 l 1
 385 481 l 1
 387 471 l 1
 391 471 l 1
366 480 m 2
 373 480 375 484 375 487 c 0
 375 490 373 492 369 492 c 2
 361 492 l 1
 356 471 l 1
 360 471 l 1
 361 480 l 1
 366 480 l 2
323 319 m 256
 278 319 270 280 270 263 c 0xf9d830
 270 244 282 235 305 235 c 256
 351 235 358 276 358 291 c 0
 358 310 346 319 323 319 c 256
805 256 m 1
 829 282 835 326 835 349 c 1
 840 348 858 334 890 307 c 0
 919 282 953 269 990 269 c 2
 997 269 l 1
 974 258 952 253 931 253 c 0
 898 253 872 265 853 290 c 1
 836 242 816 215 793 208 c 1
 769 208 773 311 757 331 c 1
 738 239 714 193 687 193 c 0
 671 193 674 298 657 323 c 1
 630 225 601 176 569 176 c 0
 554 176 558 299 543 323 c 1
 503 132 408 36 259 36 c 0xf9b830
 131 36 99 129 99 200 c 0
 99 283 146 511 335 511 c 0
 429 511 453 451 453 401 c 0
 453 315 396 194 296 194 c 0
 256 194 231 225 231 259 c 0
 231 310 275 360 331 360 c 0
 357 360 377 350 390 329 c 1
 390 332 l 1
 402 369 l 2
 406 383 408 395 408 405 c 0
 408 445 381 465 329 465 c 0
 202 465 154 290 154 215 c 0
 154 137 197 86 269 86 c 0
 467 86 509 324 516 405 c 1
 568 394 594 343 594 252 c 2
 594 245 l 1
 630 315 630 355 630 374 c 0
 630 383 630 392 629 402 c 1
 669 390 696 346 711 271 c 1
 732 320 734 328 734 382 c 1
 775 370 799 328 805 256 c 1
EndSplineSet
Validated: 1
EndChar

StartChar: zerowidthnonjoiner
Encoding: 8204 8204 301
Width: 0
VWidth: 1504
Flags: W
LayerCount: 2
Back
SplineSet
27 -376 m 1
 -26 -376 l 1
 -26 432 l 1
 27 432 l 1
 27 -376 l 1
EndSplineSet
EndChar

StartChar: zerowidthjoiner
Encoding: 8205 8205 302
Width: 0
VWidth: 1504
Flags: W
LayerCount: 2
Back
SplineSet
27 -376 m 1
 -26 -376 l 1
 -26 298 l 1
 -56 268 l 1
 -81 293 l 1
 -26 349 l 1
 -81 408 l 1
 -54 432 l 1
 0 376 l 1
 56 432 l 1
 83 408 l 1
 27 349 l 1
 83 293 l 1
 56 268 l 1
 27 298 l 1
 27 -376 l 1
EndSplineSet
EndChar

StartChar: lefttorightmark
Encoding: 8206 8206 303
Width: 0
VWidth: 1504
Flags: W
LayerCount: 2
Back
SplineSet
27 -376 m 1
 -26 -376 l 1
 -26 379 l 1
 173 379 l 1
 147 406 l 1
 171 430 l 1
 250 352 l 1
 171 274 l 1
 147 299 l 1
 173 326 l 1
 27 326 l 1
 27 -376 l 1
EndSplineSet
EndChar

StartChar: righttoleftmark
Encoding: 8207 8207 304
Width: 0
VWidth: 1504
Flags: W
LayerCount: 2
Back
SplineSet
27 -376 m 1
 -26 -376 l 1
 -26 326 l 1
 -171 326 l 1
 -146 299 l 1
 -170 274 l 1
 -248 352 l 1
 -170 430 l 1
 -168 427.333 -164.5 423.5 -159.5 418.5 c 0
 -154.5 413.5 -150 409.333 -146 406 c 1
 -171 379 l 1
 27 379 l 1
 27 -376 l 1
EndSplineSet
EndChar

StartChar: endash
Encoding: 8211 8211 305
Width: 503
VWidth: 1504
Flags: W
HStem: 236 81<14 474>
LayerCount: 2
Fore
SplineSet
474 236 m 1
 -2 236 l 1
 14 317 l 1
 490 317 l 1
 474 236 l 1
EndSplineSet
Validated: 1
EndChar

StartChar: emdash
Encoding: 8212 8212 306
Width: 1042
VWidth: 1504
Flags: W
HStem: 236 81<14 1012>
LayerCount: 2
Fore
SplineSet
1012 236 m 1
 -2 236 l 1
 14 317 l 1
 1029 317 l 1
 1012 236 l 1
EndSplineSet
Validated: 1
EndChar

StartChar: quoteleft
Encoding: 8216 8216 307
Width: 380
VWidth: 1504
Flags: W
HStem: 493 282
VStem: 160 141<522.722 618.05>
LayerCount: 2
Fore
SplineSet
301 576 m 0
 301 529 257 493 215 493 c 256
 181 493 160 517 160 547 c 0
 160 572 182 651 236 706 c 0
 272 743 303 766 328 775 c 1
 344 749 l 1
 286 716 248 676 230 629 c 1
 236 629 239 630 245 630 c 0
 278 630 301 608 301 576 c 0
EndSplineSet
Validated: 1
EndChar

StartChar: quoteright
Encoding: 8217 8217 308
Width: 380
VWidth: 1504
Flags: W
HStem: 472 282
VStem: 210 141<628.67 722.734>
LayerCount: 2
Fore
SplineSet
296 754 m 256
 332 754 351 728 351 699 c 0
 351 684 337 602 276 541 c 0
 239 504 209 481 184 472 c 1
 167 498 l 1
 225 531 263 571 281 618 c 1
 276 618 273 617 268 617 c 0
 233 617 210 641 210 671 c 0
 210 718 256 754 296 754 c 256
EndSplineSet
Validated: 1
EndChar

StartChar: quotesinglbase
Encoding: 8218 8218 309
Width: 380
VWidth: 1504
Flags: W
HStem: -150 281 -6 21G<118.5 138>
VStem: 78 141<5.95025 101.733>
LayerCount: 2
Fore
SplineSet
164 131 m 256xa0
 208 131 219 97 219 77 c 0
 219 52 199 -27 144 -82 c 0
 107 -119 76 -141 51 -150 c 1xa0
 35 -125 l 1
 93 -92 131 -52 149 -5 c 1
 143 -5 141 -6 135 -6 c 0x60
 102 -6 78 19 78 49 c 0
 78 92 118 131 164 131 c 256xa0
EndSplineSet
Validated: 1
EndChar

StartChar: quotedblleft
Encoding: 8220 8220 310
Width: 577
VWidth: 1504
Flags: W
HStem: 493 137<230 270.643 427 467.643>
VStem: 160 141<522.722 618.05> 357 141<522.722 618.05>
LayerCount: 2
Fore
SplineSet
301 576 m 0
 301 529 257 493 215 493 c 256
 181 493 160 517 160 547 c 0
 160 572 182 651 236 706 c 0
 272 743 303 766 328 775 c 1
 344 749 l 1
 286 716 248 676 230 629 c 1
 236 629 239 630 245 630 c 0
 278 630 301 608 301 576 c 0
498 576 m 0
 498 529 454 493 412 493 c 256
 378 493 357 517 357 547 c 0
 357 572 379 651 433 706 c 0
 469 743 500 766 525 775 c 1
 542 749 l 1
 483 716 445 676 427 629 c 1
 433 629 436 630 442 630 c 0
 475 630 498 608 498 576 c 0
EndSplineSet
Validated: 1
EndChar

StartChar: quotedblright
Encoding: 8221 8221 311
Width: 577
VWidth: 1504
Flags: W
HStem: 617 137<241.151 281 438.151 478>
VStem: 210 141<628.67 722.734> 407 142<628.463 722.734>
LayerCount: 2
Fore
SplineSet
296 754 m 256
 332 754 351 728 351 699 c 0
 351 684 337 602 276 541 c 0
 239 504 209 481 184 472 c 1
 167 498 l 1
 225 531 263 571 281 618 c 1
 276 618 273 617 268 617 c 0
 233 617 210 641 210 671 c 0
 210 718 256 754 296 754 c 256
493 754 m 256
 530 754 549 727 549 697 c 0
 549 674 527 595 473 541 c 0
 436 504 406 481 381 472 c 1
 364 498 l 1
 422 531 460 571 478 618 c 1
 473 618 470 617 465 617 c 0
 430 617 407 641 407 671 c 0
 407 718 453 754 493 754 c 256
EndSplineSet
Validated: 1
EndChar

StartChar: quotedblbase
Encoding: 8222 8222 312
Width: 577
VWidth: 1504
Flags: W
HStem: -6 137<108.328 149 305.328 346>
VStem: 78 141<5.95025 101.733> 275 141<5.95025 101.733>
LayerCount: 2
Fore
SplineSet
164 131 m 256
 208 131 219 97 219 77 c 0
 219 52 199 -27 144 -82 c 0
 107 -119 76 -141 51 -150 c 1
 35 -125 l 1
 93 -92 131 -52 149 -5 c 1
 143 -5 141 -6 135 -6 c 0
 102 -6 78 19 78 49 c 0
 78 92 118 131 164 131 c 256
361 131 m 256
 405 131 416 97 416 77 c 0
 416 52 396 -27 341 -82 c 0
 304 -119 273 -141 248 -150 c 1
 232 -125 l 1
 290 -92 328 -52 346 -5 c 1
 340 -5 338 -6 332 -6 c 0
 299 -6 275 19 275 49 c 0
 275 92 315 131 361 131 c 256
EndSplineSet
Validated: 1
EndChar

StartChar: dagger
Encoding: 8224 8224 313
Width: 571
VWidth: 1504
Flags: W
HStem: 421 72<96 272 360 535>
LayerCount: 2
Fore
SplineSet
245 -50 m 1
 170 -50 l 1
 272 427 l 1
 81 421 l 1
 96 493 l 1
 284 487 l 1
 332 714 l 1
 408 714 l 1
 360 487 l 1
 551 493 l 1
 535 421 l 1
 347 427 l 1
 245 -50 l 1
EndSplineSet
Validated: 1
EndChar

StartChar: daggerdbl
Encoding: 8225 8225 314
Width: 571
VWidth: 1504
Flags: W
HStem: 164 71<42 217 305 481> 421 72<96 272 360 535>
LayerCount: 2
Fore
SplineSet
245 -50 m 1
 170 -50 l 1
 217 168 l 1
 27 164 l 1
 42 235 l 1
 230 229 l 1
 272 427 l 1
 81 421 l 1
 96 493 l 1
 284 487 l 1
 332 714 l 1
 408 714 l 1
 360 487 l 1
 551 493 l 1
 535 421 l 1
 347 427 l 1
 305 229 l 1
 496 235 l 1
 481 164 l 1
 292 168 l 1
 245 -50 l 1
EndSplineSet
Validated: 1
EndChar

StartChar: bullet
Encoding: 8226 8226 315
Width: 339
VWidth: 1504
Flags: W
HStem: 174 253<99.6926 239.422>
VStem: 44 252<228.413 370.311>
LayerCount: 2
Fore
SplineSet
170 427 m 0
 243 427 296 368 296 301 c 0
 296 227 239 174 170 174 c 256
 95 174 44 233 44 301 c 256
 44 369 96 427 170 427 c 0
EndSplineSet
Validated: 1
EndChar

StartChar: ellipsis
Encoding: 8230 8230 316
Width: 758
VWidth: 1504
Flags: W
HStem: -14 145<33.5663 115.303 283.851 365.303 533.828 615.303>
VStem: 2 147<19.2783 98.7313> 251 148<19.104 98.5025> 500 149<19.371 98.1151>
LayerCount: 2
Fore
SplineSet
149 74 m 0
 149 28 106 -14 60 -14 c 256
 22 -14 2 15 2 45 c 0
 2 94 48 131 90 131 c 256
 127 131 149 105 149 74 c 0
399 74 m 0
 399 28 356 -14 310 -14 c 256
 274 -14 251 12 251 44 c 0
 251 92 296 131 340 131 c 256
 377 131 399 105 399 74 c 0
649 74 m 0
 649 28 606 -14 560 -14 c 256
 519 -14 500 16 500 44 c 0
 500 93 547 131 590 131 c 256
 627 131 649 105 649 74 c 0
EndSplineSet
Validated: 1
EndChar

StartChar: perthousand
Encoding: 8240 8240 317
Width: 1462
VWidth: 1504
Flags: W
HStem: -12 81<692.642 800.982 1119.74 1228.04> 289 81<199.624 305.296> 350 79<746.279 854.054 1172.54 1281.5> 650 80<250.438 358.224> 696 20G<762.178 871>
VStem: 90 93<384.045 556.167> 374 92<461.25 634.97> 585 91<84.7537 256.81> 870 93<159.473 333.929> 1012 92<84.7537 256.607> 1298 92<161.147 333.726>
LayerCount: 2
Fore
SplineSet
257 -14 m 1x8fe0
 165 -14 l 1
 779 716 l 1
 871 716 l 1
 257 -14 l 1x8fe0
230 289 m 0xd7e0
 136 289 90 335 90 428 c 0
 90 517 131 730 325 730 c 0
 419 730 466 684 466 592 c 0
 466 501 425 289 230 289 c 0xd7e0
374 570 m 0
 374 623 352 650 307 650 c 0
 208 650 183 500 183 448 c 0
 183 396 205 370 248 370 c 0
 349 370 374 511 374 570 c 0
727 -12 m 0
 654 -12 585 16 585 128 c 0
 585 215 623 429 820 429 c 0xa7e0
 916 429 963 382 963 289 c 0
 963 198 921 -12 727 -12 c 0
743 69 m 0
 851 69 870 230 870 271 c 0
 870 324 848 350 803 350 c 0
 701 350 676 196 676 147 c 0
 676 95 699 69 743 69 c 0
1154 -12 m 0
 1080 -12 1012 16 1012 128 c 0
 1012 215 1050 429 1247 429 c 0xa7e0
 1343 429 1390 382 1390 289 c 0xc7e0
 1390 198 1348 -12 1154 -12 c 0
1170 69 m 0
 1278 69 1298 228 1298 270 c 0
 1298 323 1276 350 1230 350 c 0
 1124 350 1104 184 1104 147 c 0
 1104 95 1126 69 1170 69 c 0
EndSplineSet
Validated: 1
EndChar

StartChar: minute
Encoding: 8242 8242 318
Width: 197
VWidth: 1504
Flags: W
HStem: 558 158
VStem: 78 175
LayerCount: 2
Fore
SplineSet
119 558 m 1
 78 558 l 1
 170 716 l 1
 253 716 l 1
 119 558 l 1
EndSplineSet
Validated: 1
EndChar

StartChar: second
Encoding: 8243 8243 319
Width: 330
VWidth: 1504
Flags: W
HStem: 558 158
VStem: 78 309
LayerCount: 2
Fore
SplineSet
119 558 m 1
 78 558 l 1
 170 716 l 1
 253 716 l 1
 119 558 l 1
253 558 m 1
 212 558 l 1
 304 716 l 1
 387 716 l 1
 253 558 l 1
EndSplineSet
Validated: 1
EndChar

StartChar: guilsinglleft
Encoding: 8249 8249 320
Width: 351
VWidth: 1504
Flags: W
VStem: 36 302
LayerCount: 2
Fore
SplineSet
254 71 m 1
 164 71 l 1
 36 269 l 1
 247 474 l 1
 338 474 l 1
 126 269 l 1
 254 71 l 1
EndSplineSet
Validated: 1
EndChar

StartChar: guilsinglright
Encoding: 8250 8250 321
Width: 351
VWidth: 1504
Flags: W
VStem: -6 304
LayerCount: 2
Fore
SplineSet
83 71 m 1
 -6 71 l 1
 208 271 l 1
 80 474 l 1
 170 474 l 1
 298 269 l 1
 83 71 l 1
EndSplineSet
Validated: 1
EndChar

StartChar: fraction
Encoding: 8260 8260 322
Width: 221
VWidth: 1504
Flags: W
HStem: 0 21G<-147 -44.4652> 698 20G<291.437 393>
LayerCount: 2
Fore
SplineSet
-57 0 m 1
 -147 0 l 1
 304 718 l 1
 393 718 l 1
 -57 0 l 1
EndSplineSet
Validated: 1
EndChar

StartChar: Euro
Encoding: 8364 8364 323
Width: 779
VWidth: 1504
Flags: W
HStem: -14 85<337.863 583.646> 215 81<39 113.129 214 581> 406 80<80 134 268 621> 599 21G<736.5 772.19> 645 83<463.243 712.122>
LayerCount: 2
Fore
SplineSet
456 71 m 0
 531 71 596 86 654 111 c 1
 675 38 l 1
 606 9 513 -14 421 -14 c 0
 256 -14 145 103 114 215 c 1
 23 215 l 1
 39 296 l 1
 110 296 l 1
 115 333 123 370 134 406 c 1
 63 406 l 1
 80 486 l 1
 171 486 l 1
 256 611 408 728 603 728 c 0
 671 728 739 713 808 683 c 1
 761 599 l 1
 712 630 655 645 590 645 c 0
 439 645 332 581 268 486 c 1
 638 486 l 1
 621 406 l 1
 226 406 l 1
 214 370 206 333 203 296 c 1
 597 296 l 1
 581 215 l 1
 214 215 l 1
 243 139 317 71 456 71 c 0
EndSplineSet
Validated: 1
EndChar

StartChar: uni2113
Encoding: 8467 8467 324
Width: 382
VWidth: 1504
Flags: W
HStem: -8 79<106 193.227> 599 78<246.503 298.536>
VStem: 54 89<37 191.711> 300 88<498.544 598.708>
LayerCount: 2
Fore
SplineSet
165 71 m 0
 191 71 233 106 257 128 c 1
 268 66 l 1
 205 9 149 -8 119 -8 c 0
 93 -8 54 6 54 68 c 0
 54 81 56 96 59 113 c 2
 93 275 l 1
 36 241 l 1
 12 301 l 1
 111 355 l 1
 150 540 l 2
 173 645 245 677 295 677 c 0
 350 677 388 641 388 586 c 0
 388 509 333 423 249 362 c 0
 228 348 209 334 190 322 c 1
 146 119 l 2
 144 111 143 102 143 93 c 0
 143 82 144 71 165 71 c 0
300 567 m 0
 300 589 295 599 275 599 c 0
 258 599 247 594 236 540 c 2
 211 421 l 1
 229 435 300 498 300 567 c 0
EndSplineSet
Validated: 1
EndChar

StartChar: trademark
Encoding: 8482 8482 325
Width: 914
VWidth: 1504
Flags: W
HStem: 651 63<128 278 346 496>
VStem: 278 68<271 651>
LayerCount: 2
Fore
SplineSet
346 271 m 1
 278 271 l 1
 278 651 l 1
 128 651 l 1
 128 714 l 1
 496 714 l 1
 496 651 l 1
 346 651 l 1
 346 271 l 1
972 271 m 1
 903 271 l 1
 884 588 l 1
 760 271 l 1
 708 271 l 1
 588 588 l 1
 566 271 l 1
 499 271 l 1
 526 714 l 1
 600 714 l 1
 736 366 l 1
 871 714 l 1
 943 714 l 1
 972 271 l 1
EndSplineSet
Validated: 1
EndChar

StartChar: Ohm
Encoding: 8486 8486 326
Width: 715
VWidth: 1504
Flags: W
HStem: 0 81<0 176 442 603> 603 81<326.29 508.217>
VStem: 80 96<272.273 451.994> 580 97<354.975 531.839>
LayerCount: 2
Fore
SplineSet
438 684 m 0
 581 684 677 613 677 477 c 0
 677 302 552 178 454 140 c 1
 442 81 l 1
 620 81 l 1
 603 0 l 1
 343 0 l 1
 384 197 l 1
 538 260 580 375 580 452 c 0
 580 528 529 603 421 603 c 256
 283 603 176 483 176 352 c 0
 176 284 212 232 283 197 c 1
 242 0 l 1
 -18 0 l 1
 0 81 l 1
 176 81 l 1
 188 140 l 1
 133 171 80 251 80 342 c 0
 80 476 179 684 438 684 c 0
EndSplineSet
Validated: 1
EndChar

StartChar: estimated
Encoding: 8494 8494 327
Width: 524
VWidth: 1504
Flags: W
HStem: -11 79<155.129 270.777> 278 77<158 383.477> 504 77<239.89 357.036>
VStem: 38 91<94.5594 274.798> 384 85<356.162 478.017>
LayerCount: 2
Fore
SplineSet
382 355 m 1
 383 369 384 381 384 393 c 0
 384 467 357 504 302 504 c 256
 239 504 191 454 158 355 c 1
 382 355 l 1
209 68 m 0
 277 68 324 138 346 182 c 1
 432 182 l 1
 375 53 296 -11 193 -11 c 0
 88 -11 38 51 38 176 c 0
 38 295 94 581 319 581 c 0
 425 581 469 512 469 396 c 0
 469 361 465 322 457 278 c 1
 138 278 l 1
 132 241 129 210 129 183 c 0
 129 122 145 68 209 68 c 0
EndSplineSet
Validated: 1
EndChar

StartChar: partialdiff
Encoding: 8706 8706 328
Width: 524
VWidth: 1504
Flags: W
HStem: -8 94<122.57 219.65> 356 85<274.876 388> 596 88<328.989 408.58>
VStem: 13 104<92.0832 209.87> 417 94<444.749 590.933>
LayerCount: 2
Fore
SplineSet
511 542 m 0
 511 332 348 -8 129 -8 c 0
 61 -8 13 37 13 113 c 0
 13 267 165 441 396 441 c 2
 409 441 l 1
 414 473 417 501 417 523 c 0
 417 572 404 596 378 596 c 0
 341 596 302 560 262 487 c 1
 190 532 l 1
 257 633 325 684 394 684 c 0
 472 684 511 637 511 542 c 0
378 356 m 2
 207 356 117 214 117 135 c 0
 117 102 134 86 167 86 c 0
 267 86 353 254 388 356 c 1
 378 356 l 2
EndSplineSet
Validated: 1
EndChar

StartChar: Delta
Encoding: 8710 8710 329
Width: 722
VWidth: 1504
Flags: W
HStem: 0 71<78 539>
LayerCount: 2
Fore
SplineSet
539 71 m 1
 409 543 l 1
 78 71 l 1
 539 71 l 1
651 0 m 1
 -62 0 l 1
 445 710 l 1
 651 0 l 1
EndSplineSet
Validated: 1
EndChar

StartChar: product
Encoding: 8719 8719 330
Width: 741
VWidth: 1504
Flags: W
HStem: 635 81<244 633>
LayerCount: 2
Fore
SplineSet
570 -113 m 1
 475 -113 l 1
 633 635 l 1
 244 635 l 1
 86 -113 l 1
 -9 -113 l 1
 165 716 l 1
 746 716 l 1
 570 -113 l 1
EndSplineSet
Validated: 1
EndChar

StartChar: summation
Encoding: 8721 8721 331
Width: 627
VWidth: 1504
Flags: W
HStem: -113 81<60 520> 635 81<202 656>
LayerCount: 2
Fore
SplineSet
520 -113 m 1
 -51 -113 l 1
 -33 -24 l 1
 317 320 l 1
 104 629 l 1
 123 716 l 1
 674 716 l 1
 656 635 l 1
 202 635 l 1
 412 352 l 1
 402 299 l 1
 60 -32 l 1
 537 -32 l 1
 520 -113 l 1
EndSplineSet
Validated: 1
EndChar

StartChar: minus
Encoding: 8722 8722 332
Width: 627
VWidth: 1504
Flags: W
HStem: 236 81<95 514>
LayerCount: 2
Fore
SplineSet
514 236 m 1
 78 236 l 1
 95 317 l 1
 531 317 l 1
 514 236 l 1
EndSplineSet
Validated: 1
EndChar

StartChar: radical
Encoding: 8730 8730 333
Width: 582
VWidth: 1504
Flags: W
HStem: -15 21G<152.983 237.89> 332 73<56 120>
LayerCount: 2
Fore
SplineSet
226 -15 m 1
 155 -15 l 1
 120 332 l 1
 39 332 l 1
 56 405 l 1
 203 405 l 1
 224 116 l 1
 566 710 l 1
 657 710 l 1
 226 -15 l 1
EndSplineSet
Validated: 1
EndChar

StartChar: infinity
Encoding: 8734 8734 334
Width: 950
VWidth: 1504
Flags: W
HStem: 153 77<174.8 322.903 605.056 748.203> 426 75<209.004 349.173 631.299 778.732>
VStem: 70 85<250.058 371.258> 800 86<280.543 405.116>
LayerCount: 2
Fore
SplineSet
286 426 m 0
 198 426 155 363 155 301 c 0
 155 254 185 230 245 230 c 0
 300 230 360 264 423 331 c 1
 376 394 331 426 286 426 c 0
727 501 m 0
 827 501 886 449 886 365 c 0
 886 299 859 244 808 202 c 0
 770 169 719 153 654 153 c 0
 583 153 519 193 462 272 c 1
 385 193 306 153 227 153 c 0
 129 153 70 204 70 288 c 0
 70 361 115 501 299 501 c 0
 366 501 431 462 493 384 c 1
 570 462 648 501 727 501 c 0
669 229 m 0
 749 229 800 280 800 352 c 0
 800 400 770 424 708 424 c 0
 650 424 591 390 532 323 c 1
 581 260 626 229 669 229 c 0
EndSplineSet
Validated: 1
EndChar

StartChar: integral
Encoding: 8747 8747 335
Width: 373
VWidth: 1504
Flags: W
HStem: -147 84<-149.019 -36.0691> 648 79<332.655 446.362>
LayerCount: 2
Fore
SplineSet
80 -2 m 1
 44 -99 -15 -147 -96 -147 c 0
 -117 -147 -144 -144 -177 -137 c 1
 -144 -57 l 1
 -128 -61 -114 -63 -102 -63 c 0
 -54 -63 -22 -40 -5 6 c 2
 218 582 l 1
 254 678 314 727 397 727 c 0
 420 727 443 725 472 718 c 1
 441 641 l 1
 424 646 407 648 391 648 c 0
 349 648 319 624 301 576 c 2
 80 -2 l 1
EndSplineSet
Validated: 1
EndChar

StartChar: approxequal
Encoding: 8776 8776 336
Width: 627
VWidth: 1504
Flags: W
HStem: 20 84<328.557 426.85> 113 80<108.364 208.926> 247 84<376.125 477.771> 340 80<158.569 261.264>
LayerCount: 2
Fore
SplineSet
220 420 m 0
 289 420 384 331 438 331 c 0
 469 331 492 361 508 420 c 1
 590 420 l 1
 584 396 l 2
 563 289 484 247 417 247 c 0
 355 247 251 340 203 340 c 0
 168 340 142 309 126 247 c 1
 44 247 l 1
 50 275 l 2
 71 369 146 420 220 420 c 0
170 193 m 0
 239 193 336 104 388 104 c 0
 419 104 443 134 459 193 c 1
 540 193 l 1
 534 168 l 2
 513 64 436 20 367 20 c 0
 307 20 198 113 152 113 c 0
 117 113 92 82 77 20 c 1
 -5 20 l 1
 0 48 l 2
 21 142 96 193 170 193 c 0
EndSplineSet
Validated: 1
EndChar

StartChar: notequal
Encoding: 8800 8800 337
Width: 627
VWidth: 1504
Flags: W
HStem: 0 21G<50 161.247> 146 80<48 152 308 522> 335 80<89 290 448 563>
LayerCount: 2
Fore
SplineSet
522 146 m 1
 251 146 l 1
 147 0 l 1
 50 0 l 1
 152 146 l 1
 32 146 l 1
 48 226 l 1
 208 226 l 1
 290 335 l 1
 72 335 l 1
 89 415 l 1
 346 415 l 1
 469 582 l 1
 570 582 l 1
 448 415 l 1
 579 415 l 1
 563 335 l 1
 390 335 l 1
 308 226 l 1
 539 226 l 1
 522 146 l 1
EndSplineSet
Validated: 1
EndChar

StartChar: lessequal
Encoding: 8804 8804 338
Width: 627
VWidth: 1504
Flags: W
HStem: 23 78<2 517>
LayerCount: 2
Fore
SplineSet
517 23 m 1
 -14 23 l 1
 2 101 l 1
 534 101 l 1
 517 23 l 1
499 132 m 1
 72 319 l 1
 90 409 l 1
 599 596 l 1
 578 502 l 1
 185 363 l 1
 519 224 l 1
 499 132 l 1
EndSplineSet
Validated: 1
EndChar

StartChar: greaterequal
Encoding: 8805 8805 339
Width: 627
VWidth: 1504
Flags: W
HStem: 23 78<2 517>
LayerCount: 2
Fore
SplineSet
517 23 m 1
 -14 23 l 1
 2 101 l 1
 534 101 l 1
 517 23 l 1
540 319 m 1
 32 132 l 1
 51 224 l 1
 445 363 l 1
 110 502 l 1
 131 596 l 1
 558 409 l 1
 540 319 l 1
EndSplineSet
Validated: 1
EndChar

StartChar: lozenge
Encoding: 9674 9674 340
Width: 609
VWidth: 1504
Flags: W
HStem: 0 21G<187.816 297.523>
LayerCount: 2
Fore
SplineSet
570 331 m 1
 280 0 l 1
 197 0 l 1
 45 331 l 1
 337 663 l 1
 420 663 l 1
 570 331 l 1
480 331 m 1
 364 588 l 1
 135 331 l 1
 254 74 l 1
 480 331 l 1
EndSplineSet
Validated: 1
EndChar

StartChar: dottedcircle
Encoding: 9676 9676 341
Width: 610
VWidth: 1504
Flags: W
HStem: 33 57<320.976 377.086> 51 56<227.783 282.086 417.996 471.364> 104 55<147.636 202.451 496.743 551.537> 187 55<95.6359 149.361 549.743 604.466> 281 56<75.7828 130.086 569.783 623.004> 373 56<95.7828 149.004 548.949 602.217> 456 55<147.504 202.451 495.639 550.361> 508 56<227.783 282.086 415.914 470.217> 525 57<320.976 377.086>
VStem: 75 56<281.783 336.086> 95 55<187.639 241.496 373.636 428.257> 147 56<104.793 158.217 456.783 510.213> 227 56<51.914 106.217 508.783 563.148> 320 58<33.914 89.0505 525.914 581.051> 417 55<51.7539 106.364 508.636 563.308> 496 56<104.956 158.217 456.843 510.09> 549 56<187.949 241.217 373.783 428.024> 569 55<281.636 336.257>
LayerCount: 2
Fore
SplineSet
349 582 m 256x1c8e
 364 582 378 571 378 554 c 256
 378 537 365 525 349 525 c 256
 332 525 320 538 320 554 c 256
 320 571 334 582 349 582 c 256x1c8e
349 90 m 256x9c0e
 364 90 378 79 378 62 c 256
 378 45 365 33 349 33 c 256
 332 33 320 46 320 62 c 256
 320 79 334 90 349 90 c 256x9c0e
102 337 m 256
 119 337 131 324 131 308 c 256
 131 292 118 281 102 281 c 256
 86 281 75 292 75 308 c 256x1c4e
 75 324 86 337 102 337 c 256
596 337 m 256
 613 337 624 323 624 308 c 256
 624 286 606 281 596 281 c 256
 580 281 569 292 569 308 c 256x1c0e40
 569 324 580 337 596 337 c 256
122 429 m 256
 139 429 150 415 150 400 c 256
 150 378 132 373 122 373 c 256
 106 373 95 384 95 400 c 256x1c2e
 95 416 106 429 122 429 c 256
174 511 m 256x1e1e
 191 511 203 500 203 483 c 256
 203 467 191 456 174 456 c 256
 158 456 147 467 147 483 c 256
 147 500 158 511 174 511 c 256x1e1e
254 564 m 256x1d0e
 270 564 283 552 283 535 c 256
 283 519 270 508 254 508 c 256
 238 508 227 519 227 535 c 256
 227 552 238 564 254 564 c 256x1d0e
576 429 m 256
 592 429 603 416 603 400 c 256
 603 384 592 373 576 373 c 256
 559 373 548 384 548 400 c 256
 548 415 559 429 576 429 c 256
523 511 m 256x1e0e
 540 511 551 498 551 483 c 256
 551 461 533 456 523 456 c 256
 506 456 495 467 495 483 c 256
 495 500 508 511 523 511 c 256x1e0e
444 564 m 256x1d0e
 460 564 471 552 471 535 c 256
 471 519 460 508 444 508 c 256
 428 508 415 519 415 535 c 256
 415 552 428 564 444 564 c 256x1d0e
122 242 m 256
 139 242 150 231 150 215 c 256
 150 198 137 187 122 187 c 256
 100 187 95 205 95 215 c 256x1c2e
 95 231 106 242 122 242 c 256
174 159 m 256x3c1e
 191 159 203 148 203 132 c 256
 203 115 191 104 174 104 c 256
 152 104 147 122 147 132 c 256
 147 148 158 159 174 159 c 256x3c1e
254 107 m 256x5c0e
 270 107 283 96 283 80 c 256
 283 63 270 51 254 51 c 256
 238 51 227 64 227 80 c 256
 227 96 238 107 254 107 c 256x5c0e
605 215 m 256x1c0e80
 605 200 596 187 578 187 c 256
 563 187 549 198 549 215 c 256
 549 231 562 242 578 242 c 256
 594 242 605 231 605 215 c 256x1c0e80
552 132 m 256x3c0f
 552 113 542 104 525 104 c 256
 510 104 496 115 496 132 c 256
 496 148 509 159 525 159 c 256
 541 159 552 148 552 132 c 256x3c0f
472 80 m 256
 472 68 467 51 445 51 c 256
 428 51 417 65 417 80 c 256
 417 102 435 107 445 107 c 256x5c0e
 461 107 472 96 472 80 c 256
EndSplineSet
Validated: 1
EndChar

StartChar: uni0E10.alt1
Encoding: 63232 63232 342
Width: 559
VWidth: 1504
Flags: W
HStem: -12 78<244.752 324.109> 164 57<116.791 158.725> 308 58<125.402 201.473> 495 87<367.724 513.48> 532 80<220.087 385.7>
VStem: 56 58<223.876 296.796> 145 97<69.7603 142> 204 72<233.496 304.83> 384 96<303.978 363.722> 534 72<602.472 631.944>
LayerCount: 2
Fore
SplineSet
196 492 m 1xeec0
 439 450 480 412 480 365 c 0
 480 359 480 353 478 346 c 2
 432 125 l 2
 413 34 355 -12 260 -12 c 0
 183 -12 145 18 145 78 c 0xeec0
 145 90 146 103 149 117 c 2
 159 167 l 1
 151 165 144 164 138 164 c 0
 87 164 56 199 56 242 c 0
 56 313 124 366 185 366 c 0
 236 366 276 335 276 287 c 0xedc0
 276 281 276 273 274 266 c 2
 244 120 l 2
 242 113 242 106 242 100 c 0
 242 77 254 66 278 66 c 0
 310 66 330 84 338 120 c 2
 384 337 l 2
 384 340 l 0
 384 388 137 426 75 426 c 1
 118 567 223 612 311 612 c 0xeec0
 365 612 420 582 478 582 c 0
 502 582 521 605 534 650 c 1
 606 630 l 1
 574 540 523 495 454 495 c 0xf6c0
 406 495 347 532 295 532 c 0
 279 532 218 521 196 492 c 1xeec0
150 221 m 256
 177 221 204 247 204 273 c 0xe5c0
 204 294 189 308 168 308 c 256
 138 308 114 282 114 254 c 0
 114 234 130 221 150 221 c 256
EndSplineSet
Validated: 5
EndChar

StartChar: uni0E48.alt1
Encoding: 63237 63237 347
Width: 0
VWidth: 1504
Flags: W
HStem: 698 212<-222 -175>
VStem: -267 137
LayerCount: 2
Back
SplineSet
-174 698 m 1
 -268 698 l 1
 -223 910 l 1
 -129 910 l 1
 -174 698 l 1
EndSplineSet
Fore
Refer: 352 63242 N 1 0 0 1 -180 0 2
Validated: 1
Substitution2: "Single Substitution lookup 42 subtable" uni0E48.alt3
Substitution2: "Single Substitution lookup 42 subtable" uni0E48.alt3
EndChar

StartChar: uni0E49.alt1
Encoding: 63238 63238 348
Width: 0
VWidth: 1504
Flags: W
HStem: 678 61<-401 -344> 934 59<-304.92 -235.436>
VStem: -373 60<857.339 926.528> -234 60<865.267 932.28> -56 90<911.71 958>
LayerCount: 2
Back
SplineSet
12 945 m 1
 -1.33333 895.667 -20.1667 854.167 -44.5 820.5 c 128
 -68.8333 786.833 -97.3333 759.5 -130 738.5 c 128
 -162.667 717.5 -199.333 702.167 -240 692.5 c 128
 -280.667 682.833 -324 678 -370 678 c 2
 -415 678 l 1
 -403 736 l 1
 -382.333 736.667 -364.333 743.333 -349 756 c 128
 -333.667 768.667 -323 781 -317 793 c 1
 -338.333 797.667 -354.333 808.833 -365 826.5 c 128
 -375.667 844.167 -378.333 864.333 -373 887 c 0
 -368.333 913.667 -354.833 935.5 -332.5 952.5 c 128
 -310.167 969.5 -286.667 978 -262 978 c 0
 -232.667 978 -211.833 969 -199.5 951 c 128
 -187.167 933 -184 909.667 -190 881 c 0
 -194.667 856.333 -207 830.667 -227 804 c 128
 -247 777.333 -265.667 756.667 -283 742 c 1
 -233 752 -189.167 775.667 -151.5 813 c 128
 -113.833 850.333 -88.3333 894.333 -75 945 c 1
 12 945 l 1
-247 884 m 0
 -243.667 895.333 -244.833 904.5 -250.5 911.5 c 128
 -256.167 918.5 -264.333 922 -275 922 c 0
 -285 922 -294.333 918.5 -303 911.5 c 128
 -311.667 904.5 -317.333 895.333 -320 884 c 0
 -322 874 -320.333 865.5 -315 858.5 c 128
 -309.667 851.5 -302 848 -292 848 c 0
 -280.667 848 -270.833 851.5 -262.5 858.5 c 128
 -254.167 865.5 -249 874 -247 884 c 0
EndSplineSet
Fore
Refer: 353 63243 S 1 0 0 1 -118 0 2
Validated: 1
Substitution2: "Single Substitution lookup 42 subtable" uni0E49.alt3
Substitution2: "Single Substitution lookup 42 subtable" uni0E49.alt3
EndChar

StartChar: uni0E4A.alt1
Encoding: 63239 63239 349
Width: 0
VWidth: 1504
Flags: W
HStem: 683 48<-446.149 -373.631> 814 49<-386 -365.448>
VStem: -498 50<733.198 801.89> -363 52<741.407 811.337> -193 61<788.986 889.05> -57 69<878.905 946>
LayerCount: 2
Back
SplineSet
12 946 m 1
 -28 774.667 -128.333 689 -289 689 c 1
 -278 737 l 1
 -232 758.333 -204.667 791 -196 835 c 0
 -188.667 867 -199.667 887 -229 895 c 1
 -290 844 l 1
 -331 900 l 1
 -339.667 898 -349.667 893.167 -361 885.5 c 128
 -372.333 877.833 -381 870.333 -387 863 c 1
 -360.333 863 -340 854.333 -326 837 c 128
 -312 819.667 -307.667 798 -313 772 c 0
 -319 746.667 -332.833 725.5 -354.5 708.5 c 128
 -376.167 691.5 -399 683 -423 683 c 0
 -447.667 683 -467.333 691.333 -482 708 c 128
 -496.667 724.667 -501 748 -495 778 c 0
 -489.667 798 -482.5 818 -473.5 838 c 128
 -464.5 858 -452.333 876.333 -437 893 c 128
 -421.667 909.667 -402.833 924 -380.5 936 c 128
 -358.167 948 -332 955.333 -302 958 c 1
 -274 915 l 1
 -227 958 l 1
 -191.667 957.333 -165.833 945.833 -149.5 923.5 c 128
 -133.167 901.167 -128.333 873 -135 839 c 0
 -141 808.333 -153 781.333 -171 758 c 1
 -145 772 -121.5 795.5 -100.5 828.5 c 128
 -79.5 861.5 -64.6667 900.667 -56 946 c 1
 12 946 l 1
-364 772 m 0
 -362 782.667 -364.333 792.333 -371 801 c 128
 -377.667 809.667 -386.333 814 -397 814 c 256
 -408.333 814 -419 809.667 -429 801 c 128
 -439 792.333 -445 782.667 -447 772 c 0
 -449.667 760.667 -447.5 751 -440.5 743 c 128
 -433.5 735 -424.667 731 -414 731 c 256
 -402.667 731 -392.333 735 -383 743 c 128
 -373.667 751 -367.333 760.667 -364 772 c 0
EndSplineSet
Fore
Refer: 354 63244 N 1 0 0 1 -90 0 2
Validated: 1
Substitution2: "Single Substitution lookup 42 subtable" uni0E4A.alt3
Substitution2: "Single Substitution lookup 42 subtable" uni0E4A.alt3
EndChar

StartChar: uni0E4B.alt1
Encoding: 63240 63240 350
Width: 0
VWidth: 1504
Flags: W
HStem: 773 62<-364 -290 -195 -122>
VStem: -376 266
LayerCount: 2
Back
SplineSet
-120 773 m 1
 -206 773 l 1
 -223 698 l 1
 -307 698 l 1
 -290 773 l 1
 -376 773 l 1
 -364 835 l 1
 -278 835 l 1
 -262 907 l 1
 -177 907 l 1
 -194 835 l 1
 -108 835 l 1
 -120 773 l 1
EndSplineSet
Fore
Refer: 355 63245 N 1 0 0 1 -224 0 2
Validated: 1
Substitution2: "Single Substitution lookup 42 subtable" uni0E4B.alt3
Substitution2: "Single Substitution lookup 42 subtable" uni0E4B.alt3
EndChar

StartChar: uni0E4C.alt1
Encoding: 63241 63241 351
Width: 0
VWidth: 1504
Flags: W
HStem: 683 56<-279.664 -207.408>
VStem: -341 59<741.884 810.195> -196 54<751.181 820.528>
LayerCount: 2
Back
SplineSet
-15 1003 m 1
 -28.3333 961 -48.5 930.667 -75.5 912 c 128
 -102.5 893.333 -136.333 878.667 -177 868 c 1
 -163 860 -152.833 848.167 -146.5 832.5 c 128
 -140.167 816.833 -139 799.667 -143 781 c 0
 -149 753.667 -163.5 730.5 -186.5 711.5 c 128
 -209.5 692.5 -234.667 683 -262 683 c 256
 -288.667 683 -309.5 692.5 -324.5 711.5 c 128
 -339.5 730.5 -344 754 -338 782 c 0
 -323.333 854 -276.333 900.667 -197 922 c 0
 -153 933.333 -123.5 947.5 -108.5 964.5 c 128
 -93.5 981.5 -85 994.333 -83 1003 c 1
 -15 1003 l 1
-197 781 m 0
 -195 791.667 -197.333 801.333 -204 810 c 128
 -210.667 818.667 -219.333 823 -230 823 c 256
 -241.333 823 -252.167 818.667 -262.5 810 c 128
 -272.833 801.333 -279 791.667 -281 781 c 0
 -284.333 769.667 -282.5 759.833 -275.5 751.5 c 128
 -268.5 743.167 -259.333 739 -248 739 c 256
 -237.333 739 -227 743.167 -217 751.5 c 128
 -207 759.833 -200.333 769.667 -197 781 c 0
EndSplineSet
Fore
Refer: 356 63246 S 1 0 0 1 -147 0 2
Validated: 1
Substitution2: "Single Substitution lookup 42 subtable" uni0E4C.alt3
Substitution2: "Single Substitution lookup 42 subtable" uni0E4C.alt3
EndChar

StartChar: uni0E48.alt2
Encoding: 63242 63242 352
Width: 0
VWidth: 1504
Flags: W
HStem: 698 212<-42 5>
VStem: -87 137
LayerCount: 2
Fore
SplineSet
5 698 m 1
 -87 698 l 1
 -42 910 l 1
 50 910 l 1
 5 698 l 1
EndSplineSet
Validated: 1
Substitution2: "Single Substitution lookup 40 subtable" uni0E48.alt3
Substitution2: "Single Substitution lookup 41 subtable" uni0E48
Substitution2: "Single Substitution lookup 42 subtable" uni0E48.alt1
Substitution2: "Single Substitution lookup 40 subtable" uni0E48.alt3
Substitution2: "Single Substitution lookup 41 subtable" uni0E48
Substitution2: "Single Substitution lookup 42 subtable" uni0E48.alt1
EndChar

StartChar: uni0E49.alt2
Encoding: 63243 63243 353
Width: 0
VWidth: 1504
Flags: W
HStem: 678 61<-283 -226> 934 59<-186.92 -117.436>
VStem: -255 60<857.339 926.528> -116 60<865.267 932.28> 62 90<911.71 958>
LayerCount: 2
Fore
SplineSet
-155 745 m 1
 -49 763 34 851 62 958 c 1
 152 958 l 1
 69 750 -43 678 -247 678 c 2
 -296 678 l 1
 -283 739 l 1
 -239 740 -205 776 -193 799 c 1
 -232 805 -255 832 -255 875 c 0
 -255 947 -189 993 -134 993 c 0
 -72 993 -56 950 -56 918 c 0
 -56 849 -120 773 -155 745 c 1
-165 856 m 256
 -142 856 -116 875 -116 903 c 0
 -116 922 -129 934 -149 934 c 256
 -173 934 -195 913 -195 886 c 0
 -195 868 -184 856 -165 856 c 256
EndSplineSet
Validated: 1
Substitution2: "Single Substitution lookup 40 subtable" uni0E49.alt3
Substitution2: "Single Substitution lookup 41 subtable" uni0E49
Substitution2: "Single Substitution lookup 42 subtable" uni0E49.alt1
Substitution2: "Single Substitution lookup 40 subtable" uni0E49.alt3
Substitution2: "Single Substitution lookup 41 subtable" uni0E49
Substitution2: "Single Substitution lookup 42 subtable" uni0E49.alt1
EndChar

StartChar: uni0E4A.alt2
Encoding: 63244 63244 354
Width: 0
VWidth: 1504
Flags: W
HStem: 683 48<-356.149 -283.631> 814 49<-296 -275.448>
VStem: -408 50<733.198 801.89> -273 52<741.407 811.337> -103 61<788.986 889.05> 33 69<878.905 946>
LayerCount: 2
Fore
SplineSet
-81 758 m 1
 -48 776 11 829 33 946 c 1
 102 946 l 1
 61 775 -39 689 -199 689 c 1
 -188 737 l 1
 -113 772 -103 832 -103 852 c 0
 -103 874 -115 889 -138 895 c 1
 -200 844 l 1
 -241 900 l 1
 -253 897 -280 883 -296 863 c 1
 -249 863 -221 832 -221 793 c 0
 -221 734 -277 683 -332 683 c 0
 -377 683 -408 711 -408 754 c 0
 -408 795 -365 944 -212 958 c 1
 -184 915 l 1
 -137 958 l 1
 -60 957 -42 902 -42 867 c 0
 -42 823 -63 782 -81 758 c 1
-323 731 m 256
 -301 731 -273 753 -273 780 c 0
 -273 790 -280 814 -307 814 c 256
 -333 814 -358 787 -358 762 c 0
 -358 743 -341 731 -323 731 c 256
EndSplineSet
Validated: 1
Substitution2: "Single Substitution lookup 40 subtable" uni0E4A.alt3
Substitution2: "Single Substitution lookup 41 subtable" uni0E4A
Substitution2: "Single Substitution lookup 42 subtable" uni0E4A.alt1
Substitution2: "Single Substitution lookup 40 subtable" uni0E4A.alt3
Substitution2: "Single Substitution lookup 41 subtable" uni0E4A
Substitution2: "Single Substitution lookup 42 subtable" uni0E4A.alt1
EndChar

